<?xml version="1.0" encoding="UTF-8" standalone="no"?><svg xmlns="http://www.w3.org/2000/svg" xmlns:xlink="http://www.w3.org/1999/xlink" contentScriptType="application/ecmascript" contentStyleType="text/css" height="202px" preserveAspectRatio="none" style="width:467px;height:202px;background:#FFFFFF;" version="1.1" viewBox="0 0 467 202" width="467px" zoomAndPan="magnify"><defs><filter height="300%" id="f119suw1bqezu" width="300%" x="-1" y="-1"><feGaussianBlur result="blurOut" stdDeviation="2.0"/><feColorMatrix in="blurOut" result="blurOut2" type="matrix" values="0 0 0 0 0 0 0 0 0 0 0 0 0 0 0 0 0 0 .4 0"/><feOffset dx="4.0" dy="4.0" in="blurOut2" result="blurOut3"/><feBlend in="SourceGraphic" in2="blurOut3" mode="normal"/></filter></defs><g><!--MD5=[48de76ac9e45cd2dd14a095e4e7d40a3]
class Privado_SegReta--><rect codeLine="1" fill="#FEFECE" filter="url(#f119suw1bqezu)" height="73.9102" id="Privado_SegReta" style="stroke:#A80036;stroke-width:1.5;" width="446" x="7" y="115"/><ellipse cx="178.25" cy="131" fill="#ADD1B2" rx="11" ry="11" style="stroke:#A80036;stroke-width:1.0;"/><path d="M180.7231,137.1431 Q180.1421,137.4419 179.5029,137.5913 Q178.8638,137.7407 178.1582,137.7407 Q175.6514,137.7407 174.3315,136.0889 Q173.0117,134.437 173.0117,131.3159 Q173.0117,128.1865 174.3315,126.5347 Q175.6514,124.8828 178.1582,124.8828 Q178.8638,124.8828 179.5112,125.0322 Q180.1587,125.1816 180.7231,125.4805 L180.7231,128.2031 Q180.0923,127.6221 179.4988,127.3523 Q178.9053,127.0825 178.2744,127.0825 Q176.9297,127.0825 176.2449,128.1492 Q175.5601,129.2158 175.5601,131.3159 Q175.5601,133.4077 176.2449,134.4744 Q176.9297,135.541 178.2744,135.541 Q178.9053,135.541 179.4988,135.2712 Q180.0923,135.0015 180.7231,134.4204 Z " fill="#000000"/><text fill="#000000" font-family="sans-serif" font-size="12" lengthAdjust="spacing" textLength="95" x="198.75" y="135.5352">Privado_SegReta</text><line style="stroke:#A80036;stroke-width:1.5;" x1="8" x2="452" y1="147" y2="147"/><line style="stroke:#A80036;stroke-width:1.5;" x1="8" x2="452" y1="155" y2="155"/><ellipse cx="18" cy="166" fill="#84BE84" rx="3" ry="3" style="stroke:#038048;stroke-width:1.0;"/><text fill="#000000" font-family="sans-serif" font-size="11" lengthAdjust="spacing" textLength="420" x="27" y="169.6348">Privado_SegReta(rotulo:string, paiRef:Objeto, ptoIni:Ponto4D, ptoFim:Ponto4D)</text><ellipse cx="18" cy="178.9551" fill="#84BE84" rx="3" ry="3" style="stroke:#038048;stroke-width:1.0;"/><text fill="#000000" font-family="sans-serif" font-size="11" lengthAdjust="spacing" textLength="155" x="27" y="182.5898">«override» ToString() : string</text><!--MD5=[8b9e0d00865063ef789ad294aa32e6ea]
class ObjetoGeometria--><rect fill="#FEFECE" filter="url(#f119suw1bqezu)" height="48" id="ObjetoGeometria" style="stroke:#A80036;stroke-width:1.5;" width="131" x="164.5" y="7"/><ellipse cx="179.5" cy="23" fill="#ADD1B2" rx="11" ry="11" style="stroke:#A80036;stroke-width:1.0;"/><path d="M181.9731,29.1431 Q181.3921,29.4419 180.7529,29.5913 Q180.1138,29.7407 179.4082,29.7407 Q176.9014,29.7407 175.5815,28.0889 Q174.2617,26.437 174.2617,23.3159 Q174.2617,20.1865 175.5815,18.5347 Q176.9014,16.8828 179.4082,16.8828 Q180.1138,16.8828 180.7612,17.0322 Q181.4087,17.1816 181.9731,17.4805 L181.9731,20.2031 Q181.3423,19.6221 180.7488,19.3523 Q180.1553,19.0825 179.5244,19.0825 Q178.1797,19.0825 177.4949,20.1492 Q176.8101,21.2158 176.8101,23.3159 Q176.8101,25.4077 177.4949,26.4744 Q178.1797,27.541 179.5244,27.541 Q180.1553,27.541 180.7488,27.2712 Q181.3423,27.0015 181.9731,26.4204 Z " fill="#000000"/><text fill="#000000" font-family="sans-serif" font-size="12" lengthAdjust="spacing" textLength="99" x="193.5" y="27.5352">ObjetoGeometria</text><line style="stroke:#A80036;stroke-width:1.5;" x1="165.5" x2="294.5" y1="39" y2="39"/><line style="stroke:#A80036;stroke-width:1.5;" x1="165.5" x2="294.5" y1="47" y2="47"/><!--MD5=[fba79b035eb861c3c10e58ba51297e23]
reverse link ObjetoGeometria to Privado_SegReta--><path codeLine="5" d="M230,75.5529 C230,88.5142 230,102.5269 230,114.9716 " fill="none" id="ObjetoGeometria-backto-Privado_SegReta" style="stroke:#A80036;stroke-width:1.0;"/><polygon fill="none" points="223.0001,75.1954,230,55.1953,237.0001,75.1953,223.0001,75.1954" style="stroke:#A80036;stroke-width:1.0;"/><!--MD5=[8f0c02a88fc020e325b412500e728c99]
@startuml Privado_SegReta
class Privado_SegReta {
    + Privado_SegReta(rotulo:string, paiRef:Objeto, ptoIni:Ponto4D, ptoFim:Ponto4D)
    + <<override>> ToString() : string
}
ObjetoGeometria <|- - Privado_SegReta
@enduml

PlantUML version 1.2022.0(Tue Jan 11 13:16:42 BRT 2022)
(GPL source distribution)
Java Runtime: OpenJDK Runtime Environment
JVM: OpenJDK 64-Bit Server VM
Default Encoding: UTF-8
Language: en
Country: BR
--></g></svg>