<?xml version="1.0" encoding="UTF-8" standalone="no"?><svg xmlns="http://www.w3.org/2000/svg" xmlns:xlink="http://www.w3.org/1999/xlink" contentScriptType="application/ecmascript" contentStyleType="text/css" height="202px" preserveAspectRatio="none" style="width:463px;height:202px;background:#FFFFFF;" version="1.1" viewBox="0 0 463 202" width="463px" zoomAndPan="magnify"><defs><filter height="300%" id="f1ojoxx0v2g4sw" width="300%" x="-1" y="-1"><feGaussianBlur result="blurOut" stdDeviation="2.0"/><feColorMatrix in="blurOut" result="blurOut2" type="matrix" values="0 0 0 0 0 0 0 0 0 0 0 0 0 0 0 0 0 0 .4 0"/><feOffset dx="4.0" dy="4.0" in="blurOut2" result="blurOut3"/><feBlend in="SourceGraphic" in2="blurOut3" mode="normal"/></filter></defs><g><!--MD5=[c3c34a12a27bba7e909822120bf61f6f]
class Privado_Circulo--><rect codeLine="1" fill="#FEFECE" filter="url(#f1ojoxx0v2g4sw)" height="73.9102" id="Privado_Circulo" style="stroke:#A80036;stroke-width:1.5;" width="442" x="7" y="115"/><ellipse cx="179.75" cy="131" fill="#ADD1B2" rx="11" ry="11" style="stroke:#A80036;stroke-width:1.0;"/><path d="M182.2231,137.1431 Q181.6421,137.4419 181.0029,137.5913 Q180.3638,137.7407 179.6582,137.7407 Q177.1514,137.7407 175.8315,136.0889 Q174.5117,134.437 174.5117,131.3159 Q174.5117,128.1865 175.8315,126.5347 Q177.1514,124.8828 179.6582,124.8828 Q180.3638,124.8828 181.0112,125.0322 Q181.6587,125.1816 182.2231,125.4805 L182.2231,128.2031 Q181.5923,127.6221 180.9988,127.3523 Q180.4053,127.0825 179.7744,127.0825 Q178.4297,127.0825 177.7449,128.1492 Q177.0601,129.2158 177.0601,131.3159 Q177.0601,133.4077 177.7449,134.4744 Q178.4297,135.541 179.7744,135.541 Q180.4053,135.541 180.9988,135.2712 Q181.5923,135.0015 182.2231,134.4204 Z " fill="#000000"/><text fill="#000000" font-family="sans-serif" font-size="12" lengthAdjust="spacing" textLength="88" x="200.25" y="135.5352">Privado_Circulo</text><line style="stroke:#A80036;stroke-width:1.5;" x1="8" x2="448" y1="147" y2="147"/><line style="stroke:#A80036;stroke-width:1.5;" x1="8" x2="448" y1="155" y2="155"/><ellipse cx="18" cy="166" fill="#84BE84" rx="3" ry="3" style="stroke:#038048;stroke-width:1.0;"/><text fill="#000000" font-family="sans-serif" font-size="11" lengthAdjust="spacing" textLength="416" x="27" y="169.6348">Privado_Circulo(rotulo:string, paiRef:Objeto, ptoCentro:Ponto4D, raio:double)</text><ellipse cx="18" cy="178.9551" fill="#84BE84" rx="3" ry="3" style="stroke:#038048;stroke-width:1.0;"/><text fill="#000000" font-family="sans-serif" font-size="11" lengthAdjust="spacing" textLength="155" x="27" y="182.5898">«override» ToString() : string</text><!--MD5=[8b9e0d00865063ef789ad294aa32e6ea]
class ObjetoGeometria--><rect fill="#FEFECE" filter="url(#f1ojoxx0v2g4sw)" height="48" id="ObjetoGeometria" style="stroke:#A80036;stroke-width:1.5;" width="131" x="162.5" y="7"/><ellipse cx="177.5" cy="23" fill="#ADD1B2" rx="11" ry="11" style="stroke:#A80036;stroke-width:1.0;"/><path d="M179.9731,29.1431 Q179.3921,29.4419 178.7529,29.5913 Q178.1138,29.7407 177.4082,29.7407 Q174.9014,29.7407 173.5815,28.0889 Q172.2617,26.437 172.2617,23.3159 Q172.2617,20.1865 173.5815,18.5347 Q174.9014,16.8828 177.4082,16.8828 Q178.1138,16.8828 178.7612,17.0322 Q179.4087,17.1816 179.9731,17.4805 L179.9731,20.2031 Q179.3423,19.6221 178.7488,19.3523 Q178.1553,19.0825 177.5244,19.0825 Q176.1797,19.0825 175.4949,20.1492 Q174.8101,21.2158 174.8101,23.3159 Q174.8101,25.4077 175.4949,26.4744 Q176.1797,27.541 177.5244,27.541 Q178.1553,27.541 178.7488,27.2712 Q179.3423,27.0015 179.9731,26.4204 Z " fill="#000000"/><text fill="#000000" font-family="sans-serif" font-size="12" lengthAdjust="spacing" textLength="99" x="191.5" y="27.5352">ObjetoGeometria</text><line style="stroke:#A80036;stroke-width:1.5;" x1="163.5" x2="292.5" y1="39" y2="39"/><line style="stroke:#A80036;stroke-width:1.5;" x1="163.5" x2="292.5" y1="47" y2="47"/><!--MD5=[17d508597094ccb24ae336549ba236e1]
reverse link ObjetoGeometria to Privado_Circulo--><path codeLine="5" d="M228,75.5529 C228,88.5142 228,102.5269 228,114.9716 " fill="none" id="ObjetoGeometria-backto-Privado_Circulo" style="stroke:#A80036;stroke-width:1.0;"/><polygon fill="none" points="221.0001,75.1954,228,55.1953,235.0001,75.1953,221.0001,75.1954" style="stroke:#A80036;stroke-width:1.0;"/><!--MD5=[b69ba99849e249ba2fbcd6607b2c8987]
@startuml Privado_Circulo
class Privado_Circulo {
    + Privado_Circulo(rotulo:string, paiRef:Objeto, ptoCentro:Ponto4D, raio:double)
    + <<override>> ToString() : string
}
ObjetoGeometria <|- - Privado_Circulo
@enduml

PlantUML version 1.2022.0(Tue Jan 11 13:16:42 BRT 2022)
(GPL source distribution)
Java Runtime: OpenJDK Runtime Environment
JVM: OpenJDK 64-Bit Server VM
Default Encoding: UTF-8
Language: en
Country: BR
--></g></svg>