<?xml version="1.0" encoding="UTF-8" standalone="no"?><svg xmlns="http://www.w3.org/2000/svg" xmlns:xlink="http://www.w3.org/1999/xlink" contentScriptType="application/ecmascript" contentStyleType="text/css" height="345px" preserveAspectRatio="none" style="width:591px;height:345px;background:#FFFFFF;" version="1.1" viewBox="0 0 591 345" width="591px" zoomAndPan="magnify"><defs><filter height="300%" id="f1uvfhxf82pu3z" width="300%" x="-1" y="-1"><feGaussianBlur result="blurOut" stdDeviation="2.0"/><feColorMatrix in="blurOut" result="blurOut2" type="matrix" values="0 0 0 0 0 0 0 0 0 0 0 0 0 0 0 0 0 0 .4 0"/><feOffset dx="4.0" dy="4.0" in="blurOut2" result="blurOut3"/><feBlend in="SourceGraphic" in2="blurOut3" mode="normal"/></filter></defs><g><!--MD5=[ea10f8dc465baf5e542f54928f2443c8]
class BBox--><rect codeLine="1" fill="#FEFECE" filter="url(#f1uvfhxf82pu3z)" height="216.416" id="BBox" style="stroke:#A80036;stroke-width:1.5;" width="570" x="7" y="7"/><ellipse cx="273.75" cy="23" fill="#ADD1B2" rx="11" ry="11" style="stroke:#A80036;stroke-width:1.0;"/><path d="M276.2231,29.1431 Q275.6421,29.4419 275.0029,29.5913 Q274.3638,29.7407 273.6582,29.7407 Q271.1514,29.7407 269.8315,28.0889 Q268.5117,26.437 268.5117,23.3159 Q268.5117,20.1865 269.8315,18.5347 Q271.1514,16.8828 273.6582,16.8828 Q274.3638,16.8828 275.0112,17.0322 Q275.6587,17.1816 276.2231,17.4805 L276.2231,20.2031 Q275.5923,19.6221 274.9988,19.3523 Q274.4053,19.0825 273.7744,19.0825 Q272.4297,19.0825 271.7449,20.1492 Q271.0601,21.2158 271.0601,23.3159 Q271.0601,25.4077 271.7449,26.4744 Q272.4297,27.541 273.7744,27.541 Q274.4053,27.541 274.9988,27.2712 Q275.5923,27.0015 276.2231,26.4204 Z " fill="#000000"/><text fill="#000000" font-family="sans-serif" font-size="12" lengthAdjust="spacing" textLength="28" x="294.25" y="27.5352">BBox</text><line style="stroke:#A80036;stroke-width:1.5;" x1="8" x2="576" y1="39" y2="39"/><ellipse cx="18" cy="50" rx="3" ry="3" style="stroke:#038048;stroke-width:1.0;fill:none;"/><text fill="#000000" font-family="sans-serif" font-size="11" lengthAdjust="spacing" textLength="148" x="27" y="53.6348">obterMenorX : double «get»</text><ellipse cx="18" cy="62.9551" rx="3" ry="3" style="stroke:#038048;stroke-width:1.0;fill:none;"/><text fill="#000000" font-family="sans-serif" font-size="11" lengthAdjust="spacing" textLength="148" x="27" y="66.5898">obterMenorY : double «get»</text><ellipse cx="18" cy="75.9102" rx="3" ry="3" style="stroke:#038048;stroke-width:1.0;fill:none;"/><text fill="#000000" font-family="sans-serif" font-size="11" lengthAdjust="spacing" textLength="148" x="27" y="79.5449">obterMenorZ : double «get»</text><ellipse cx="18" cy="88.8652" rx="3" ry="3" style="stroke:#038048;stroke-width:1.0;fill:none;"/><text fill="#000000" font-family="sans-serif" font-size="11" lengthAdjust="spacing" textLength="144" x="27" y="92.5">obterMaiorX : double «get»</text><ellipse cx="18" cy="101.8203" rx="3" ry="3" style="stroke:#038048;stroke-width:1.0;fill:none;"/><text fill="#000000" font-family="sans-serif" font-size="11" lengthAdjust="spacing" textLength="144" x="27" y="105.4551">obterMaiorY : double «get»</text><ellipse cx="18" cy="114.7754" rx="3" ry="3" style="stroke:#038048;stroke-width:1.0;fill:none;"/><text fill="#000000" font-family="sans-serif" font-size="11" lengthAdjust="spacing" textLength="144" x="27" y="118.4102">obterMaiorZ : double «get»</text><line style="stroke:#A80036;stroke-width:1.5;" x1="8" x2="576" y1="124.7305" y2="124.7305"/><ellipse cx="18" cy="135.7305" fill="#84BE84" rx="3" ry="3" style="stroke:#038048;stroke-width:1.0;"/><text fill="#000000" font-family="sans-serif" font-size="11" lengthAdjust="spacing" textLength="544" x="27" y="139.3652">BBox(menorX:double, menorY:double, menorZ:double, maiorX:double, maiorY:double, maiorZ:double)</text><ellipse cx="18" cy="148.6855" fill="#84BE84" rx="3" ry="3" style="stroke:#038048;stroke-width:1.0;"/><text fill="#000000" font-family="sans-serif" font-size="11" lengthAdjust="spacing" textLength="149" x="27" y="152.3203">Atribuir(pto:Ponto4D) : void</text><ellipse cx="18" cy="161.6406" fill="#84BE84" rx="3" ry="3" style="stroke:#038048;stroke-width:1.0;"/><text fill="#000000" font-family="sans-serif" font-size="11" lengthAdjust="spacing" textLength="155" x="27" y="165.2754">Atualizar(pto:Ponto4D) : void</text><ellipse cx="18" cy="174.5957" fill="#84BE84" rx="3" ry="3" style="stroke:#038048;stroke-width:1.0;"/><text fill="#000000" font-family="sans-serif" font-size="11" lengthAdjust="spacing" textLength="239" x="27" y="178.2305">Atualizar(x:double, y:double, z:double) : void</text><ellipse cx="18" cy="187.5508" fill="#84BE84" rx="3" ry="3" style="stroke:#038048;stroke-width:1.0;"/><text fill="#000000" font-family="sans-serif" font-size="11" lengthAdjust="spacing" textLength="130" x="27" y="191.1855">ProcessarCentro() : void</text><ellipse cx="18" cy="200.5059" fill="#84BE84" rx="3" ry="3" style="stroke:#038048;stroke-width:1.0;"/><text fill="#000000" font-family="sans-serif" font-size="11" lengthAdjust="spacing" textLength="91" x="27" y="204.1406">Desenhar() : void</text><ellipse cx="18" cy="213.4609" fill="#84BE84" rx="3" ry="3" style="stroke:#038048;stroke-width:1.0;"/><text fill="#000000" font-family="sans-serif" font-size="11" lengthAdjust="spacing" textLength="155" x="27" y="217.0957">«override» ToString() : string</text><!--MD5=[ef5ff341dffd6737742a54781c8b5648]
class Ponto4D--><rect fill="#FEFECE" filter="url(#f1uvfhxf82pu3z)" height="48" id="Ponto4D" style="stroke:#A80036;stroke-width:1.5;" width="81" x="251.5" y="283"/><ellipse cx="266.5" cy="299" fill="#ADD1B2" rx="11" ry="11" style="stroke:#A80036;stroke-width:1.0;"/><path d="M268.9731,305.1431 Q268.3921,305.4419 267.7529,305.5913 Q267.1138,305.7407 266.4082,305.7407 Q263.9014,305.7407 262.5815,304.0889 Q261.2617,302.437 261.2617,299.3159 Q261.2617,296.1865 262.5815,294.5347 Q263.9014,292.8828 266.4082,292.8828 Q267.1138,292.8828 267.7612,293.0322 Q268.4087,293.1816 268.9731,293.4805 L268.9731,296.2031 Q268.3423,295.6221 267.7488,295.3523 Q267.1553,295.0825 266.5244,295.0825 Q265.1797,295.0825 264.4949,296.1492 Q263.8101,297.2158 263.8101,299.3159 Q263.8101,301.4077 264.4949,302.4744 Q265.1797,303.541 266.5244,303.541 Q267.1553,303.541 267.7488,303.2712 Q268.3423,303.0015 268.9731,302.4204 Z " fill="#000000"/><text fill="#000000" font-family="sans-serif" font-size="12" lengthAdjust="spacing" textLength="49" x="280.5" y="303.5352">Ponto4D</text><line style="stroke:#A80036;stroke-width:1.5;" x1="252.5" x2="331.5" y1="315" y2="315"/><line style="stroke:#A80036;stroke-width:1.5;" x1="252.5" x2="331.5" y1="323" y2="323"/><!--MD5=[21d10fafb72c8ad2b9cea5ee0b564837]
link BBox to Ponto4D--><path codeLine="16" d="M292,223.0653 C292,243.1146 292,262.4505 292,277.5001 " fill="none" id="BBox-to-Ponto4D" style="stroke:#A80036;stroke-width:1.0;"/><polygon fill="#A80036" points="292,282.8441,296,273.8441,292,277.8441,288,273.8441,292,282.8441" style="stroke:#A80036;stroke-width:1.0;"/><text fill="#000000" font-family="sans-serif" font-size="13" lengthAdjust="spacing" textLength="75" x="207.3906" y="272.3404">obterCentro</text><!--MD5=[88ec6408c41a88ad0a39031b95a078a0]
@startuml BBox
class BBox {
    + BBox(menorX:double, menorY:double, menorZ:double, maiorX:double, maiorY:double, maiorZ:double)
    + Atribuir(pto:Ponto4D) : void
    + Atualizar(pto:Ponto4D) : void
    + Atualizar(x:double, y:double, z:double) : void
    + ProcessarCentro() : void
    + Desenhar() : void
    + obterMenorX : double <<get>>
    + obterMenorY : double <<get>>
    + obterMenorZ : double <<get>>
    + obterMaiorX : double <<get>>
    + obterMaiorY : double <<get>>
    + obterMaiorZ : double <<get>>
    + <<override>> ToString() : string
}
BBox - -> "obterCentro" Ponto4D
@enduml

PlantUML version 1.2022.0(Tue Jan 11 13:16:42 BRT 2022)
(GPL source distribution)
Java Runtime: OpenJDK Runtime Environment
JVM: OpenJDK 64-Bit Server VM
Default Encoding: UTF-8
Language: en
Country: BR
--></g></svg>