<?xml version="1.0" encoding="UTF-8" standalone="no"?><svg xmlns="http://www.w3.org/2000/svg" xmlns:xlink="http://www.w3.org/1999/xlink" contentScriptType="application/ecmascript" contentStyleType="text/css" height="255px" preserveAspectRatio="none" style="width:380px;height:255px;background:#FFFFFF;" version="1.1" viewBox="0 0 380 255" width="380px" zoomAndPan="magnify"><defs><filter height="300%" id="f13ydyglcvqa47" width="300%" x="-1" y="-1"><feGaussianBlur result="blurOut" stdDeviation="2.0"/><feColorMatrix in="blurOut" result="blurOut2" type="matrix" values="0 0 0 0 0 0 0 0 0 0 0 0 0 0 0 0 0 0 .4 0"/><feOffset dx="4.0" dy="4.0" in="blurOut2" result="blurOut3"/><feBlend in="SourceGraphic" in2="blurOut3" mode="normal"/></filter></defs><g><!--MD5=[c3851e40b8ed2f68ee08d490e0f0cd81]
class CameraPerspective--><rect codeLine="1" fill="#FEFECE" filter="url(#f13ydyglcvqa47)" height="125.7305" id="CameraPerspective" style="stroke:#A80036;stroke-width:1.5;" width="359" x="7" y="7"/><ellipse cx="126.75" cy="23" fill="#ADD1B2" rx="11" ry="11" style="stroke:#A80036;stroke-width:1.0;"/><path d="M129.2231,29.1431 Q128.6421,29.4419 128.0029,29.5913 Q127.3638,29.7407 126.6582,29.7407 Q124.1514,29.7407 122.8315,28.0889 Q121.5117,26.437 121.5117,23.3159 Q121.5117,20.1865 122.8315,18.5347 Q124.1514,16.8828 126.6582,16.8828 Q127.3638,16.8828 128.0112,17.0322 Q128.6587,17.1816 129.2231,17.4805 L129.2231,20.2031 Q128.5923,19.6221 127.9988,19.3523 Q127.4053,19.0825 126.7744,19.0825 Q125.4297,19.0825 124.7449,20.1492 Q124.0601,21.2158 124.0601,23.3159 Q124.0601,25.4077 124.7449,26.4744 Q125.4297,27.541 126.7744,27.541 Q127.4053,27.541 127.9988,27.2712 Q128.5923,27.0015 129.2231,26.4204 Z " fill="#000000"/><text fill="#000000" font-family="sans-serif" font-size="12" lengthAdjust="spacing" textLength="111" x="147.25" y="27.5352">CameraPerspective</text><line style="stroke:#A80036;stroke-width:1.5;" x1="8" x2="365" y1="39" y2="39"/><ellipse cx="18" cy="50" rx="3" ry="3" style="stroke:#038048;stroke-width:1.0;fill:none;"/><text fill="#000000" font-family="sans-serif" font-size="11" lengthAdjust="spacing" textLength="121" x="27" y="53.6348">Fovy : float «get» «set»</text><ellipse cx="18" cy="62.9551" rx="3" ry="3" style="stroke:#038048;stroke-width:1.0;fill:none;"/><text fill="#000000" font-family="sans-serif" font-size="11" lengthAdjust="spacing" textLength="133" x="27" y="66.5898">Aspect : float «get» «set»</text><ellipse cx="18" cy="75.9102" rx="3" ry="3" style="stroke:#038048;stroke-width:1.0;fill:none;"/><text fill="#000000" font-family="sans-serif" font-size="11" lengthAdjust="spacing" textLength="121" x="27" y="79.5449">Near : float «get» «set»</text><ellipse cx="18" cy="88.8652" rx="3" ry="3" style="stroke:#038048;stroke-width:1.0;fill:none;"/><text fill="#000000" font-family="sans-serif" font-size="11" lengthAdjust="spacing" textLength="113" x="27" y="92.5">Far : float «get» «set»</text><line style="stroke:#A80036;stroke-width:1.5;" x1="8" x2="365" y1="98.8203" y2="98.8203"/><ellipse cx="18" cy="109.8203" fill="#84BE84" rx="3" ry="3" style="stroke:#038048;stroke-width:1.0;"/><text fill="#000000" font-family="sans-serif" font-size="11" lengthAdjust="spacing" textLength="333" x="27" y="113.4551">CameraPerspective(fovy:float, aspect:float, near:float, far:float)</text><ellipse cx="18" cy="122.7754" fill="#84BE84" rx="3" ry="3" style="stroke:#038048;stroke-width:1.0;"/><text fill="#000000" font-family="sans-serif" font-size="11" lengthAdjust="spacing" textLength="155" x="27" y="126.4102">«override» ToString() : string</text><!--MD5=[65d619c042c23702cef2ca07d67b1cf6]
class Vector3--><rect fill="#FEFECE" filter="url(#f13ydyglcvqa47)" height="48" id="Vector3" style="stroke:#A80036;stroke-width:1.5;" width="77" x="148" y="193"/><ellipse cx="163" cy="209" fill="#ADD1B2" rx="11" ry="11" style="stroke:#A80036;stroke-width:1.0;"/><path d="M165.4731,215.1431 Q164.8921,215.4419 164.2529,215.5913 Q163.6138,215.7407 162.9082,215.7407 Q160.4014,215.7407 159.0815,214.0889 Q157.7617,212.437 157.7617,209.3159 Q157.7617,206.1865 159.0815,204.5347 Q160.4014,202.8828 162.9082,202.8828 Q163.6138,202.8828 164.2612,203.0322 Q164.9087,203.1816 165.4731,203.4805 L165.4731,206.2031 Q164.8423,205.6221 164.2488,205.3523 Q163.6553,205.0825 163.0244,205.0825 Q161.6797,205.0825 160.9949,206.1492 Q160.3101,207.2158 160.3101,209.3159 Q160.3101,211.4077 160.9949,212.4744 Q161.6797,213.541 163.0244,213.541 Q163.6553,213.541 164.2488,213.2712 Q164.8423,213.0015 165.4731,212.4204 Z " fill="#000000"/><text fill="#000000" font-family="sans-serif" font-size="12" lengthAdjust="spacing" textLength="45" x="177" y="213.5352">Vector3</text><line style="stroke:#A80036;stroke-width:1.5;" x1="149" x2="224" y1="225" y2="225"/><line style="stroke:#A80036;stroke-width:1.5;" x1="149" x2="224" y1="233" y2="233"/><!--MD5=[f94cdd04709e36a9b2c27ce98e350cf2]
link CameraPerspective to Vector3--><path codeLine="9" d="M160.4807,133.1943 C159.6242,152.2107 161.1524,172.1661 165.0651,187.8319 " fill="none" id="CameraPerspective-to-Vector3" style="stroke:#A80036;stroke-width:1.0;"/><polygon fill="#A80036" points="166.4835,192.9727,167.9457,183.233,165.1537,188.1528,160.2339,185.3607,166.4835,192.9727" style="stroke:#A80036;stroke-width:1.0;"/><text fill="#000000" font-family="sans-serif" font-size="13" lengthAdjust="spacing" textLength="21" x="137.2822" y="182.1098">Eye</text><!--MD5=[f94cdd04709e36a9b2c27ce98e350cf2]
link CameraPerspective to Vector3--><path codeLine="10" d="M186.5,133.1943 C186.5,152.2107 186.5,172.1661 186.5,187.8319 " fill="none" id="CameraPerspective-to-Vector3-1" style="stroke:#A80036;stroke-width:1.0;"/><polygon fill="#A80036" points="186.5,192.9727,190.5,183.9727,186.5,187.9727,182.5,183.9727,186.5,192.9727" style="stroke:#A80036;stroke-width:1.0;"/><text fill="#000000" font-family="sans-serif" font-size="13" lengthAdjust="spacing" textLength="14" x="170.6188" y="182.1098">At</text><!--MD5=[f94cdd04709e36a9b2c27ce98e350cf2]
link CameraPerspective to Vector3--><path codeLine="11" d="M212.5193,133.1943 C213.3758,152.2107 211.8476,172.1661 207.9349,187.8319 " fill="none" id="CameraPerspective-to-Vector3-2" style="stroke:#A80036;stroke-width:1.0;"/><polygon fill="#A80036" points="206.5165,192.9727,212.7661,185.3607,207.8463,188.1528,205.0543,183.233,206.5165,192.9727" style="stroke:#A80036;stroke-width:1.0;"/><text fill="#000000" font-family="sans-serif" font-size="13" lengthAdjust="spacing" textLength="17" x="192.6116" y="182.1098">Up</text><!--MD5=[aad13b42ce3c45629d949145189d4d92]
@startuml CameraPerspective
class CameraPerspective {
    + CameraPerspective(fovy:float, aspect:float, near:float, far:float)
    + Fovy : float <<get>> <<set>>
    + Aspect : float <<get>> <<set>>
    + Near : float <<get>> <<set>>
    + Far : float <<get>> <<set>>
    + <<override>> ToString() : string
}
CameraPerspective - -> "Eye" Vector3
CameraPerspective - -> "At" Vector3
CameraPerspective - -> "Up" Vector3
@enduml

PlantUML version 1.2022.0(Tue Jan 11 13:16:42 BRT 2022)
(GPL source distribution)
Java Runtime: OpenJDK Runtime Environment
JVM: OpenJDK 64-Bit Server VM
Default Encoding: UTF-8
Language: en
Country: BR
--></g></svg>