<?xml version="1.0" encoding="UTF-8" standalone="no"?><svg xmlns="http://www.w3.org/2000/svg" xmlns:xlink="http://www.w3.org/1999/xlink" contentScriptType="application/ecmascript" contentStyleType="text/css" height="552px" preserveAspectRatio="none" style="width:1871px;height:552px;background:#FFFFFF;" version="1.1" viewBox="0 0 1871 552" width="1871px" zoomAndPan="magnify"><defs><filter height="300%" id="f1fr5cqzkgnfsc" width="300%" x="-1" y="-1"><feGaussianBlur result="blurOut" stdDeviation="2.0"/><feColorMatrix in="blurOut" result="blurOut2" type="matrix" values="0 0 0 0 0 0 0 0 0 0 0 0 0 0 0 0 0 0 .4 0"/><feOffset dx="4.0" dy="4.0" in="blurOut2" result="blurOut3"/><feBlend in="SourceGraphic" in2="blurOut3" mode="normal"/></filter></defs><g><!--MD5=[ea10f8dc465baf5e542f54928f2443c8]
class BBox--><rect codeLine="1" fill="#FEFECE" filter="url(#f1fr5cqzkgnfsc)" height="216.416" id="BBox" style="stroke:#A80036;stroke-width:1.5;" width="570" x="893" y="13.5"/><ellipse cx="1159.75" cy="29.5" fill="#ADD1B2" rx="11" ry="11" style="stroke:#A80036;stroke-width:1.0;"/><path d="M1162.2231,35.6431 Q1161.6421,35.9419 1161.0029,36.0913 Q1160.3638,36.2407 1159.6582,36.2407 Q1157.1514,36.2407 1155.8315,34.5889 Q1154.5117,32.937 1154.5117,29.8159 Q1154.5117,26.6865 1155.8315,25.0347 Q1157.1514,23.3828 1159.6582,23.3828 Q1160.3638,23.3828 1161.0112,23.5322 Q1161.6587,23.6816 1162.2231,23.9805 L1162.2231,26.7031 Q1161.5923,26.1221 1160.9988,25.8523 Q1160.4053,25.5825 1159.7744,25.5825 Q1158.4297,25.5825 1157.7449,26.6492 Q1157.0601,27.7158 1157.0601,29.8159 Q1157.0601,31.9077 1157.7449,32.9744 Q1158.4297,34.041 1159.7744,34.041 Q1160.4053,34.041 1160.9988,33.7712 Q1161.5923,33.5015 1162.2231,32.9204 Z " fill="#000000"/><text fill="#000000" font-family="sans-serif" font-size="12" lengthAdjust="spacing" textLength="28" x="1180.25" y="34.0352">BBox</text><line style="stroke:#A80036;stroke-width:1.5;" x1="894" x2="1462" y1="45.5" y2="45.5"/><ellipse cx="904" cy="56.5" rx="3" ry="3" style="stroke:#038048;stroke-width:1.0;fill:none;"/><text fill="#000000" font-family="sans-serif" font-size="11" lengthAdjust="spacing" textLength="148" x="913" y="60.1348">obterMenorX : double «get»</text><ellipse cx="904" cy="69.4551" rx="3" ry="3" style="stroke:#038048;stroke-width:1.0;fill:none;"/><text fill="#000000" font-family="sans-serif" font-size="11" lengthAdjust="spacing" textLength="148" x="913" y="73.0898">obterMenorY : double «get»</text><ellipse cx="904" cy="82.4102" rx="3" ry="3" style="stroke:#038048;stroke-width:1.0;fill:none;"/><text fill="#000000" font-family="sans-serif" font-size="11" lengthAdjust="spacing" textLength="148" x="913" y="86.0449">obterMenorZ : double «get»</text><ellipse cx="904" cy="95.3652" rx="3" ry="3" style="stroke:#038048;stroke-width:1.0;fill:none;"/><text fill="#000000" font-family="sans-serif" font-size="11" lengthAdjust="spacing" textLength="144" x="913" y="99">obterMaiorX : double «get»</text><ellipse cx="904" cy="108.3203" rx="3" ry="3" style="stroke:#038048;stroke-width:1.0;fill:none;"/><text fill="#000000" font-family="sans-serif" font-size="11" lengthAdjust="spacing" textLength="144" x="913" y="111.9551">obterMaiorY : double «get»</text><ellipse cx="904" cy="121.2754" rx="3" ry="3" style="stroke:#038048;stroke-width:1.0;fill:none;"/><text fill="#000000" font-family="sans-serif" font-size="11" lengthAdjust="spacing" textLength="144" x="913" y="124.9102">obterMaiorZ : double «get»</text><line style="stroke:#A80036;stroke-width:1.5;" x1="894" x2="1462" y1="131.2305" y2="131.2305"/><ellipse cx="904" cy="142.2305" fill="#84BE84" rx="3" ry="3" style="stroke:#038048;stroke-width:1.0;"/><text fill="#000000" font-family="sans-serif" font-size="11" lengthAdjust="spacing" textLength="544" x="913" y="145.8652">BBox(menorX:double, menorY:double, menorZ:double, maiorX:double, maiorY:double, maiorZ:double)</text><ellipse cx="904" cy="155.1855" fill="#84BE84" rx="3" ry="3" style="stroke:#038048;stroke-width:1.0;"/><text fill="#000000" font-family="sans-serif" font-size="11" lengthAdjust="spacing" textLength="149" x="913" y="158.8203">Atribuir(pto:Ponto4D) : void</text><ellipse cx="904" cy="168.1406" fill="#84BE84" rx="3" ry="3" style="stroke:#038048;stroke-width:1.0;"/><text fill="#000000" font-family="sans-serif" font-size="11" lengthAdjust="spacing" textLength="155" x="913" y="171.7754">Atualizar(pto:Ponto4D) : void</text><ellipse cx="904" cy="181.0957" fill="#84BE84" rx="3" ry="3" style="stroke:#038048;stroke-width:1.0;"/><text fill="#000000" font-family="sans-serif" font-size="11" lengthAdjust="spacing" textLength="239" x="913" y="184.7305">Atualizar(x:double, y:double, z:double) : void</text><ellipse cx="904" cy="194.0508" fill="#84BE84" rx="3" ry="3" style="stroke:#038048;stroke-width:1.0;"/><text fill="#000000" font-family="sans-serif" font-size="11" lengthAdjust="spacing" textLength="130" x="913" y="197.6855">ProcessarCentro() : void</text><ellipse cx="904" cy="207.0059" fill="#84BE84" rx="3" ry="3" style="stroke:#038048;stroke-width:1.0;"/><text fill="#000000" font-family="sans-serif" font-size="11" lengthAdjust="spacing" textLength="91" x="913" y="210.6406">Desenhar() : void</text><ellipse cx="904" cy="219.9609" fill="#84BE84" rx="3" ry="3" style="stroke:#038048;stroke-width:1.0;"/><text fill="#000000" font-family="sans-serif" font-size="11" lengthAdjust="spacing" textLength="155" x="913" y="223.5957">«override» ToString() : string</text><!--MD5=[ef5ff341dffd6737742a54781c8b5648]
class Ponto4D--><rect codeLine="56" fill="#FEFECE" filter="url(#f1fr5cqzkgnfsc)" height="138.6855" id="Ponto4D" style="stroke:#A80036;stroke-width:1.5;" width="285" x="1035.5" y="347.5"/><ellipse cx="1149.25" cy="363.5" fill="#ADD1B2" rx="11" ry="11" style="stroke:#A80036;stroke-width:1.0;"/><path d="M1151.7231,369.6431 Q1151.1421,369.9419 1150.5029,370.0913 Q1149.8638,370.2407 1149.1582,370.2407 Q1146.6514,370.2407 1145.3315,368.5889 Q1144.0117,366.937 1144.0117,363.8159 Q1144.0117,360.6865 1145.3315,359.0347 Q1146.6514,357.3828 1149.1582,357.3828 Q1149.8638,357.3828 1150.5112,357.5322 Q1151.1587,357.6816 1151.7231,357.9805 L1151.7231,360.7031 Q1151.0923,360.1221 1150.4988,359.8523 Q1149.9053,359.5825 1149.2744,359.5825 Q1147.9297,359.5825 1147.2449,360.6492 Q1146.5601,361.7158 1146.5601,363.8159 Q1146.5601,365.9077 1147.2449,366.9744 Q1147.9297,368.041 1149.2744,368.041 Q1149.9053,368.041 1150.4988,367.7712 Q1151.0923,367.5015 1151.7231,366.9204 Z " fill="#000000"/><text fill="#000000" font-family="sans-serif" font-size="12" lengthAdjust="spacing" textLength="49" x="1169.75" y="368.0352">Ponto4D</text><line style="stroke:#A80036;stroke-width:1.5;" x1="1036.5" x2="1319.5" y1="379.5" y2="379.5"/><ellipse cx="1046.5" cy="390.5" rx="3" ry="3" style="stroke:#038048;stroke-width:1.0;fill:none;"/><text fill="#000000" font-family="sans-serif" font-size="11" lengthAdjust="spacing" textLength="116" x="1055.5" y="394.1348">X : double «get» «set»</text><ellipse cx="1046.5" cy="403.4551" rx="3" ry="3" style="stroke:#038048;stroke-width:1.0;fill:none;"/><text fill="#000000" font-family="sans-serif" font-size="11" lengthAdjust="spacing" textLength="116" x="1055.5" y="407.0898">Y : double «get» «set»</text><ellipse cx="1046.5" cy="416.4102" rx="3" ry="3" style="stroke:#038048;stroke-width:1.0;fill:none;"/><text fill="#000000" font-family="sans-serif" font-size="11" lengthAdjust="spacing" textLength="116" x="1055.5" y="420.0449">Z : double «get» «set»</text><ellipse cx="1046.5" cy="429.3652" rx="3" ry="3" style="stroke:#038048;stroke-width:1.0;fill:none;"/><text fill="#000000" font-family="sans-serif" font-size="11" lengthAdjust="spacing" textLength="87" x="1055.5" y="433">W : double «get»</text><line style="stroke:#A80036;stroke-width:1.5;" x1="1036.5" x2="1319.5" y1="439.3203" y2="439.3203"/><ellipse cx="1046.5" cy="450.3203" fill="#84BE84" rx="3" ry="3" style="stroke:#038048;stroke-width:1.0;"/><text fill="#000000" font-family="sans-serif" font-size="11" lengthAdjust="spacing" textLength="259" x="1055.5" y="453.9551">Ponto4D(x:double, y:double, z:double, w:double)</text><ellipse cx="1046.5" cy="463.2754" fill="#84BE84" rx="3" ry="3" style="stroke:#038048;stroke-width:1.0;"/><text fill="#000000" font-family="sans-serif" font-size="11" lengthAdjust="spacing" textLength="121" x="1055.5" y="466.9102">Ponto4D(pto:Ponto4D)</text><ellipse cx="1046.5" cy="476.2305" fill="#84BE84" rx="3" ry="3" style="stroke:#038048;stroke-width:1.0;"/><text fill="#000000" font-family="sans-serif" font-size="11" lengthAdjust="spacing" textLength="155" x="1055.5" y="479.8652">«override» ToString() : string</text><!--MD5=[a7a8f22eafb289696c295eb36d2b4bda]
class CameraOrtho--><rect codeLine="17" fill="#FEFECE" filter="url(#f1fr5cqzkgnfsc)" height="229.3711" id="CameraOrtho" style="stroke:#A80036;stroke-width:1.5;" width="538" x="7" y="7"/><ellipse cx="233.25" cy="23" fill="#ADD1B2" rx="11" ry="11" style="stroke:#A80036;stroke-width:1.0;"/><path d="M235.7231,29.1431 Q235.1421,29.4419 234.5029,29.5913 Q233.8638,29.7407 233.1582,29.7407 Q230.6514,29.7407 229.3315,28.0889 Q228.0117,26.437 228.0117,23.3159 Q228.0117,20.1865 229.3315,18.5347 Q230.6514,16.8828 233.1582,16.8828 Q233.8638,16.8828 234.5112,17.0322 Q235.1587,17.1816 235.7231,17.4805 L235.7231,20.2031 Q235.0923,19.6221 234.4988,19.3523 Q233.9053,19.0825 233.2744,19.0825 Q231.9297,19.0825 231.2449,20.1492 Q230.5601,21.2158 230.5601,23.3159 Q230.5601,25.4077 231.2449,26.4744 Q231.9297,27.541 233.2744,27.541 Q233.9053,27.541 234.4988,27.2712 Q235.0923,27.0015 235.7231,26.4204 Z " fill="#000000"/><text fill="#000000" font-family="sans-serif" font-size="12" lengthAdjust="spacing" textLength="77" x="253.75" y="27.5352">CameraOrtho</text><line style="stroke:#A80036;stroke-width:1.5;" x1="8" x2="544" y1="39" y2="39"/><ellipse cx="18" cy="50" rx="3" ry="3" style="stroke:#038048;stroke-width:1.0;fill:none;"/><text fill="#000000" font-family="sans-serif" font-size="11" lengthAdjust="spacing" textLength="136" x="27" y="53.6348">xmin : double «get» «set»</text><ellipse cx="18" cy="62.9551" rx="3" ry="3" style="stroke:#038048;stroke-width:1.0;fill:none;"/><text fill="#000000" font-family="sans-serif" font-size="11" lengthAdjust="spacing" textLength="139" x="27" y="66.5898">xmax : double «get» «set»</text><ellipse cx="18" cy="75.9102" rx="3" ry="3" style="stroke:#038048;stroke-width:1.0;fill:none;"/><text fill="#000000" font-family="sans-serif" font-size="11" lengthAdjust="spacing" textLength="135" x="27" y="79.5449">ymin : double «get» «set»</text><ellipse cx="18" cy="88.8652" rx="3" ry="3" style="stroke:#038048;stroke-width:1.0;fill:none;"/><text fill="#000000" font-family="sans-serif" font-size="11" lengthAdjust="spacing" textLength="138" x="27" y="92.5">ymax : double «get» «set»</text><ellipse cx="18" cy="101.8203" rx="3" ry="3" style="stroke:#038048;stroke-width:1.0;fill:none;"/><text fill="#000000" font-family="sans-serif" font-size="11" lengthAdjust="spacing" textLength="135" x="27" y="105.4551">zmin : double «get» «set»</text><ellipse cx="18" cy="114.7754" rx="3" ry="3" style="stroke:#038048;stroke-width:1.0;fill:none;"/><text fill="#000000" font-family="sans-serif" font-size="11" lengthAdjust="spacing" textLength="138" x="27" y="118.4102">zmax : double «get» «set»</text><line style="stroke:#A80036;stroke-width:1.5;" x1="8" x2="544" y1="124.7305" y2="124.7305"/><ellipse cx="18" cy="135.7305" fill="#84BE84" rx="3" ry="3" style="stroke:#038048;stroke-width:1.0;"/><text fill="#000000" font-family="sans-serif" font-size="11" lengthAdjust="spacing" textLength="512" x="27" y="139.3652">CameraOrtho(xMin:double, xMax:double, yMin:double, yMax:double, zMin:double, zMax:double)</text><ellipse cx="18" cy="148.6855" fill="#84BE84" rx="3" ry="3" style="stroke:#038048;stroke-width:1.0;"/><text fill="#000000" font-family="sans-serif" font-size="11" lengthAdjust="spacing" textLength="109" x="27" y="152.3203">PanEsquerda() : void</text><ellipse cx="18" cy="161.6406" fill="#84BE84" rx="3" ry="3" style="stroke:#038048;stroke-width:1.0;"/><text fill="#000000" font-family="sans-serif" font-size="11" lengthAdjust="spacing" textLength="94" x="27" y="165.2754">PanDireita() : void</text><ellipse cx="18" cy="174.5957" fill="#84BE84" rx="3" ry="3" style="stroke:#038048;stroke-width:1.0;"/><text fill="#000000" font-family="sans-serif" font-size="11" lengthAdjust="spacing" textLength="86" x="27" y="178.2305">PanCima() : void</text><ellipse cx="18" cy="187.5508" fill="#84BE84" rx="3" ry="3" style="stroke:#038048;stroke-width:1.0;"/><text fill="#000000" font-family="sans-serif" font-size="11" lengthAdjust="spacing" textLength="88" x="27" y="191.1855">PanBaixo() : void</text><ellipse cx="18" cy="200.5059" fill="#84BE84" rx="3" ry="3" style="stroke:#038048;stroke-width:1.0;"/><text fill="#000000" font-family="sans-serif" font-size="11" lengthAdjust="spacing" textLength="81" x="27" y="204.1406">ZoomIn() : void</text><ellipse cx="18" cy="213.4609" fill="#84BE84" rx="3" ry="3" style="stroke:#038048;stroke-width:1.0;"/><text fill="#000000" font-family="sans-serif" font-size="11" lengthAdjust="spacing" textLength="91" x="27" y="217.0957">ZoomOut() : void</text><ellipse cx="18" cy="226.416" fill="#84BE84" rx="3" ry="3" style="stroke:#038048;stroke-width:1.0;"/><text fill="#000000" font-family="sans-serif" font-size="11" lengthAdjust="spacing" textLength="155" x="27" y="230.0508">«override» ToString() : string</text><!--MD5=[c3851e40b8ed2f68ee08d490e0f0cd81]
class CameraPerspective--><rect codeLine="33" fill="#FEFECE" filter="url(#f1fr5cqzkgnfsc)" height="125.7305" id="CameraPerspective" style="stroke:#A80036;stroke-width:1.5;" width="359" x="1498.5" y="58.5"/><ellipse cx="1618.25" cy="74.5" fill="#ADD1B2" rx="11" ry="11" style="stroke:#A80036;stroke-width:1.0;"/><path d="M1620.7231,80.6431 Q1620.1421,80.9419 1619.5029,81.0913 Q1618.8638,81.2407 1618.1582,81.2407 Q1615.6514,81.2407 1614.3315,79.5889 Q1613.0117,77.937 1613.0117,74.8159 Q1613.0117,71.6865 1614.3315,70.0347 Q1615.6514,68.3828 1618.1582,68.3828 Q1618.8638,68.3828 1619.5112,68.5322 Q1620.1587,68.6816 1620.7231,68.9805 L1620.7231,71.7031 Q1620.0923,71.1221 1619.4988,70.8523 Q1618.9053,70.5825 1618.2744,70.5825 Q1616.9297,70.5825 1616.2449,71.6492 Q1615.5601,72.7158 1615.5601,74.8159 Q1615.5601,76.9077 1616.2449,77.9744 Q1616.9297,79.041 1618.2744,79.041 Q1618.9053,79.041 1619.4988,78.7712 Q1620.0923,78.5015 1620.7231,77.9204 Z " fill="#000000"/><text fill="#000000" font-family="sans-serif" font-size="12" lengthAdjust="spacing" textLength="111" x="1638.75" y="79.0352">CameraPerspective</text><line style="stroke:#A80036;stroke-width:1.5;" x1="1499.5" x2="1856.5" y1="90.5" y2="90.5"/><ellipse cx="1509.5" cy="101.5" rx="3" ry="3" style="stroke:#038048;stroke-width:1.0;fill:none;"/><text fill="#000000" font-family="sans-serif" font-size="11" lengthAdjust="spacing" textLength="121" x="1518.5" y="105.1348">Fovy : float «get» «set»</text><ellipse cx="1509.5" cy="114.4551" rx="3" ry="3" style="stroke:#038048;stroke-width:1.0;fill:none;"/><text fill="#000000" font-family="sans-serif" font-size="11" lengthAdjust="spacing" textLength="133" x="1518.5" y="118.0898">Aspect : float «get» «set»</text><ellipse cx="1509.5" cy="127.4102" rx="3" ry="3" style="stroke:#038048;stroke-width:1.0;fill:none;"/><text fill="#000000" font-family="sans-serif" font-size="11" lengthAdjust="spacing" textLength="121" x="1518.5" y="131.0449">Near : float «get» «set»</text><ellipse cx="1509.5" cy="140.3652" rx="3" ry="3" style="stroke:#038048;stroke-width:1.0;fill:none;"/><text fill="#000000" font-family="sans-serif" font-size="11" lengthAdjust="spacing" textLength="113" x="1518.5" y="144">Far : float «get» «set»</text><line style="stroke:#A80036;stroke-width:1.5;" x1="1499.5" x2="1856.5" y1="150.3203" y2="150.3203"/><ellipse cx="1509.5" cy="161.3203" fill="#84BE84" rx="3" ry="3" style="stroke:#038048;stroke-width:1.0;"/><text fill="#000000" font-family="sans-serif" font-size="11" lengthAdjust="spacing" textLength="333" x="1518.5" y="164.9551">CameraPerspective(fovy:float, aspect:float, near:float, far:float)</text><ellipse cx="1509.5" cy="174.2754" fill="#84BE84" rx="3" ry="3" style="stroke:#038048;stroke-width:1.0;"/><text fill="#000000" font-family="sans-serif" font-size="11" lengthAdjust="spacing" textLength="155" x="1518.5" y="177.9102">«override» ToString() : string</text><!--MD5=[65d619c042c23702cef2ca07d67b1cf6]
class Vector3--><rect fill="#FEFECE" filter="url(#f1fr5cqzkgnfsc)" height="48" id="Vector3" style="stroke:#A80036;stroke-width:1.5;" width="77" x="1639.5" y="393"/><ellipse cx="1654.5" cy="409" fill="#ADD1B2" rx="11" ry="11" style="stroke:#A80036;stroke-width:1.0;"/><path d="M1656.9731,415.1431 Q1656.3921,415.4419 1655.7529,415.5913 Q1655.1138,415.7407 1654.4082,415.7407 Q1651.9014,415.7407 1650.5815,414.0889 Q1649.2617,412.437 1649.2617,409.3159 Q1649.2617,406.1865 1650.5815,404.5347 Q1651.9014,402.8828 1654.4082,402.8828 Q1655.1138,402.8828 1655.7612,403.0322 Q1656.4087,403.1816 1656.9731,403.4805 L1656.9731,406.2031 Q1656.3423,405.6221 1655.7488,405.3523 Q1655.1553,405.0825 1654.5244,405.0825 Q1653.1797,405.0825 1652.4949,406.1492 Q1651.8101,407.2158 1651.8101,409.3159 Q1651.8101,411.4077 1652.4949,412.4744 Q1653.1797,413.541 1654.5244,413.541 Q1655.1553,413.541 1655.7488,413.2712 Q1656.3423,413.0015 1656.9731,412.4204 Z " fill="#000000"/><text fill="#000000" font-family="sans-serif" font-size="12" lengthAdjust="spacing" textLength="45" x="1668.5" y="413.5352">Vector3</text><line style="stroke:#A80036;stroke-width:1.5;" x1="1640.5" x2="1715.5" y1="425" y2="425"/><line style="stroke:#A80036;stroke-width:1.5;" x1="1640.5" x2="1715.5" y1="433" y2="433"/><!--MD5=[9ac43fafcd0ede942dc8e681a30a1b52]
class Cor--><rect codeLine="44" fill="#FEFECE" filter="url(#f1fr5cqzkgnfsc)" height="125.7305" id="Cor" style="stroke:#A80036;stroke-width:1.5;" width="277" x="580.5" y="58.5"/><ellipse cx="704.75" cy="74.5" fill="#ADD1B2" rx="11" ry="11" style="stroke:#A80036;stroke-width:1.0;"/><path d="M707.2231,80.6431 Q706.6421,80.9419 706.0029,81.0913 Q705.3638,81.2407 704.6582,81.2407 Q702.1514,81.2407 700.8315,79.5889 Q699.5117,77.937 699.5117,74.8159 Q699.5117,71.6865 700.8315,70.0347 Q702.1514,68.3828 704.6582,68.3828 Q705.3638,68.3828 706.0112,68.5322 Q706.6587,68.6816 707.2231,68.9805 L707.2231,71.7031 Q706.5923,71.1221 705.9988,70.8523 Q705.4053,70.5825 704.7744,70.5825 Q703.4297,70.5825 702.7449,71.6492 Q702.0601,72.7158 702.0601,74.8159 Q702.0601,76.9077 702.7449,77.9744 Q703.4297,79.041 704.7744,79.041 Q705.4053,79.041 705.9988,78.7712 Q706.5923,78.5015 707.2231,77.9204 Z " fill="#000000"/><text fill="#000000" font-family="sans-serif" font-size="12" lengthAdjust="spacing" textLength="20" x="725.25" y="79.0352">Cor</text><line style="stroke:#A80036;stroke-width:1.5;" x1="581.5" x2="856.5" y1="90.5" y2="90.5"/><ellipse cx="591.5" cy="101.5" rx="3" ry="3" style="stroke:#038048;stroke-width:1.0;fill:none;"/><text fill="#000000" font-family="sans-serif" font-size="11" lengthAdjust="spacing" textLength="122" x="600.5" y="105.1348">CorR : byte «get» «set»</text><ellipse cx="591.5" cy="114.4551" rx="3" ry="3" style="stroke:#038048;stroke-width:1.0;fill:none;"/><text fill="#000000" font-family="sans-serif" font-size="11" lengthAdjust="spacing" textLength="123" x="600.5" y="118.0898">CorG : byte «get» «set»</text><ellipse cx="591.5" cy="127.4102" rx="3" ry="3" style="stroke:#038048;stroke-width:1.0;fill:none;"/><text fill="#000000" font-family="sans-serif" font-size="11" lengthAdjust="spacing" textLength="121" x="600.5" y="131.0449">CorB : byte «get» «set»</text><ellipse cx="591.5" cy="140.3652" rx="3" ry="3" style="stroke:#038048;stroke-width:1.0;fill:none;"/><text fill="#000000" font-family="sans-serif" font-size="11" lengthAdjust="spacing" textLength="123" x="600.5" y="144">CorA : byte «get» «set»</text><line style="stroke:#A80036;stroke-width:1.5;" x1="581.5" x2="856.5" y1="150.3203" y2="150.3203"/><ellipse cx="591.5" cy="161.3203" fill="#84BE84" rx="3" ry="3" style="stroke:#038048;stroke-width:1.0;"/><text fill="#000000" font-family="sans-serif" font-size="11" lengthAdjust="spacing" textLength="251" x="600.5" y="164.9551">Cor(corR:byte, corG:byte, corB:byte, corA:byte)</text><ellipse cx="591.5" cy="174.2754" fill="#84BE84" rx="3" ry="3" style="stroke:#038048;stroke-width:1.0;"/><text fill="#000000" font-family="sans-serif" font-size="11" lengthAdjust="spacing" textLength="155" x="600.5" y="177.9102">«override» ToString() : string</text><!--MD5=[57370106b09f55ffa37deb7835ffe78b]
class Matematica--><rect codeLine="52" fill="#FEFECE" filter="url(#f1fr5cqzkgnfsc)" height="73.9102" id="Matematica" style="stroke:#A80036;stroke-width:1.5;" width="325" x="113.5" y="380"/><ellipse cx="238.75" cy="396" fill="#A9DCDF" rx="11" ry="11" style="stroke:#A80036;stroke-width:1.0;"/><path d="M238.6133,391.3481 L237.4595,396.4199 L239.7754,396.4199 Z M237.1191,389.1069 L240.1157,389.1069 L243.4609,401.5 L241.0122,401.5 L240.2485,398.437 L236.9697,398.437 L236.2227,401.5 L233.7739,401.5 Z " fill="#000000"/><text fill="#000000" font-family="sans-serif" font-size="12" font-style="italic" lengthAdjust="spacing" textLength="66" x="259.25" y="400.5352">Matematica</text><line style="stroke:#A80036;stroke-width:1.5;" x1="114.5" x2="437.5" y1="412" y2="412"/><line style="stroke:#A80036;stroke-width:1.5;" x1="114.5" x2="437.5" y1="420" y2="420"/><ellipse cx="124.5" cy="431" fill="#84BE84" rx="3" ry="3" style="stroke:#038048;stroke-width:1.0;"/><text fill="#000000" font-family="sans-serif" font-size="11" lengthAdjust="spacing" text-decoration="underline" textLength="299" x="133.5" y="434.6348">GerarPtosCirculo(angulo:double, raio:double) : Ponto4D</text><ellipse cx="124.5" cy="443.9551" fill="#84BE84" rx="3" ry="3" style="stroke:#038048;stroke-width:1.0;"/><text fill="#000000" font-family="sans-serif" font-size="11" lengthAdjust="spacing" text-decoration="underline" textLength="257" x="133.5" y="447.5898">GerarPtosCirculoSimétrico(raio:double) : double</text><!--MD5=[6746db26fbf3328699b5b65a634cc0f3]
class Transformacao4D--><rect codeLine="65" fill="#FEFECE" filter="url(#f1fr5cqzkgnfsc)" height="242.3262" id="Transformacao4D" style="stroke:#A80036;stroke-width:1.5;" width="463" x="473.5" y="296"/><ellipse cx="648.75" cy="312" fill="#ADD1B2" rx="11" ry="11" style="stroke:#A80036;stroke-width:1.0;"/><path d="M651.2231,318.1431 Q650.6421,318.4419 650.0029,318.5913 Q649.3638,318.7407 648.6582,318.7407 Q646.1514,318.7407 644.8315,317.0889 Q643.5117,315.437 643.5117,312.3159 Q643.5117,309.1865 644.8315,307.5347 Q646.1514,305.8828 648.6582,305.8828 Q649.3638,305.8828 650.0112,306.0322 Q650.6587,306.1816 651.2231,306.4805 L651.2231,309.2031 Q650.5923,308.6221 649.9988,308.3523 Q649.4053,308.0825 648.7744,308.0825 Q647.4297,308.0825 646.7449,309.1492 Q646.0601,310.2158 646.0601,312.3159 Q646.0601,314.4077 646.7449,315.4744 Q647.4297,316.541 648.7744,316.541 Q649.4053,316.541 649.9988,316.2712 Q650.5923,316.0015 651.2231,315.4204 Z " fill="#000000"/><text fill="#000000" font-family="sans-serif" font-size="12" lengthAdjust="spacing" textLength="104" x="669.25" y="316.5352">Transformacao4D</text><line style="stroke:#A80036;stroke-width:1.5;" x1="474.5" x2="935.5" y1="328" y2="328"/><ellipse cx="484.5" cy="339" rx="3" ry="3" style="stroke:#038048;stroke-width:1.0;fill:none;"/><text fill="#000000" font-family="sans-serif" font-size="11" lengthAdjust="spacing" text-decoration="underline" textLength="437" x="493.5" y="342.6348">«readonly» DEG_TO_RAD : double = 0.017453292519943295769236907684886</text><line style="stroke:#A80036;stroke-width:1.5;" x1="474.5" x2="935.5" y1="348.9551" y2="348.9551"/><ellipse cx="484.5" cy="359.9551" fill="#84BE84" rx="3" ry="3" style="stroke:#038048;stroke-width:1.0;"/><text fill="#000000" font-family="sans-serif" font-size="11" lengthAdjust="spacing" textLength="105" x="493.5" y="363.5898">Transformacao4D()</text><ellipse cx="484.5" cy="372.9102" fill="#84BE84" rx="3" ry="3" style="stroke:#038048;stroke-width:1.0;"/><text fill="#000000" font-family="sans-serif" font-size="11" lengthAdjust="spacing" textLength="138" x="493.5" y="376.5449">AtribuirIdentidade() : void</text><ellipse cx="484.5" cy="385.8652" fill="#84BE84" rx="3" ry="3" style="stroke:#038048;stroke-width:1.0;"/><text fill="#000000" font-family="sans-serif" font-size="11" lengthAdjust="spacing" textLength="304" x="493.5" y="389.5">AtribuirTranslacao(tx:double, ty:double, tz:double) : void</text><ellipse cx="484.5" cy="398.8203" fill="#84BE84" rx="3" ry="3" style="stroke:#038048;stroke-width:1.0;"/><text fill="#000000" font-family="sans-serif" font-size="11" lengthAdjust="spacing" textLength="286" x="493.5" y="402.4551">AtribuirEscala(sX:double, sY:double, sZ:double) : void</text><ellipse cx="484.5" cy="411.7754" fill="#84BE84" rx="3" ry="3" style="stroke:#038048;stroke-width:1.0;"/><text fill="#000000" font-family="sans-serif" font-size="11" lengthAdjust="spacing" textLength="212" x="493.5" y="415.4102">AtribuirRotacaoX(radians:double) : void</text><ellipse cx="484.5" cy="424.7305" fill="#84BE84" rx="3" ry="3" style="stroke:#038048;stroke-width:1.0;"/><text fill="#000000" font-family="sans-serif" font-size="11" lengthAdjust="spacing" textLength="212" x="493.5" y="428.3652">AtribuirRotacaoY(radians:double) : void</text><ellipse cx="484.5" cy="437.6855" fill="#84BE84" rx="3" ry="3" style="stroke:#038048;stroke-width:1.0;"/><text fill="#000000" font-family="sans-serif" font-size="11" lengthAdjust="spacing" textLength="212" x="493.5" y="441.3203">AtribuirRotacaoZ(radians:double) : void</text><ellipse cx="484.5" cy="450.6406" fill="#84BE84" rx="3" ry="3" style="stroke:#038048;stroke-width:1.0;"/><text fill="#000000" font-family="sans-serif" font-size="11" lengthAdjust="spacing" textLength="217" x="493.5" y="454.2754">MultiplicarPonto(pto:Ponto4D) : Ponto4D</text><ellipse cx="484.5" cy="463.5957" fill="#84BE84" rx="3" ry="3" style="stroke:#038048;stroke-width:1.0;"/><text fill="#000000" font-family="sans-serif" font-size="11" lengthAdjust="spacing" textLength="307" x="493.5" y="467.2305">MultiplicarMatriz(t:Transformacao4D) : Transformacao4D</text><ellipse cx="484.5" cy="476.5508" fill="#84BE84" rx="3" ry="3" style="stroke:#038048;stroke-width:1.0;"/><text fill="#000000" font-family="sans-serif" font-size="11" lengthAdjust="spacing" textLength="181" x="493.5" y="480.1855">ObterElemento(index:int) : double</text><ellipse cx="484.5" cy="489.5059" fill="#84BE84" rx="3" ry="3" style="stroke:#038048;stroke-width:1.0;"/><text fill="#000000" font-family="sans-serif" font-size="11" lengthAdjust="spacing" textLength="252" x="493.5" y="493.1406">AtribuirElemento(index:int, value:double) : void</text><ellipse cx="484.5" cy="502.4609" fill="#84BE84" rx="3" ry="3" style="stroke:#038048;stroke-width:1.0;"/><text fill="#000000" font-family="sans-serif" font-size="11" lengthAdjust="spacing" textLength="127" x="493.5" y="506.0957">ObterDados() : double[]</text><ellipse cx="484.5" cy="515.416" fill="#84BE84" rx="3" ry="3" style="stroke:#038048;stroke-width:1.0;"/><text fill="#000000" font-family="sans-serif" font-size="11" lengthAdjust="spacing" textLength="187" x="493.5" y="519.0508">AtribuirDados(data:double[]) : void</text><ellipse cx="484.5" cy="528.3711" fill="#84BE84" rx="3" ry="3" style="stroke:#038048;stroke-width:1.0;"/><text fill="#000000" font-family="sans-serif" font-size="11" lengthAdjust="spacing" textLength="155" x="493.5" y="532.0059">«override» ToString() : string</text><!--MD5=[21d10fafb72c8ad2b9cea5ee0b564837]
link BBox to Ponto4D--><path codeLine="16" d="M1178,229.8554 C1178,267.0674 1178,307.8762 1178,341.8627 " fill="none" id="BBox-to-Ponto4D" style="stroke:#A80036;stroke-width:1.0;"/><polygon fill="#A80036" points="1178,347.2572,1182,338.2572,1178,342.2572,1174,338.2572,1178,347.2572" style="stroke:#A80036;stroke-width:1.0;"/><text fill="#000000" font-family="sans-serif" font-size="13" lengthAdjust="spacing" textLength="75" x="1099.1328" y="336.8921">obterCentro</text><!--MD5=[f94cdd04709e36a9b2c27ce98e350cf2]
link CameraPerspective to Vector3--><path codeLine="41" d="M1656.0407,184.5297 C1648.8509,247.3303 1650.6969,340.9735 1661.5785,387.9367 " fill="none" id="CameraPerspective-to-Vector3" style="stroke:#A80036;stroke-width:1.0;"/><polygon fill="#A80036" points="1662.804,392.8807,1664.5211,383.1827,1661.601,388.0276,1656.7561,385.1075,1662.804,392.8807" style="stroke:#A80036;stroke-width:1.0;"/><text fill="#000000" font-family="sans-serif" font-size="13" lengthAdjust="spacing" textLength="21" x="1635.2194" y="382.3864">Eye</text><!--MD5=[f94cdd04709e36a9b2c27ce98e350cf2]
link CameraPerspective to Vector3--><path codeLine="42" d="M1678,184.5297 C1678,247.2031 1678,340.5945 1678,387.6509 " fill="none" id="CameraPerspective-to-Vector3-1" style="stroke:#A80036;stroke-width:1.0;"/><polygon fill="#A80036" points="1678,392.8807,1682,383.8807,1678,387.8807,1674,383.8807,1678,392.8807" style="stroke:#A80036;stroke-width:1.0;"/><text fill="#000000" font-family="sans-serif" font-size="13" lengthAdjust="spacing" textLength="14" x="1662.2063" y="382.3864">At</text><!--MD5=[f94cdd04709e36a9b2c27ce98e350cf2]
link CameraPerspective to Vector3--><path codeLine="43" d="M1699.9593,184.5297 C1707.1491,247.3303 1705.3031,340.9735 1694.4215,387.9367 " fill="none" id="CameraPerspective-to-Vector3-2" style="stroke:#A80036;stroke-width:1.0;"/><polygon fill="#A80036" points="1693.196,392.8807,1699.2439,385.1075,1694.399,388.0276,1691.4789,383.1827,1693.196,392.8807" style="stroke:#A80036;stroke-width:1.0;"/><text fill="#000000" font-family="sans-serif" font-size="13" lengthAdjust="spacing" textLength="17" x="1699.2681" y="382.3864">Up</text><!--MD5=[e7de986f6000fe3d6a10445085ca244f]
link CameraOrtho to Cor--><!--MD5=[4f5707986820c6ec0abd120815a0bbac]
link CameraOrtho to Matematica--><!--MD5=[ac1c1ba96eba5558ebd60a36f28c26df]
link Matematica to Transformacao4D--><!--MD5=[44f9be80144be45a6280d81e9d76cabe]
@startuml CG_Biblioteca
class BBox {
    + BBox(menorX:double, menorY:double, menorZ:double, maiorX:double, maiorY:double, maiorZ:double)
    + Atribuir(pto:Ponto4D) : void
    + Atualizar(pto:Ponto4D) : void
    + Atualizar(x:double, y:double, z:double) : void
    + ProcessarCentro() : void
    + Desenhar() : void
    + obterMenorX : double <<get>>
    + obterMenorY : double <<get>>
    + obterMenorZ : double <<get>>
    + obterMaiorX : double <<get>>
    + obterMaiorY : double <<get>>
    + obterMaiorZ : double <<get>>
    + <<override>> ToString() : string
}
BBox - -> "obterCentro" Ponto4D
class CameraOrtho {
    + CameraOrtho(xMin:double, xMax:double, yMin:double, yMax:double, zMin:double, zMax:double)
    + xmin : double <<get>> <<set>>
    + xmax : double <<get>> <<set>>
    + ymin : double <<get>> <<set>>
    + ymax : double <<get>> <<set>>
    + zmin : double <<get>> <<set>>
    + zmax : double <<get>> <<set>>
    + PanEsquerda() : void
    + PanDireita() : void
    + PanCima() : void
    + PanBaixo() : void
    + ZoomIn() : void
    + ZoomOut() : void
    + <<override>> ToString() : string
}
class CameraPerspective {
    + CameraPerspective(fovy:float, aspect:float, near:float, far:float)
    + Fovy : float <<get>> <<set>>
    + Aspect : float <<get>> <<set>>
    + Near : float <<get>> <<set>>
    + Far : float <<get>> <<set>>
    + <<override>> ToString() : string
}
CameraPerspective - -> "Eye" Vector3
CameraPerspective - -> "At" Vector3
CameraPerspective - -> "Up" Vector3
class Cor {
    + Cor(corR:byte, corG:byte, corB:byte, corA:byte)
    + <<override>> ToString() : string
    + CorR : byte <<get>> <<set>>
    + CorG : byte <<get>> <<set>>
    + CorB : byte <<get>> <<set>>
    + CorA : byte <<get>> <<set>>
}
abstract class Matematica {
    + {static} GerarPtosCirculo(angulo:double, raio:double) : Ponto4D
    + {static} GerarPtosCirculoSimétrico(raio:double) : double
}
class Ponto4D {
    + Ponto4D(x:double, y:double, z:double, w:double)
    + Ponto4D(pto:Ponto4D)
    + X : double <<get>> <<set>>
    + Y : double <<get>> <<set>>
    + Z : double <<get>> <<set>>
    + W : double <<get>>
    + <<override>> ToString() : string
}
class Transformacao4D {
    {static} + <<readonly>> DEG_TO_RAD : double = 0.017453292519943295769236907684886
    + Transformacao4D()
    + AtribuirIdentidade() : void
    + AtribuirTranslacao(tx:double, ty:double, tz:double) : void
    + AtribuirEscala(sX:double, sY:double, sZ:double) : void
    + AtribuirRotacaoX(radians:double) : void
    + AtribuirRotacaoY(radians:double) : void
    + AtribuirRotacaoZ(radians:double) : void
    + MultiplicarPonto(pto:Ponto4D) : Ponto4D
    + MultiplicarMatriz(t:Transformacao4D) : Transformacao4D
    + ObterElemento(index:int) : double
    + AtribuirElemento(index:int, value:double) : void
    + ObterDados() : double[]
    + AtribuirDados(data:double[]) : void
    + <<override>> ToString() : string
}
@enduml

PlantUML version 1.2022.0(Tue Jan 11 13:16:42 BRT 2022)
(GPL source distribution)
Java Runtime: OpenJDK Runtime Environment
JVM: OpenJDK 64-Bit Server VM
Default Encoding: UTF-8
Language: en
Country: BR
--></g></svg>