<?xml version="1.0" encoding="UTF-8" standalone="no"?><svg xmlns="http://www.w3.org/2000/svg" xmlns:xlink="http://www.w3.org/1999/xlink" contentScriptType="application/ecmascript" contentStyleType="text/css" height="590px" preserveAspectRatio="none" style="width:1871px;height:590px;background:#FFFFFF;" version="1.1" viewBox="0 0 1871 590" width="1871px" zoomAndPan="magnify"><defs><filter height="300%" id="f4b12w2lbmel1" width="300%" x="-1" y="-1"><feGaussianBlur result="blurOut" stdDeviation="2.0"/><feColorMatrix in="blurOut" result="blurOut2" type="matrix" values="0 0 0 0 0 0 0 0 0 0 0 0 0 0 0 0 0 0 .4 0"/><feOffset dx="4.0" dy="4.0" in="blurOut2" result="blurOut3"/><feBlend in="SourceGraphic" in2="blurOut3" mode="normal"/></filter></defs><g><text fill="#000000" font-family="sans-serif" font-size="18" lengthAdjust="spacing" textLength="319" x="769.75" y="17.4023">Diagrama de Classes - CG_Biblioteca</text><!--MD5=[ea10f8dc465baf5e542f54928f2443c8]
class BBox--><rect codeLine="1" fill="#FEFECE" filter="url(#f4b12w2lbmel1)" height="216.416" id="BBox" style="stroke:#A80036;stroke-width:1.5;" width="570" x="893" y="34.6992"/><ellipse cx="1159.75" cy="50.6992" fill="#ADD1B2" rx="11" ry="11" style="stroke:#A80036;stroke-width:1.0;"/><path d="M1162.2231,56.8423 Q1161.6421,57.1411 1161.0029,57.2905 Q1160.3638,57.4399 1159.6582,57.4399 Q1157.1514,57.4399 1155.8315,55.7881 Q1154.5117,54.1362 1154.5117,51.0151 Q1154.5117,47.8857 1155.8315,46.2339 Q1157.1514,44.582 1159.6582,44.582 Q1160.3638,44.582 1161.0112,44.7314 Q1161.6587,44.8809 1162.2231,45.1797 L1162.2231,47.9023 Q1161.5923,47.3213 1160.9988,47.0515 Q1160.4053,46.7817 1159.7744,46.7817 Q1158.4297,46.7817 1157.7449,47.8484 Q1157.0601,48.915 1157.0601,51.0151 Q1157.0601,53.1069 1157.7449,54.1736 Q1158.4297,55.2402 1159.7744,55.2402 Q1160.4053,55.2402 1160.9988,54.9705 Q1161.5923,54.7007 1162.2231,54.1196 Z " fill="#000000"/><text fill="#000000" font-family="sans-serif" font-size="12" lengthAdjust="spacing" textLength="28" x="1180.25" y="55.2344">BBox</text><line style="stroke:#A80036;stroke-width:1.5;" x1="894" x2="1462" y1="66.6992" y2="66.6992"/><ellipse cx="904" cy="77.6992" rx="3" ry="3" style="stroke:#038048;stroke-width:1.0;fill:none;"/><text fill="#000000" font-family="sans-serif" font-size="11" lengthAdjust="spacing" textLength="148" x="913" y="81.334">obterMenorX : double «get»</text><ellipse cx="904" cy="90.6543" rx="3" ry="3" style="stroke:#038048;stroke-width:1.0;fill:none;"/><text fill="#000000" font-family="sans-serif" font-size="11" lengthAdjust="spacing" textLength="148" x="913" y="94.2891">obterMenorY : double «get»</text><ellipse cx="904" cy="103.6094" rx="3" ry="3" style="stroke:#038048;stroke-width:1.0;fill:none;"/><text fill="#000000" font-family="sans-serif" font-size="11" lengthAdjust="spacing" textLength="148" x="913" y="107.2441">obterMenorZ : double «get»</text><ellipse cx="904" cy="116.5645" rx="3" ry="3" style="stroke:#038048;stroke-width:1.0;fill:none;"/><text fill="#000000" font-family="sans-serif" font-size="11" lengthAdjust="spacing" textLength="144" x="913" y="120.1992">obterMaiorX : double «get»</text><ellipse cx="904" cy="129.5195" rx="3" ry="3" style="stroke:#038048;stroke-width:1.0;fill:none;"/><text fill="#000000" font-family="sans-serif" font-size="11" lengthAdjust="spacing" textLength="144" x="913" y="133.1543">obterMaiorY : double «get»</text><ellipse cx="904" cy="142.4746" rx="3" ry="3" style="stroke:#038048;stroke-width:1.0;fill:none;"/><text fill="#000000" font-family="sans-serif" font-size="11" lengthAdjust="spacing" textLength="144" x="913" y="146.1094">obterMaiorZ : double «get»</text><line style="stroke:#A80036;stroke-width:1.5;" x1="894" x2="1462" y1="152.4297" y2="152.4297"/><ellipse cx="904" cy="163.4297" fill="#84BE84" rx="3" ry="3" style="stroke:#038048;stroke-width:1.0;"/><text fill="#000000" font-family="sans-serif" font-size="11" lengthAdjust="spacing" textLength="544" x="913" y="167.0645">BBox(menorX:double, menorY:double, menorZ:double, maiorX:double, maiorY:double, maiorZ:double)</text><ellipse cx="904" cy="176.3848" fill="#84BE84" rx="3" ry="3" style="stroke:#038048;stroke-width:1.0;"/><text fill="#000000" font-family="sans-serif" font-size="11" lengthAdjust="spacing" textLength="149" x="913" y="180.0195">Atribuir(pto:Ponto4D) : void</text><ellipse cx="904" cy="189.3398" fill="#84BE84" rx="3" ry="3" style="stroke:#038048;stroke-width:1.0;"/><text fill="#000000" font-family="sans-serif" font-size="11" lengthAdjust="spacing" textLength="155" x="913" y="192.9746">Atualizar(pto:Ponto4D) : void</text><ellipse cx="904" cy="202.2949" fill="#84BE84" rx="3" ry="3" style="stroke:#038048;stroke-width:1.0;"/><text fill="#000000" font-family="sans-serif" font-size="11" lengthAdjust="spacing" textLength="239" x="913" y="205.9297">Atualizar(x:double, y:double, z:double) : void</text><ellipse cx="904" cy="215.25" fill="#84BE84" rx="3" ry="3" style="stroke:#038048;stroke-width:1.0;"/><text fill="#000000" font-family="sans-serif" font-size="11" lengthAdjust="spacing" textLength="130" x="913" y="218.8848">ProcessarCentro() : void</text><ellipse cx="904" cy="228.2051" fill="#84BE84" rx="3" ry="3" style="stroke:#038048;stroke-width:1.0;"/><text fill="#000000" font-family="sans-serif" font-size="11" lengthAdjust="spacing" textLength="91" x="913" y="231.8398">Desenhar() : void</text><ellipse cx="904" cy="241.1602" fill="#84BE84" rx="3" ry="3" style="stroke:#038048;stroke-width:1.0;"/><text fill="#000000" font-family="sans-serif" font-size="11" lengthAdjust="spacing" textLength="155" x="913" y="244.7949">«override» ToString() : string</text><!--MD5=[ef5ff341dffd6737742a54781c8b5648]
class Ponto4D--><rect codeLine="56" fill="#FEFECE" filter="url(#f4b12w2lbmel1)" height="138.6855" id="Ponto4D" style="stroke:#A80036;stroke-width:1.5;" width="285" x="1035.5" y="368.6992"/><ellipse cx="1149.25" cy="384.6992" fill="#ADD1B2" rx="11" ry="11" style="stroke:#A80036;stroke-width:1.0;"/><path d="M1151.7231,390.8423 Q1151.1421,391.1411 1150.5029,391.2905 Q1149.8638,391.4399 1149.1582,391.4399 Q1146.6514,391.4399 1145.3315,389.7881 Q1144.0117,388.1362 1144.0117,385.0151 Q1144.0117,381.8857 1145.3315,380.2339 Q1146.6514,378.582 1149.1582,378.582 Q1149.8638,378.582 1150.5112,378.7314 Q1151.1587,378.8809 1151.7231,379.1797 L1151.7231,381.9023 Q1151.0923,381.3213 1150.4988,381.0515 Q1149.9053,380.7817 1149.2744,380.7817 Q1147.9297,380.7817 1147.2449,381.8484 Q1146.5601,382.915 1146.5601,385.0151 Q1146.5601,387.1069 1147.2449,388.1736 Q1147.9297,389.2402 1149.2744,389.2402 Q1149.9053,389.2402 1150.4988,388.9705 Q1151.0923,388.7007 1151.7231,388.1196 Z " fill="#000000"/><text fill="#000000" font-family="sans-serif" font-size="12" lengthAdjust="spacing" textLength="49" x="1169.75" y="389.2344">Ponto4D</text><line style="stroke:#A80036;stroke-width:1.5;" x1="1036.5" x2="1319.5" y1="400.6992" y2="400.6992"/><ellipse cx="1046.5" cy="411.6992" rx="3" ry="3" style="stroke:#038048;stroke-width:1.0;fill:none;"/><text fill="#000000" font-family="sans-serif" font-size="11" lengthAdjust="spacing" textLength="116" x="1055.5" y="415.334">X : double «get» «set»</text><ellipse cx="1046.5" cy="424.6543" rx="3" ry="3" style="stroke:#038048;stroke-width:1.0;fill:none;"/><text fill="#000000" font-family="sans-serif" font-size="11" lengthAdjust="spacing" textLength="116" x="1055.5" y="428.2891">Y : double «get» «set»</text><ellipse cx="1046.5" cy="437.6094" rx="3" ry="3" style="stroke:#038048;stroke-width:1.0;fill:none;"/><text fill="#000000" font-family="sans-serif" font-size="11" lengthAdjust="spacing" textLength="116" x="1055.5" y="441.2441">Z : double «get» «set»</text><ellipse cx="1046.5" cy="450.5645" rx="3" ry="3" style="stroke:#038048;stroke-width:1.0;fill:none;"/><text fill="#000000" font-family="sans-serif" font-size="11" lengthAdjust="spacing" textLength="87" x="1055.5" y="454.1992">W : double «get»</text><line style="stroke:#A80036;stroke-width:1.5;" x1="1036.5" x2="1319.5" y1="460.5195" y2="460.5195"/><ellipse cx="1046.5" cy="471.5195" fill="#84BE84" rx="3" ry="3" style="stroke:#038048;stroke-width:1.0;"/><text fill="#000000" font-family="sans-serif" font-size="11" lengthAdjust="spacing" textLength="259" x="1055.5" y="475.1543">Ponto4D(x:double, y:double, z:double, w:double)</text><ellipse cx="1046.5" cy="484.4746" fill="#84BE84" rx="3" ry="3" style="stroke:#038048;stroke-width:1.0;"/><text fill="#000000" font-family="sans-serif" font-size="11" lengthAdjust="spacing" textLength="121" x="1055.5" y="488.1094">Ponto4D(pto:Ponto4D)</text><ellipse cx="1046.5" cy="497.4297" fill="#84BE84" rx="3" ry="3" style="stroke:#038048;stroke-width:1.0;"/><text fill="#000000" font-family="sans-serif" font-size="11" lengthAdjust="spacing" textLength="155" x="1055.5" y="501.0645">«override» ToString() : string</text><!--MD5=[a7a8f22eafb289696c295eb36d2b4bda]
class CameraOrtho--><rect codeLine="17" fill="#FEFECE" filter="url(#f4b12w2lbmel1)" height="229.3711" id="CameraOrtho" style="stroke:#A80036;stroke-width:1.5;" width="538" x="7" y="28.1992"/><ellipse cx="233.25" cy="44.1992" fill="#ADD1B2" rx="11" ry="11" style="stroke:#A80036;stroke-width:1.0;"/><path d="M235.7231,50.3423 Q235.1421,50.6411 234.5029,50.7905 Q233.8638,50.9399 233.1582,50.9399 Q230.6514,50.9399 229.3315,49.2881 Q228.0117,47.6362 228.0117,44.5151 Q228.0117,41.3857 229.3315,39.7339 Q230.6514,38.082 233.1582,38.082 Q233.8638,38.082 234.5112,38.2314 Q235.1587,38.3809 235.7231,38.6797 L235.7231,41.4023 Q235.0923,40.8213 234.4988,40.5515 Q233.9053,40.2817 233.2744,40.2817 Q231.9297,40.2817 231.2449,41.3484 Q230.5601,42.415 230.5601,44.5151 Q230.5601,46.6069 231.2449,47.6736 Q231.9297,48.7402 233.2744,48.7402 Q233.9053,48.7402 234.4988,48.4705 Q235.0923,48.2007 235.7231,47.6196 Z " fill="#000000"/><text fill="#000000" font-family="sans-serif" font-size="12" lengthAdjust="spacing" textLength="77" x="253.75" y="48.7344">CameraOrtho</text><line style="stroke:#A80036;stroke-width:1.5;" x1="8" x2="544" y1="60.1992" y2="60.1992"/><ellipse cx="18" cy="71.1992" rx="3" ry="3" style="stroke:#038048;stroke-width:1.0;fill:none;"/><text fill="#000000" font-family="sans-serif" font-size="11" lengthAdjust="spacing" textLength="136" x="27" y="74.834">xmin : double «get» «set»</text><ellipse cx="18" cy="84.1543" rx="3" ry="3" style="stroke:#038048;stroke-width:1.0;fill:none;"/><text fill="#000000" font-family="sans-serif" font-size="11" lengthAdjust="spacing" textLength="139" x="27" y="87.7891">xmax : double «get» «set»</text><ellipse cx="18" cy="97.1094" rx="3" ry="3" style="stroke:#038048;stroke-width:1.0;fill:none;"/><text fill="#000000" font-family="sans-serif" font-size="11" lengthAdjust="spacing" textLength="135" x="27" y="100.7441">ymin : double «get» «set»</text><ellipse cx="18" cy="110.0645" rx="3" ry="3" style="stroke:#038048;stroke-width:1.0;fill:none;"/><text fill="#000000" font-family="sans-serif" font-size="11" lengthAdjust="spacing" textLength="138" x="27" y="113.6992">ymax : double «get» «set»</text><ellipse cx="18" cy="123.0195" rx="3" ry="3" style="stroke:#038048;stroke-width:1.0;fill:none;"/><text fill="#000000" font-family="sans-serif" font-size="11" lengthAdjust="spacing" textLength="135" x="27" y="126.6543">zmin : double «get» «set»</text><ellipse cx="18" cy="135.9746" rx="3" ry="3" style="stroke:#038048;stroke-width:1.0;fill:none;"/><text fill="#000000" font-family="sans-serif" font-size="11" lengthAdjust="spacing" textLength="138" x="27" y="139.6094">zmax : double «get» «set»</text><line style="stroke:#A80036;stroke-width:1.5;" x1="8" x2="544" y1="145.9297" y2="145.9297"/><ellipse cx="18" cy="156.9297" fill="#84BE84" rx="3" ry="3" style="stroke:#038048;stroke-width:1.0;"/><text fill="#000000" font-family="sans-serif" font-size="11" lengthAdjust="spacing" textLength="512" x="27" y="160.5645">CameraOrtho(xMin:double, xMax:double, yMin:double, yMax:double, zMin:double, zMax:double)</text><ellipse cx="18" cy="169.8848" fill="#84BE84" rx="3" ry="3" style="stroke:#038048;stroke-width:1.0;"/><text fill="#000000" font-family="sans-serif" font-size="11" lengthAdjust="spacing" textLength="109" x="27" y="173.5195">PanEsquerda() : void</text><ellipse cx="18" cy="182.8398" fill="#84BE84" rx="3" ry="3" style="stroke:#038048;stroke-width:1.0;"/><text fill="#000000" font-family="sans-serif" font-size="11" lengthAdjust="spacing" textLength="94" x="27" y="186.4746">PanDireita() : void</text><ellipse cx="18" cy="195.7949" fill="#84BE84" rx="3" ry="3" style="stroke:#038048;stroke-width:1.0;"/><text fill="#000000" font-family="sans-serif" font-size="11" lengthAdjust="spacing" textLength="86" x="27" y="199.4297">PanCima() : void</text><ellipse cx="18" cy="208.75" fill="#84BE84" rx="3" ry="3" style="stroke:#038048;stroke-width:1.0;"/><text fill="#000000" font-family="sans-serif" font-size="11" lengthAdjust="spacing" textLength="88" x="27" y="212.3848">PanBaixo() : void</text><ellipse cx="18" cy="221.7051" fill="#84BE84" rx="3" ry="3" style="stroke:#038048;stroke-width:1.0;"/><text fill="#000000" font-family="sans-serif" font-size="11" lengthAdjust="spacing" textLength="81" x="27" y="225.3398">ZoomIn() : void</text><ellipse cx="18" cy="234.6602" fill="#84BE84" rx="3" ry="3" style="stroke:#038048;stroke-width:1.0;"/><text fill="#000000" font-family="sans-serif" font-size="11" lengthAdjust="spacing" textLength="91" x="27" y="238.2949">ZoomOut() : void</text><ellipse cx="18" cy="247.6152" fill="#84BE84" rx="3" ry="3" style="stroke:#038048;stroke-width:1.0;"/><text fill="#000000" font-family="sans-serif" font-size="11" lengthAdjust="spacing" textLength="155" x="27" y="251.25">«override» ToString() : string</text><!--MD5=[c3851e40b8ed2f68ee08d490e0f0cd81]
class CameraPerspective--><rect codeLine="33" fill="#FEFECE" filter="url(#f4b12w2lbmel1)" height="125.7305" id="CameraPerspective" style="stroke:#A80036;stroke-width:1.5;" width="359" x="1498.5" y="79.6992"/><ellipse cx="1618.25" cy="95.6992" fill="#ADD1B2" rx="11" ry="11" style="stroke:#A80036;stroke-width:1.0;"/><path d="M1620.7231,101.8423 Q1620.1421,102.1411 1619.5029,102.2905 Q1618.8638,102.4399 1618.1582,102.4399 Q1615.6514,102.4399 1614.3315,100.7881 Q1613.0117,99.1362 1613.0117,96.0151 Q1613.0117,92.8857 1614.3315,91.2339 Q1615.6514,89.582 1618.1582,89.582 Q1618.8638,89.582 1619.5112,89.7314 Q1620.1587,89.8809 1620.7231,90.1797 L1620.7231,92.9023 Q1620.0923,92.3213 1619.4988,92.0515 Q1618.9053,91.7817 1618.2744,91.7817 Q1616.9297,91.7817 1616.2449,92.8484 Q1615.5601,93.915 1615.5601,96.0151 Q1615.5601,98.1069 1616.2449,99.1736 Q1616.9297,100.2402 1618.2744,100.2402 Q1618.9053,100.2402 1619.4988,99.9705 Q1620.0923,99.7007 1620.7231,99.1196 Z " fill="#000000"/><text fill="#000000" font-family="sans-serif" font-size="12" lengthAdjust="spacing" textLength="111" x="1638.75" y="100.2344">CameraPerspective</text><line style="stroke:#A80036;stroke-width:1.5;" x1="1499.5" x2="1856.5" y1="111.6992" y2="111.6992"/><ellipse cx="1509.5" cy="122.6992" rx="3" ry="3" style="stroke:#038048;stroke-width:1.0;fill:none;"/><text fill="#000000" font-family="sans-serif" font-size="11" lengthAdjust="spacing" textLength="121" x="1518.5" y="126.334">Fovy : float «get» «set»</text><ellipse cx="1509.5" cy="135.6543" rx="3" ry="3" style="stroke:#038048;stroke-width:1.0;fill:none;"/><text fill="#000000" font-family="sans-serif" font-size="11" lengthAdjust="spacing" textLength="133" x="1518.5" y="139.2891">Aspect : float «get» «set»</text><ellipse cx="1509.5" cy="148.6094" rx="3" ry="3" style="stroke:#038048;stroke-width:1.0;fill:none;"/><text fill="#000000" font-family="sans-serif" font-size="11" lengthAdjust="spacing" textLength="121" x="1518.5" y="152.2441">Near : float «get» «set»</text><ellipse cx="1509.5" cy="161.5645" rx="3" ry="3" style="stroke:#038048;stroke-width:1.0;fill:none;"/><text fill="#000000" font-family="sans-serif" font-size="11" lengthAdjust="spacing" textLength="113" x="1518.5" y="165.1992">Far : float «get» «set»</text><line style="stroke:#A80036;stroke-width:1.5;" x1="1499.5" x2="1856.5" y1="171.5195" y2="171.5195"/><ellipse cx="1509.5" cy="182.5195" fill="#84BE84" rx="3" ry="3" style="stroke:#038048;stroke-width:1.0;"/><text fill="#000000" font-family="sans-serif" font-size="11" lengthAdjust="spacing" textLength="333" x="1518.5" y="186.1543">CameraPerspective(fovy:float, aspect:float, near:float, far:float)</text><ellipse cx="1509.5" cy="195.4746" fill="#84BE84" rx="3" ry="3" style="stroke:#038048;stroke-width:1.0;"/><text fill="#000000" font-family="sans-serif" font-size="11" lengthAdjust="spacing" textLength="155" x="1518.5" y="199.1094">«override» ToString() : string</text><!--MD5=[65d619c042c23702cef2ca07d67b1cf6]
class Vector3--><rect fill="#FEFECE" filter="url(#f4b12w2lbmel1)" height="48" id="Vector3" style="stroke:#A80036;stroke-width:1.5;" width="77" x="1639.5" y="414.1992"/><ellipse cx="1654.5" cy="430.1992" fill="#ADD1B2" rx="11" ry="11" style="stroke:#A80036;stroke-width:1.0;"/><path d="M1656.9731,436.3423 Q1656.3921,436.6411 1655.7529,436.7905 Q1655.1138,436.9399 1654.4082,436.9399 Q1651.9014,436.9399 1650.5815,435.2881 Q1649.2617,433.6362 1649.2617,430.5151 Q1649.2617,427.3857 1650.5815,425.7339 Q1651.9014,424.082 1654.4082,424.082 Q1655.1138,424.082 1655.7612,424.2314 Q1656.4087,424.3809 1656.9731,424.6797 L1656.9731,427.4023 Q1656.3423,426.8213 1655.7488,426.5515 Q1655.1553,426.2817 1654.5244,426.2817 Q1653.1797,426.2817 1652.4949,427.3484 Q1651.8101,428.415 1651.8101,430.5151 Q1651.8101,432.6069 1652.4949,433.6736 Q1653.1797,434.7402 1654.5244,434.7402 Q1655.1553,434.7402 1655.7488,434.4705 Q1656.3423,434.2007 1656.9731,433.6196 Z " fill="#000000"/><text fill="#000000" font-family="sans-serif" font-size="12" lengthAdjust="spacing" textLength="45" x="1668.5" y="434.7344">Vector3</text><line style="stroke:#A80036;stroke-width:1.5;" x1="1640.5" x2="1715.5" y1="446.1992" y2="446.1992"/><line style="stroke:#A80036;stroke-width:1.5;" x1="1640.5" x2="1715.5" y1="454.1992" y2="454.1992"/><!--MD5=[9ac43fafcd0ede942dc8e681a30a1b52]
class Cor--><rect codeLine="44" fill="#FEFECE" filter="url(#f4b12w2lbmel1)" height="125.7305" id="Cor" style="stroke:#A80036;stroke-width:1.5;" width="277" x="580.5" y="79.6992"/><ellipse cx="704.75" cy="95.6992" fill="#ADD1B2" rx="11" ry="11" style="stroke:#A80036;stroke-width:1.0;"/><path d="M707.2231,101.8423 Q706.6421,102.1411 706.0029,102.2905 Q705.3638,102.4399 704.6582,102.4399 Q702.1514,102.4399 700.8315,100.7881 Q699.5117,99.1362 699.5117,96.0151 Q699.5117,92.8857 700.8315,91.2339 Q702.1514,89.582 704.6582,89.582 Q705.3638,89.582 706.0112,89.7314 Q706.6587,89.8809 707.2231,90.1797 L707.2231,92.9023 Q706.5923,92.3213 705.9988,92.0515 Q705.4053,91.7817 704.7744,91.7817 Q703.4297,91.7817 702.7449,92.8484 Q702.0601,93.915 702.0601,96.0151 Q702.0601,98.1069 702.7449,99.1736 Q703.4297,100.2402 704.7744,100.2402 Q705.4053,100.2402 705.9988,99.9705 Q706.5923,99.7007 707.2231,99.1196 Z " fill="#000000"/><text fill="#000000" font-family="sans-serif" font-size="12" lengthAdjust="spacing" textLength="20" x="725.25" y="100.2344">Cor</text><line style="stroke:#A80036;stroke-width:1.5;" x1="581.5" x2="856.5" y1="111.6992" y2="111.6992"/><ellipse cx="591.5" cy="122.6992" rx="3" ry="3" style="stroke:#038048;stroke-width:1.0;fill:none;"/><text fill="#000000" font-family="sans-serif" font-size="11" lengthAdjust="spacing" textLength="122" x="600.5" y="126.334">CorR : byte «get» «set»</text><ellipse cx="591.5" cy="135.6543" rx="3" ry="3" style="stroke:#038048;stroke-width:1.0;fill:none;"/><text fill="#000000" font-family="sans-serif" font-size="11" lengthAdjust="spacing" textLength="123" x="600.5" y="139.2891">CorG : byte «get» «set»</text><ellipse cx="591.5" cy="148.6094" rx="3" ry="3" style="stroke:#038048;stroke-width:1.0;fill:none;"/><text fill="#000000" font-family="sans-serif" font-size="11" lengthAdjust="spacing" textLength="121" x="600.5" y="152.2441">CorB : byte «get» «set»</text><ellipse cx="591.5" cy="161.5645" rx="3" ry="3" style="stroke:#038048;stroke-width:1.0;fill:none;"/><text fill="#000000" font-family="sans-serif" font-size="11" lengthAdjust="spacing" textLength="123" x="600.5" y="165.1992">CorA : byte «get» «set»</text><line style="stroke:#A80036;stroke-width:1.5;" x1="581.5" x2="856.5" y1="171.5195" y2="171.5195"/><ellipse cx="591.5" cy="182.5195" fill="#84BE84" rx="3" ry="3" style="stroke:#038048;stroke-width:1.0;"/><text fill="#000000" font-family="sans-serif" font-size="11" lengthAdjust="spacing" textLength="251" x="600.5" y="186.1543">Cor(corR:byte, corG:byte, corB:byte, corA:byte)</text><ellipse cx="591.5" cy="195.4746" fill="#84BE84" rx="3" ry="3" style="stroke:#038048;stroke-width:1.0;"/><text fill="#000000" font-family="sans-serif" font-size="11" lengthAdjust="spacing" textLength="155" x="600.5" y="199.1094">«override» ToString() : string</text><!--MD5=[57370106b09f55ffa37deb7835ffe78b]
class Matematica--><rect codeLine="52" fill="#FEFECE" filter="url(#f4b12w2lbmel1)" height="73.9102" id="Matematica" style="stroke:#A80036;stroke-width:1.5;" width="325" x="113.5" y="401.1992"/><ellipse cx="238.75" cy="417.1992" fill="#A9DCDF" rx="11" ry="11" style="stroke:#A80036;stroke-width:1.0;"/><path d="M238.6133,412.5474 L237.4595,417.6191 L239.7754,417.6191 Z M237.1191,410.3062 L240.1157,410.3062 L243.4609,422.6992 L241.0122,422.6992 L240.2485,419.6362 L236.9697,419.6362 L236.2227,422.6992 L233.7739,422.6992 Z " fill="#000000"/><text fill="#000000" font-family="sans-serif" font-size="12" font-style="italic" lengthAdjust="spacing" textLength="66" x="259.25" y="421.7344">Matematica</text><line style="stroke:#A80036;stroke-width:1.5;" x1="114.5" x2="437.5" y1="433.1992" y2="433.1992"/><line style="stroke:#A80036;stroke-width:1.5;" x1="114.5" x2="437.5" y1="441.1992" y2="441.1992"/><ellipse cx="124.5" cy="452.1992" fill="#84BE84" rx="3" ry="3" style="stroke:#038048;stroke-width:1.0;"/><text fill="#000000" font-family="sans-serif" font-size="11" lengthAdjust="spacing" text-decoration="underline" textLength="299" x="133.5" y="455.834">GerarPtosCirculo(angulo:double, raio:double) : Ponto4D</text><ellipse cx="124.5" cy="465.1543" fill="#84BE84" rx="3" ry="3" style="stroke:#038048;stroke-width:1.0;"/><text fill="#000000" font-family="sans-serif" font-size="11" lengthAdjust="spacing" text-decoration="underline" textLength="257" x="133.5" y="468.7891">GerarPtosCirculoSimétrico(raio:double) : double</text><!--MD5=[6746db26fbf3328699b5b65a634cc0f3]
class Transformacao4D--><rect codeLine="65" fill="#FEFECE" filter="url(#f4b12w2lbmel1)" height="242.3262" id="Transformacao4D" style="stroke:#A80036;stroke-width:1.5;" width="463" x="473.5" y="317.1992"/><ellipse cx="648.75" cy="333.1992" fill="#ADD1B2" rx="11" ry="11" style="stroke:#A80036;stroke-width:1.0;"/><path d="M651.2231,339.3423 Q650.6421,339.6411 650.0029,339.7905 Q649.3638,339.9399 648.6582,339.9399 Q646.1514,339.9399 644.8315,338.2881 Q643.5117,336.6362 643.5117,333.5151 Q643.5117,330.3857 644.8315,328.7339 Q646.1514,327.082 648.6582,327.082 Q649.3638,327.082 650.0112,327.2314 Q650.6587,327.3809 651.2231,327.6797 L651.2231,330.4023 Q650.5923,329.8213 649.9988,329.5515 Q649.4053,329.2817 648.7744,329.2817 Q647.4297,329.2817 646.7449,330.3484 Q646.0601,331.415 646.0601,333.5151 Q646.0601,335.6069 646.7449,336.6736 Q647.4297,337.7402 648.7744,337.7402 Q649.4053,337.7402 649.9988,337.4705 Q650.5923,337.2007 651.2231,336.6196 Z " fill="#000000"/><text fill="#000000" font-family="sans-serif" font-size="12" lengthAdjust="spacing" textLength="104" x="669.25" y="337.7344">Transformacao4D</text><line style="stroke:#A80036;stroke-width:1.5;" x1="474.5" x2="935.5" y1="349.1992" y2="349.1992"/><ellipse cx="484.5" cy="360.1992" rx="3" ry="3" style="stroke:#038048;stroke-width:1.0;fill:none;"/><text fill="#000000" font-family="sans-serif" font-size="11" lengthAdjust="spacing" text-decoration="underline" textLength="437" x="493.5" y="363.834">«readonly» DEG_TO_RAD : double = 0.017453292519943295769236907684886</text><line style="stroke:#A80036;stroke-width:1.5;" x1="474.5" x2="935.5" y1="370.1543" y2="370.1543"/><ellipse cx="484.5" cy="381.1543" fill="#84BE84" rx="3" ry="3" style="stroke:#038048;stroke-width:1.0;"/><text fill="#000000" font-family="sans-serif" font-size="11" lengthAdjust="spacing" textLength="105" x="493.5" y="384.7891">Transformacao4D()</text><ellipse cx="484.5" cy="394.1094" fill="#84BE84" rx="3" ry="3" style="stroke:#038048;stroke-width:1.0;"/><text fill="#000000" font-family="sans-serif" font-size="11" lengthAdjust="spacing" textLength="138" x="493.5" y="397.7441">AtribuirIdentidade() : void</text><ellipse cx="484.5" cy="407.0645" fill="#84BE84" rx="3" ry="3" style="stroke:#038048;stroke-width:1.0;"/><text fill="#000000" font-family="sans-serif" font-size="11" lengthAdjust="spacing" textLength="304" x="493.5" y="410.6992">AtribuirTranslacao(tx:double, ty:double, tz:double) : void</text><ellipse cx="484.5" cy="420.0195" fill="#84BE84" rx="3" ry="3" style="stroke:#038048;stroke-width:1.0;"/><text fill="#000000" font-family="sans-serif" font-size="11" lengthAdjust="spacing" textLength="286" x="493.5" y="423.6543">AtribuirEscala(sX:double, sY:double, sZ:double) : void</text><ellipse cx="484.5" cy="432.9746" fill="#84BE84" rx="3" ry="3" style="stroke:#038048;stroke-width:1.0;"/><text fill="#000000" font-family="sans-serif" font-size="11" lengthAdjust="spacing" textLength="212" x="493.5" y="436.6094">AtribuirRotacaoX(radians:double) : void</text><ellipse cx="484.5" cy="445.9297" fill="#84BE84" rx="3" ry="3" style="stroke:#038048;stroke-width:1.0;"/><text fill="#000000" font-family="sans-serif" font-size="11" lengthAdjust="spacing" textLength="212" x="493.5" y="449.5645">AtribuirRotacaoY(radians:double) : void</text><ellipse cx="484.5" cy="458.8848" fill="#84BE84" rx="3" ry="3" style="stroke:#038048;stroke-width:1.0;"/><text fill="#000000" font-family="sans-serif" font-size="11" lengthAdjust="spacing" textLength="212" x="493.5" y="462.5195">AtribuirRotacaoZ(radians:double) : void</text><ellipse cx="484.5" cy="471.8398" fill="#84BE84" rx="3" ry="3" style="stroke:#038048;stroke-width:1.0;"/><text fill="#000000" font-family="sans-serif" font-size="11" lengthAdjust="spacing" textLength="217" x="493.5" y="475.4746">MultiplicarPonto(pto:Ponto4D) : Ponto4D</text><ellipse cx="484.5" cy="484.7949" fill="#84BE84" rx="3" ry="3" style="stroke:#038048;stroke-width:1.0;"/><text fill="#000000" font-family="sans-serif" font-size="11" lengthAdjust="spacing" textLength="307" x="493.5" y="488.4297">MultiplicarMatriz(t:Transformacao4D) : Transformacao4D</text><ellipse cx="484.5" cy="497.75" fill="#84BE84" rx="3" ry="3" style="stroke:#038048;stroke-width:1.0;"/><text fill="#000000" font-family="sans-serif" font-size="11" lengthAdjust="spacing" textLength="181" x="493.5" y="501.3848">ObterElemento(index:int) : double</text><ellipse cx="484.5" cy="510.7051" fill="#84BE84" rx="3" ry="3" style="stroke:#038048;stroke-width:1.0;"/><text fill="#000000" font-family="sans-serif" font-size="11" lengthAdjust="spacing" textLength="252" x="493.5" y="514.3398">AtribuirElemento(index:int, value:double) : void</text><ellipse cx="484.5" cy="523.6602" fill="#84BE84" rx="3" ry="3" style="stroke:#038048;stroke-width:1.0;"/><text fill="#000000" font-family="sans-serif" font-size="11" lengthAdjust="spacing" textLength="127" x="493.5" y="527.2949">ObterDados() : double[]</text><ellipse cx="484.5" cy="536.6152" fill="#84BE84" rx="3" ry="3" style="stroke:#038048;stroke-width:1.0;"/><text fill="#000000" font-family="sans-serif" font-size="11" lengthAdjust="spacing" textLength="187" x="493.5" y="540.25">AtribuirDados(data:double[]) : void</text><ellipse cx="484.5" cy="549.5703" fill="#84BE84" rx="3" ry="3" style="stroke:#038048;stroke-width:1.0;"/><text fill="#000000" font-family="sans-serif" font-size="11" lengthAdjust="spacing" textLength="155" x="493.5" y="553.2051">«override» ToString() : string</text><!--MD5=[21d10fafb72c8ad2b9cea5ee0b564837]
link BBox to Ponto4D--><path codeLine="16" d="M1178,251.0546 C1178,288.2666 1178,329.0754 1178,363.0619 " fill="none" id="BBox-to-Ponto4D" style="stroke:#A80036;stroke-width:1.0;"/><polygon fill="#A80036" points="1178,368.4564,1182,359.4564,1178,363.4564,1174,359.4564,1178,368.4564" style="stroke:#A80036;stroke-width:1.0;"/><text fill="#000000" font-family="sans-serif" font-size="13" lengthAdjust="spacing" textLength="75" x="1099.1328" y="358.0913">obterCentro</text><!--MD5=[f94cdd04709e36a9b2c27ce98e350cf2]
link CameraPerspective to Vector3--><path codeLine="41" d="M1656.0407,205.7289 C1648.8509,268.5295 1650.6969,362.1727 1661.5785,409.1359 " fill="none" id="CameraPerspective-to-Vector3" style="stroke:#A80036;stroke-width:1.0;"/><polygon fill="#A80036" points="1662.804,414.0799,1664.5211,404.3819,1661.601,409.2268,1656.7561,406.3067,1662.804,414.0799" style="stroke:#A80036;stroke-width:1.0;"/><text fill="#000000" font-family="sans-serif" font-size="13" lengthAdjust="spacing" textLength="21" x="1635.2194" y="403.5856">Eye</text><!--MD5=[f94cdd04709e36a9b2c27ce98e350cf2]
link CameraPerspective to Vector3--><path codeLine="42" d="M1678,205.7289 C1678,268.4023 1678,361.7937 1678,408.8501 " fill="none" id="CameraPerspective-to-Vector3-1" style="stroke:#A80036;stroke-width:1.0;"/><polygon fill="#A80036" points="1678,414.0799,1682,405.0799,1678,409.0799,1674,405.0799,1678,414.0799" style="stroke:#A80036;stroke-width:1.0;"/><text fill="#000000" font-family="sans-serif" font-size="13" lengthAdjust="spacing" textLength="14" x="1662.2063" y="403.5856">At</text><!--MD5=[f94cdd04709e36a9b2c27ce98e350cf2]
link CameraPerspective to Vector3--><path codeLine="43" d="M1699.9593,205.7289 C1707.1491,268.5295 1705.3031,362.1727 1694.4215,409.1359 " fill="none" id="CameraPerspective-to-Vector3-2" style="stroke:#A80036;stroke-width:1.0;"/><polygon fill="#A80036" points="1693.196,414.0799,1699.2439,406.3067,1694.399,409.2268,1691.4789,404.3819,1693.196,414.0799" style="stroke:#A80036;stroke-width:1.0;"/><text fill="#000000" font-family="sans-serif" font-size="13" lengthAdjust="spacing" textLength="17" x="1699.2681" y="403.5856">Up</text><!--MD5=[e7de986f6000fe3d6a10445085ca244f]
link CameraOrtho to Cor--><!--MD5=[4f5707986820c6ec0abd120815a0bbac]
link CameraOrtho to Matematica--><!--MD5=[ac1c1ba96eba5558ebd60a36f28c26df]
link Matematica to Transformacao4D--><text fill="#888888" font-family="sans-serif" font-size="10" lengthAdjust="spacing" textLength="62" x="845.75" y="582.1934">Grupo GCG -</text><a href="http://gcg.inf.furb.br" target="_top" title="http://gcg.inf.furb.br" xlink:actuate="onRequest" xlink:href="http://gcg.inf.furb.br" xlink:show="new" xlink:title="http://gcg.inf.furb.br" xlink:type="simple"><text fill="#0000FF" font-family="sans-serif" font-size="10" lengthAdjust="spacing" text-decoration="underline" textLength="102" x="910.75" y="582.1934">http://gcg.inf.furb.br</text></a><!--MD5=[d9913e51e5f9fcaca7ca7b60e1e1d4d2]
@startuml CG_Biblioteca_Completo

title Diagrama de Classes - CG_Biblioteca
footer Grupo GCG - [[http://gcg.inf.furb.br]]

!include ./include.wsd

@enduml

@startuml CG_Biblioteca_Completo

title Diagrama de Classes - CG_Biblioteca
footer Grupo GCG - [[http://gcg.inf.furb.br]]

class BBox {
    + BBox(menorX:double, menorY:double, menorZ:double, maiorX:double, maiorY:double, maiorZ:double)
    + Atribuir(pto:Ponto4D) : void
    + Atualizar(pto:Ponto4D) : void
    + Atualizar(x:double, y:double, z:double) : void
    + ProcessarCentro() : void
    + Desenhar() : void
    + obterMenorX : double <<get>>
    + obterMenorY : double <<get>>
    + obterMenorZ : double <<get>>
    + obterMaiorX : double <<get>>
    + obterMaiorY : double <<get>>
    + obterMaiorZ : double <<get>>
    + <<override>> ToString() : string
}
BBox - -> "obterCentro" Ponto4D
class CameraOrtho {
    + CameraOrtho(xMin:double, xMax:double, yMin:double, yMax:double, zMin:double, zMax:double)
    + xmin : double <<get>> <<set>>
    + xmax : double <<get>> <<set>>
    + ymin : double <<get>> <<set>>
    + ymax : double <<get>> <<set>>
    + zmin : double <<get>> <<set>>
    + zmax : double <<get>> <<set>>
    + PanEsquerda() : void
    + PanDireita() : void
    + PanCima() : void
    + PanBaixo() : void
    + ZoomIn() : void
    + ZoomOut() : void
    + <<override>> ToString() : string
}
class CameraPerspective {
    + CameraPerspective(fovy:float, aspect:float, near:float, far:float)
    + Fovy : float <<get>> <<set>>
    + Aspect : float <<get>> <<set>>
    + Near : float <<get>> <<set>>
    + Far : float <<get>> <<set>>
    + <<override>> ToString() : string
}
CameraPerspective - -> "Eye" Vector3
CameraPerspective - -> "At" Vector3
CameraPerspective - -> "Up" Vector3
class Cor {
    + Cor(corR:byte, corG:byte, corB:byte, corA:byte)
    + <<override>> ToString() : string
    + CorR : byte <<get>> <<set>>
    + CorG : byte <<get>> <<set>>
    + CorB : byte <<get>> <<set>>
    + CorA : byte <<get>> <<set>>
}
abstract class Matematica {
    + {static} GerarPtosCirculo(angulo:double, raio:double) : Ponto4D
    + {static} GerarPtosCirculoSimétrico(raio:double) : double
}
class Ponto4D {
    + Ponto4D(x:double, y:double, z:double, w:double)
    + Ponto4D(pto:Ponto4D)
    + X : double <<get>> <<set>>
    + Y : double <<get>> <<set>>
    + Z : double <<get>> <<set>>
    + W : double <<get>>
    + <<override>> ToString() : string
}
class Transformacao4D {
    {static} + <<readonly>> DEG_TO_RAD : double = 0.017453292519943295769236907684886
    + Transformacao4D()
    + AtribuirIdentidade() : void
    + AtribuirTranslacao(tx:double, ty:double, tz:double) : void
    + AtribuirEscala(sX:double, sY:double, sZ:double) : void
    + AtribuirRotacaoX(radians:double) : void
    + AtribuirRotacaoY(radians:double) : void
    + AtribuirRotacaoZ(radians:double) : void
    + MultiplicarPonto(pto:Ponto4D) : Ponto4D
    + MultiplicarMatriz(t:Transformacao4D) : Transformacao4D
    + ObterElemento(index:int) : double
    + AtribuirElemento(index:int, value:double) : void
    + ObterDados() : double[]
    + AtribuirDados(data:double[]) : void
    + <<override>> ToString() : string
}

@enduml

PlantUML version 1.2022.0(Tue Jan 11 13:16:42 BRT 2022)
(GPL source distribution)
Java Runtime: OpenJDK Runtime Environment
JVM: OpenJDK 64-Bit Server VM
Default Encoding: UTF-8
Language: en
Country: BR
--></g></svg>