<?xml version="1.0" encoding="UTF-8" standalone="no"?><svg xmlns="http://www.w3.org/2000/svg" xmlns:xlink="http://www.w3.org/1999/xlink" contentScriptType="application/ecmascript" contentStyleType="text/css" height="146px" preserveAspectRatio="none" style="width:298px;height:146px;background:#FFFFFF;" version="1.1" viewBox="0 0 298 146" width="298px" zoomAndPan="magnify"><defs><filter height="300%" id="f1or7mpyagj135" width="300%" x="-1" y="-1"><feGaussianBlur result="blurOut" stdDeviation="2.0"/><feColorMatrix in="blurOut" result="blurOut2" type="matrix" values="0 0 0 0 0 0 0 0 0 0 0 0 0 0 0 0 0 0 .4 0"/><feOffset dx="4.0" dy="4.0" in="blurOut2" result="blurOut3"/><feBlend in="SourceGraphic" in2="blurOut3" mode="normal"/></filter></defs><g><!--MD5=[9ac43fafcd0ede942dc8e681a30a1b52]
class Cor--><rect codeLine="1" fill="#FEFECE" filter="url(#f1or7mpyagj135)" height="125.7305" id="Cor" style="stroke:#A80036;stroke-width:1.5;" width="277" x="7" y="7"/><ellipse cx="131.25" cy="23" fill="#ADD1B2" rx="11" ry="11" style="stroke:#A80036;stroke-width:1.0;"/><path d="M133.7231,29.1431 Q133.1421,29.4419 132.5029,29.5913 Q131.8638,29.7407 131.1582,29.7407 Q128.6514,29.7407 127.3315,28.0889 Q126.0117,26.437 126.0117,23.3159 Q126.0117,20.1865 127.3315,18.5347 Q128.6514,16.8828 131.1582,16.8828 Q131.8638,16.8828 132.5112,17.0322 Q133.1587,17.1816 133.7231,17.4805 L133.7231,20.2031 Q133.0923,19.6221 132.4988,19.3523 Q131.9053,19.0825 131.2744,19.0825 Q129.9297,19.0825 129.2449,20.1492 Q128.5601,21.2158 128.5601,23.3159 Q128.5601,25.4077 129.2449,26.4744 Q129.9297,27.541 131.2744,27.541 Q131.9053,27.541 132.4988,27.2712 Q133.0923,27.0015 133.7231,26.4204 Z " fill="#000000"/><text fill="#000000" font-family="sans-serif" font-size="12" lengthAdjust="spacing" textLength="20" x="151.75" y="27.5352">Cor</text><line style="stroke:#A80036;stroke-width:1.5;" x1="8" x2="283" y1="39" y2="39"/><ellipse cx="18" cy="50" rx="3" ry="3" style="stroke:#038048;stroke-width:1.0;fill:none;"/><text fill="#000000" font-family="sans-serif" font-size="11" lengthAdjust="spacing" textLength="122" x="27" y="53.6348">CorR : byte «get» «set»</text><ellipse cx="18" cy="62.9551" rx="3" ry="3" style="stroke:#038048;stroke-width:1.0;fill:none;"/><text fill="#000000" font-family="sans-serif" font-size="11" lengthAdjust="spacing" textLength="123" x="27" y="66.5898">CorG : byte «get» «set»</text><ellipse cx="18" cy="75.9102" rx="3" ry="3" style="stroke:#038048;stroke-width:1.0;fill:none;"/><text fill="#000000" font-family="sans-serif" font-size="11" lengthAdjust="spacing" textLength="121" x="27" y="79.5449">CorB : byte «get» «set»</text><ellipse cx="18" cy="88.8652" rx="3" ry="3" style="stroke:#038048;stroke-width:1.0;fill:none;"/><text fill="#000000" font-family="sans-serif" font-size="11" lengthAdjust="spacing" textLength="123" x="27" y="92.5">CorA : byte «get» «set»</text><line style="stroke:#A80036;stroke-width:1.5;" x1="8" x2="283" y1="98.8203" y2="98.8203"/><ellipse cx="18" cy="109.8203" fill="#84BE84" rx="3" ry="3" style="stroke:#038048;stroke-width:1.0;"/><text fill="#000000" font-family="sans-serif" font-size="11" lengthAdjust="spacing" textLength="251" x="27" y="113.4551">Cor(corR:byte, corG:byte, corB:byte, corA:byte)</text><ellipse cx="18" cy="122.7754" fill="#84BE84" rx="3" ry="3" style="stroke:#038048;stroke-width:1.0;"/><text fill="#000000" font-family="sans-serif" font-size="11" lengthAdjust="spacing" textLength="155" x="27" y="126.4102">«override» ToString() : string</text><!--MD5=[d0564d2d21dd9050427c0b6452eb2f36]
@startuml Cor
class Cor {
    + Cor(corR:byte, corG:byte, corB:byte, corA:byte)
    + <<override>> ToString() : string
    + CorR : byte <<get>> <<set>>
    + CorG : byte <<get>> <<set>>
    + CorB : byte <<get>> <<set>>
    + CorA : byte <<get>> <<set>>
}
@enduml

PlantUML version 1.2022.0(Tue Jan 11 13:16:42 BRT 2022)
(GPL source distribution)
Java Runtime: OpenJDK Runtime Environment
JVM: OpenJDK 64-Bit Server VM
Default Encoding: UTF-8
Language: en
Country: BR
--></g></svg>