<?xml version="1.0" encoding="UTF-8" standalone="no"?><svg xmlns="http://www.w3.org/2000/svg" xmlns:xlink="http://www.w3.org/1999/xlink" contentScriptType="application/ecmascript" contentStyleType="text/css" height="159px" preserveAspectRatio="none" style="width:306px;height:159px;background:#FFFFFF;" version="1.1" viewBox="0 0 306 159" width="306px" zoomAndPan="magnify"><defs><filter height="300%" id="f10tln0tae5ck9" width="300%" x="-1" y="-1"><feGaussianBlur result="blurOut" stdDeviation="2.0"/><feColorMatrix in="blurOut" result="blurOut2" type="matrix" values="0 0 0 0 0 0 0 0 0 0 0 0 0 0 0 0 0 0 .4 0"/><feOffset dx="4.0" dy="4.0" in="blurOut2" result="blurOut3"/><feBlend in="SourceGraphic" in2="blurOut3" mode="normal"/></filter></defs><g><!--MD5=[ef5ff341dffd6737742a54781c8b5648]
class Ponto4D--><rect codeLine="1" fill="#FEFECE" filter="url(#f10tln0tae5ck9)" height="138.6855" id="Ponto4D" style="stroke:#A80036;stroke-width:1.5;" width="285" x="7" y="7"/><ellipse cx="120.75" cy="23" fill="#ADD1B2" rx="11" ry="11" style="stroke:#A80036;stroke-width:1.0;"/><path d="M123.2231,29.1431 Q122.6421,29.4419 122.0029,29.5913 Q121.3638,29.7407 120.6582,29.7407 Q118.1514,29.7407 116.8315,28.0889 Q115.5117,26.437 115.5117,23.3159 Q115.5117,20.1865 116.8315,18.5347 Q118.1514,16.8828 120.6582,16.8828 Q121.3638,16.8828 122.0112,17.0322 Q122.6587,17.1816 123.2231,17.4805 L123.2231,20.2031 Q122.5923,19.6221 121.9988,19.3523 Q121.4053,19.0825 120.7744,19.0825 Q119.4297,19.0825 118.7449,20.1492 Q118.0601,21.2158 118.0601,23.3159 Q118.0601,25.4077 118.7449,26.4744 Q119.4297,27.541 120.7744,27.541 Q121.4053,27.541 121.9988,27.2712 Q122.5923,27.0015 123.2231,26.4204 Z " fill="#000000"/><text fill="#000000" font-family="sans-serif" font-size="12" lengthAdjust="spacing" textLength="49" x="141.25" y="27.5352">Ponto4D</text><line style="stroke:#A80036;stroke-width:1.5;" x1="8" x2="291" y1="39" y2="39"/><ellipse cx="18" cy="50" rx="3" ry="3" style="stroke:#038048;stroke-width:1.0;fill:none;"/><text fill="#000000" font-family="sans-serif" font-size="11" lengthAdjust="spacing" textLength="116" x="27" y="53.6348">X : double «get» «set»</text><ellipse cx="18" cy="62.9551" rx="3" ry="3" style="stroke:#038048;stroke-width:1.0;fill:none;"/><text fill="#000000" font-family="sans-serif" font-size="11" lengthAdjust="spacing" textLength="116" x="27" y="66.5898">Y : double «get» «set»</text><ellipse cx="18" cy="75.9102" rx="3" ry="3" style="stroke:#038048;stroke-width:1.0;fill:none;"/><text fill="#000000" font-family="sans-serif" font-size="11" lengthAdjust="spacing" textLength="116" x="27" y="79.5449">Z : double «get» «set»</text><ellipse cx="18" cy="88.8652" rx="3" ry="3" style="stroke:#038048;stroke-width:1.0;fill:none;"/><text fill="#000000" font-family="sans-serif" font-size="11" lengthAdjust="spacing" textLength="87" x="27" y="92.5">W : double «get»</text><line style="stroke:#A80036;stroke-width:1.5;" x1="8" x2="291" y1="98.8203" y2="98.8203"/><ellipse cx="18" cy="109.8203" fill="#84BE84" rx="3" ry="3" style="stroke:#038048;stroke-width:1.0;"/><text fill="#000000" font-family="sans-serif" font-size="11" lengthAdjust="spacing" textLength="259" x="27" y="113.4551">Ponto4D(x:double, y:double, z:double, w:double)</text><ellipse cx="18" cy="122.7754" fill="#84BE84" rx="3" ry="3" style="stroke:#038048;stroke-width:1.0;"/><text fill="#000000" font-family="sans-serif" font-size="11" lengthAdjust="spacing" textLength="121" x="27" y="126.4102">Ponto4D(pto:Ponto4D)</text><ellipse cx="18" cy="135.7305" fill="#84BE84" rx="3" ry="3" style="stroke:#038048;stroke-width:1.0;"/><text fill="#000000" font-family="sans-serif" font-size="11" lengthAdjust="spacing" textLength="155" x="27" y="139.3652">«override» ToString() : string</text><!--MD5=[7e4e27e1b2473d0603fd99bbba0d9b40]
@startuml Ponto4D
class Ponto4D {
    + Ponto4D(x:double, y:double, z:double, w:double)
    + Ponto4D(pto:Ponto4D)
    + X : double <<get>> <<set>>
    + Y : double <<get>> <<set>>
    + Z : double <<get>> <<set>>
    + W : double <<get>>
    + <<override>> ToString() : string
}
@enduml

PlantUML version 1.2022.0(Tue Jan 11 13:16:42 BRT 2022)
(GPL source distribution)
Java Runtime: OpenJDK Runtime Environment
JVM: OpenJDK 64-Bit Server VM
Default Encoding: UTF-8
Language: en
Country: BR
--></g></svg>