<?xml version="1.0" encoding="UTF-8" standalone="no"?><svg xmlns="http://www.w3.org/2000/svg" xmlns:xlink="http://www.w3.org/1999/xlink" contentScriptType="application/ecmascript" contentStyleType="text/css" height="263px" preserveAspectRatio="none" style="width:484px;height:263px;background:#FFFFFF;" version="1.1" viewBox="0 0 484 263" width="484px" zoomAndPan="magnify"><defs><filter height="300%" id="f23aes0ww224n" width="300%" x="-1" y="-1"><feGaussianBlur result="blurOut" stdDeviation="2.0"/><feColorMatrix in="blurOut" result="blurOut2" type="matrix" values="0 0 0 0 0 0 0 0 0 0 0 0 0 0 0 0 0 0 .4 0"/><feOffset dx="4.0" dy="4.0" in="blurOut2" result="blurOut3"/><feBlend in="SourceGraphic" in2="blurOut3" mode="normal"/></filter></defs><g><!--MD5=[6746db26fbf3328699b5b65a634cc0f3]
class Transformacao4D--><rect codeLine="1" fill="#FEFECE" filter="url(#f23aes0ww224n)" height="242.3262" id="Transformacao4D" style="stroke:#A80036;stroke-width:1.5;" width="463" x="7" y="7"/><ellipse cx="182.25" cy="23" fill="#ADD1B2" rx="11" ry="11" style="stroke:#A80036;stroke-width:1.0;"/><path d="M184.7231,29.1431 Q184.1421,29.4419 183.5029,29.5913 Q182.8638,29.7407 182.1582,29.7407 Q179.6514,29.7407 178.3315,28.0889 Q177.0117,26.437 177.0117,23.3159 Q177.0117,20.1865 178.3315,18.5347 Q179.6514,16.8828 182.1582,16.8828 Q182.8638,16.8828 183.5112,17.0322 Q184.1587,17.1816 184.7231,17.4805 L184.7231,20.2031 Q184.0923,19.6221 183.4988,19.3523 Q182.9053,19.0825 182.2744,19.0825 Q180.9297,19.0825 180.2449,20.1492 Q179.5601,21.2158 179.5601,23.3159 Q179.5601,25.4077 180.2449,26.4744 Q180.9297,27.541 182.2744,27.541 Q182.9053,27.541 183.4988,27.2712 Q184.0923,27.0015 184.7231,26.4204 Z " fill="#000000"/><text fill="#000000" font-family="sans-serif" font-size="12" lengthAdjust="spacing" textLength="104" x="202.75" y="27.5352">Transformacao4D</text><line style="stroke:#A80036;stroke-width:1.5;" x1="8" x2="469" y1="39" y2="39"/><ellipse cx="18" cy="50" rx="3" ry="3" style="stroke:#038048;stroke-width:1.0;fill:none;"/><text fill="#000000" font-family="sans-serif" font-size="11" lengthAdjust="spacing" text-decoration="underline" textLength="437" x="27" y="53.6348">«readonly» DEG_TO_RAD : double = 0.017453292519943295769236907684886</text><line style="stroke:#A80036;stroke-width:1.5;" x1="8" x2="469" y1="59.9551" y2="59.9551"/><ellipse cx="18" cy="70.9551" fill="#84BE84" rx="3" ry="3" style="stroke:#038048;stroke-width:1.0;"/><text fill="#000000" font-family="sans-serif" font-size="11" lengthAdjust="spacing" textLength="105" x="27" y="74.5898">Transformacao4D()</text><ellipse cx="18" cy="83.9102" fill="#84BE84" rx="3" ry="3" style="stroke:#038048;stroke-width:1.0;"/><text fill="#000000" font-family="sans-serif" font-size="11" lengthAdjust="spacing" textLength="138" x="27" y="87.5449">AtribuirIdentidade() : void</text><ellipse cx="18" cy="96.8652" fill="#84BE84" rx="3" ry="3" style="stroke:#038048;stroke-width:1.0;"/><text fill="#000000" font-family="sans-serif" font-size="11" lengthAdjust="spacing" textLength="304" x="27" y="100.5">AtribuirTranslacao(tx:double, ty:double, tz:double) : void</text><ellipse cx="18" cy="109.8203" fill="#84BE84" rx="3" ry="3" style="stroke:#038048;stroke-width:1.0;"/><text fill="#000000" font-family="sans-serif" font-size="11" lengthAdjust="spacing" textLength="286" x="27" y="113.4551">AtribuirEscala(sX:double, sY:double, sZ:double) : void</text><ellipse cx="18" cy="122.7754" fill="#84BE84" rx="3" ry="3" style="stroke:#038048;stroke-width:1.0;"/><text fill="#000000" font-family="sans-serif" font-size="11" lengthAdjust="spacing" textLength="212" x="27" y="126.4102">AtribuirRotacaoX(radians:double) : void</text><ellipse cx="18" cy="135.7305" fill="#84BE84" rx="3" ry="3" style="stroke:#038048;stroke-width:1.0;"/><text fill="#000000" font-family="sans-serif" font-size="11" lengthAdjust="spacing" textLength="212" x="27" y="139.3652">AtribuirRotacaoY(radians:double) : void</text><ellipse cx="18" cy="148.6855" fill="#84BE84" rx="3" ry="3" style="stroke:#038048;stroke-width:1.0;"/><text fill="#000000" font-family="sans-serif" font-size="11" lengthAdjust="spacing" textLength="212" x="27" y="152.3203">AtribuirRotacaoZ(radians:double) : void</text><ellipse cx="18" cy="161.6406" fill="#84BE84" rx="3" ry="3" style="stroke:#038048;stroke-width:1.0;"/><text fill="#000000" font-family="sans-serif" font-size="11" lengthAdjust="spacing" textLength="217" x="27" y="165.2754">MultiplicarPonto(pto:Ponto4D) : Ponto4D</text><ellipse cx="18" cy="174.5957" fill="#84BE84" rx="3" ry="3" style="stroke:#038048;stroke-width:1.0;"/><text fill="#000000" font-family="sans-serif" font-size="11" lengthAdjust="spacing" textLength="307" x="27" y="178.2305">MultiplicarMatriz(t:Transformacao4D) : Transformacao4D</text><ellipse cx="18" cy="187.5508" fill="#84BE84" rx="3" ry="3" style="stroke:#038048;stroke-width:1.0;"/><text fill="#000000" font-family="sans-serif" font-size="11" lengthAdjust="spacing" textLength="181" x="27" y="191.1855">ObterElemento(index:int) : double</text><ellipse cx="18" cy="200.5059" fill="#84BE84" rx="3" ry="3" style="stroke:#038048;stroke-width:1.0;"/><text fill="#000000" font-family="sans-serif" font-size="11" lengthAdjust="spacing" textLength="252" x="27" y="204.1406">AtribuirElemento(index:int, value:double) : void</text><ellipse cx="18" cy="213.4609" fill="#84BE84" rx="3" ry="3" style="stroke:#038048;stroke-width:1.0;"/><text fill="#000000" font-family="sans-serif" font-size="11" lengthAdjust="spacing" textLength="127" x="27" y="217.0957">ObterDados() : double[]</text><ellipse cx="18" cy="226.416" fill="#84BE84" rx="3" ry="3" style="stroke:#038048;stroke-width:1.0;"/><text fill="#000000" font-family="sans-serif" font-size="11" lengthAdjust="spacing" textLength="187" x="27" y="230.0508">AtribuirDados(data:double[]) : void</text><ellipse cx="18" cy="239.3711" fill="#84BE84" rx="3" ry="3" style="stroke:#038048;stroke-width:1.0;"/><text fill="#000000" font-family="sans-serif" font-size="11" lengthAdjust="spacing" textLength="155" x="27" y="243.0059">«override» ToString() : string</text><!--MD5=[06a3d6f608043348a6ef88e0f973eb14]
@startuml Transformacao4D
class Transformacao4D {
    {static} + <<readonly>> DEG_TO_RAD : double = 0.017453292519943295769236907684886
    + Transformacao4D()
    + AtribuirIdentidade() : void
    + AtribuirTranslacao(tx:double, ty:double, tz:double) : void
    + AtribuirEscala(sX:double, sY:double, sZ:double) : void
    + AtribuirRotacaoX(radians:double) : void
    + AtribuirRotacaoY(radians:double) : void
    + AtribuirRotacaoZ(radians:double) : void
    + MultiplicarPonto(pto:Ponto4D) : Ponto4D
    + MultiplicarMatriz(t:Transformacao4D) : Transformacao4D
    + ObterElemento(index:int) : double
    + AtribuirElemento(index:int, value:double) : void
    + ObterDados() : double[]
    + AtribuirDados(data:double[]) : void
    + <<override>> ToString() : string
}
@enduml

PlantUML version 1.2022.0(Tue Jan 11 13:16:42 BRT 2022)
(GPL source distribution)
Java Runtime: OpenJDK Runtime Environment
JVM: OpenJDK 64-Bit Server VM
Default Encoding: UTF-8
Language: en
Country: BR
--></g></svg>