<?xml version="1.0" encoding="UTF-8" standalone="no"?><svg xmlns="http://www.w3.org/2000/svg" xmlns:xlink="http://www.w3.org/1999/xlink" contentScriptType="application/ecmascript" contentStyleType="text/css" height="241px" preserveAspectRatio="none" style="width:442px;height:241px;background:#FFFFFF;" version="1.1" viewBox="0 0 442 241" width="442px" zoomAndPan="magnify"><defs><filter height="300%" id="f1oj0rh2qxsgqo" width="300%" x="-1" y="-1"><feGaussianBlur result="blurOut" stdDeviation="2.0"/><feColorMatrix in="blurOut" result="blurOut2" type="matrix" values="0 0 0 0 0 0 0 0 0 0 0 0 0 0 0 0 0 0 .4 0"/><feOffset dx="4.0" dy="4.0" in="blurOut2" result="blurOut3"/><feBlend in="SourceGraphic" in2="blurOut3" mode="normal"/></filter></defs><g><text fill="#000000" font-family="sans-serif" font-size="18" lengthAdjust="spacing" textLength="433" x="2" y="17.4023">Diagrama de Classes - CG_N2_OpenTK_NAO_Usar</text><!--MD5=[919386ce46a6a5a7c71af782f732246a]
class Mundo--><rect codeLine="1" fill="#FEFECE" filter="url(#f1oj0rh2qxsgqo)" height="60.9551" id="Mundo" style="stroke:#A80036;stroke-width:1.5;" width="174" x="61" y="149.1992"/><ellipse cx="124.25" cy="165.1992" fill="#ADD1B2" rx="11" ry="11" style="stroke:#A80036;stroke-width:1.0;"/><path d="M126.7231,171.3423 Q126.1421,171.6411 125.5029,171.7905 Q124.8638,171.9399 124.1582,171.9399 Q121.6514,171.9399 120.3315,170.2881 Q119.0117,168.6362 119.0117,165.5151 Q119.0117,162.3857 120.3315,160.7339 Q121.6514,159.082 124.1582,159.082 Q124.8638,159.082 125.5112,159.2314 Q126.1587,159.3809 126.7231,159.6797 L126.7231,162.4023 Q126.0923,161.8213 125.4988,161.5515 Q124.9053,161.2817 124.2744,161.2817 Q122.9297,161.2817 122.2449,162.3484 Q121.5601,163.415 121.5601,165.5151 Q121.5601,167.6069 122.2449,168.6736 Q122.9297,169.7402 124.2744,169.7402 Q124.9053,169.7402 125.4988,169.4705 Q126.0923,169.2007 126.7231,168.6196 Z " fill="#000000"/><text fill="#000000" font-family="sans-serif" font-size="12" lengthAdjust="spacing" textLength="39" x="144.75" y="169.7344">Mundo</text><line style="stroke:#A80036;stroke-width:1.5;" x1="62" x2="234" y1="181.1992" y2="181.1992"/><line style="stroke:#A80036;stroke-width:1.5;" x1="62" x2="234" y1="189.1992" y2="189.1992"/><ellipse cx="72" cy="200.1992" fill="#84BE84" rx="3" ry="3" style="stroke:#038048;stroke-width:1.0;"/><text fill="#000000" font-family="sans-serif" font-size="11" lengthAdjust="spacing" textLength="148" x="81" y="203.834">Mundo(width:int, height:int)</text><!--MD5=[175f95e045c1a44aed0b30df3abe0e5c]
class Program--><rect codeLine="4" fill="#FEFECE" filter="url(#f1oj0rh2qxsgqo)" height="60.9551" id="Program" style="stroke:#A80036;stroke-width:1.5;" width="144" x="238" y="28.1992"/><ellipse cx="281.35" cy="44.1992" fill="#ADD1B2" rx="11" ry="11" style="stroke:#A80036;stroke-width:1.0;"/><path d="M283.8231,50.3423 Q283.2421,50.6411 282.6029,50.7905 Q281.9638,50.9399 281.2582,50.9399 Q278.7514,50.9399 277.4315,49.2881 Q276.1117,47.6362 276.1117,44.5151 Q276.1117,41.3857 277.4315,39.7339 Q278.7514,38.082 281.2582,38.082 Q281.9638,38.082 282.6112,38.2314 Q283.2587,38.3809 283.8231,38.6797 L283.8231,41.4023 Q283.1923,40.8213 282.5988,40.5515 Q282.0053,40.2817 281.3744,40.2817 Q280.0297,40.2817 279.3449,41.3484 Q278.6601,42.415 278.6601,44.5151 Q278.6601,46.6069 279.3449,47.6736 Q280.0297,48.7402 281.3744,48.7402 Q282.0053,48.7402 282.5988,48.4705 Q283.1923,48.2007 283.8231,47.6196 Z " fill="#000000"/><text fill="#000000" font-family="sans-serif" font-size="12" lengthAdjust="spacing" textLength="49" x="301.65" y="48.7344">Program</text><line style="stroke:#A80036;stroke-width:1.5;" x1="239" x2="381" y1="60.1992" y2="60.1992"/><line style="stroke:#A80036;stroke-width:1.5;" x1="239" x2="381" y1="68.1992" y2="68.1992"/><text fill="#000000" font-family="sans-serif" font-size="11" lengthAdjust="spacing" text-decoration="underline" textLength="132" x="244" y="82.834">Main(args:string[]) : void</text><!--MD5=[d0074d293e9645ff4ed5f25f47c5773b]
class GameWindow--><rect fill="#FEFECE" filter="url(#f1oj0rh2qxsgqo)" height="48" id="GameWindow" style="stroke:#A80036;stroke-width:1.5;" width="110" x="93" y="34.6992"/><ellipse cx="108" cy="50.6992" fill="#ADD1B2" rx="11" ry="11" style="stroke:#A80036;stroke-width:1.0;"/><path d="M110.4731,56.8423 Q109.8921,57.1411 109.2529,57.2905 Q108.6138,57.4399 107.9082,57.4399 Q105.4014,57.4399 104.0815,55.7881 Q102.7617,54.1362 102.7617,51.0151 Q102.7617,47.8857 104.0815,46.2339 Q105.4014,44.582 107.9082,44.582 Q108.6138,44.582 109.2612,44.7314 Q109.9087,44.8809 110.4731,45.1797 L110.4731,47.9023 Q109.8423,47.3213 109.2488,47.0515 Q108.6553,46.7817 108.0244,46.7817 Q106.6797,46.7817 105.9949,47.8484 Q105.3101,48.915 105.3101,51.0151 Q105.3101,53.1069 105.9949,54.1736 Q106.6797,55.2402 108.0244,55.2402 Q108.6553,55.2402 109.2488,54.9705 Q109.8423,54.7007 110.4731,54.1196 Z " fill="#000000"/><text fill="#000000" font-family="sans-serif" font-size="12" lengthAdjust="spacing" textLength="78" x="122" y="55.2344">GameWindow</text><line style="stroke:#A80036;stroke-width:1.5;" x1="94" x2="202" y1="66.6992" y2="66.6992"/><line style="stroke:#A80036;stroke-width:1.5;" x1="94" x2="202" y1="74.6992" y2="74.6992"/><!--MD5=[3c0e7ba23ee97378347dee0d1da8e8b4]
reverse link GameWindow to Mundo--><path codeLine="7" d="M148,103.0763 C148,118.3691 148,135.1445 148,149.0901 " fill="none" id="GameWindow-backto-Mundo" style="stroke:#A80036;stroke-width:1.0;"/><polygon fill="none" points="141.0001,102.8946,148,82.8945,155.0001,102.8945,141.0001,102.8946" style="stroke:#A80036;stroke-width:1.0;"/><text fill="#888888" font-family="sans-serif" font-size="10" lengthAdjust="spacing" textLength="62" x="135" y="232.8223">Grupo GCG -</text><a href="http://gcg.inf.furb.br" target="_top" title="http://gcg.inf.furb.br" xlink:actuate="onRequest" xlink:href="http://gcg.inf.furb.br" xlink:show="new" xlink:title="http://gcg.inf.furb.br" xlink:type="simple"><text fill="#0000FF" font-family="sans-serif" font-size="10" lengthAdjust="spacing" text-decoration="underline" textLength="102" x="200" y="232.8223">http://gcg.inf.furb.br</text></a><!--MD5=[08dcc32b73d58208e174f55f89299d1b]
@startuml CG_N2_OpenTK_NAO_Usar_Classes

title Diagrama de Classes - CG_N2_OpenTK_NAO_Usar
footer Grupo GCG - [[http://gcg.inf.furb.br]]

!include ./plantuml/include.wsd

@enduml

@startuml CG_N2_OpenTK_NAO_Usar_Classes

title Diagrama de Classes - CG_N2_OpenTK_NAO_Usar
footer Grupo GCG - [[http://gcg.inf.furb.br]]

class Mundo {
    + Mundo(width:int, height:int)
}
class Program {
    {static} Main(args:string[]) : void
}
GameWindow <|- - Mundo

@enduml

PlantUML version 1.2022.0(Tue Jan 11 13:16:42 BRT 2022)
(GPL source distribution)
Java Runtime: OpenJDK Runtime Environment
JVM: OpenJDK 64-Bit Server VM
Default Encoding: UTF-8
Language: en
Country: BR
--></g></svg>