<?xml version="1.0" encoding="UTF-8" standalone="no"?><svg xmlns="http://www.w3.org/2000/svg" xmlns:xlink="http://www.w3.org/1999/xlink" contentScriptType="application/ecmascript" contentStyleType="text/css" height="202px" preserveAspectRatio="none" style="width:342px;height:202px;background:#FFFFFF;" version="1.1" viewBox="0 0 342 202" width="342px" zoomAndPan="magnify"><defs><filter height="300%" id="f1qwwxx7e5yots" width="300%" x="-1" y="-1"><feGaussianBlur result="blurOut" stdDeviation="2.0"/><feColorMatrix in="blurOut" result="blurOut2" type="matrix" values="0 0 0 0 0 0 0 0 0 0 0 0 0 0 0 0 0 0 .4 0"/><feOffset dx="4.0" dy="4.0" in="blurOut2" result="blurOut3"/><feBlend in="SourceGraphic" in2="blurOut3" mode="normal"/></filter></defs><g><!--MD5=[919386ce46a6a5a7c71af782f732246a]
class Mundo--><rect codeLine="1" fill="#FEFECE" filter="url(#f1qwwxx7e5yots)" height="60.9551" id="Mundo" style="stroke:#A80036;stroke-width:1.5;" width="174" x="7" y="128"/><ellipse cx="70.25" cy="144" fill="#ADD1B2" rx="11" ry="11" style="stroke:#A80036;stroke-width:1.0;"/><path d="M72.7231,150.1431 Q72.1421,150.4419 71.5029,150.5913 Q70.8638,150.7407 70.1582,150.7407 Q67.6514,150.7407 66.3315,149.0889 Q65.0117,147.437 65.0117,144.3159 Q65.0117,141.1865 66.3315,139.5347 Q67.6514,137.8828 70.1582,137.8828 Q70.8638,137.8828 71.5112,138.0322 Q72.1587,138.1816 72.7231,138.4805 L72.7231,141.2031 Q72.0923,140.6221 71.4988,140.3523 Q70.9053,140.0825 70.2744,140.0825 Q68.9297,140.0825 68.2449,141.1492 Q67.5601,142.2158 67.5601,144.3159 Q67.5601,146.4077 68.2449,147.4744 Q68.9297,148.541 70.2744,148.541 Q70.9053,148.541 71.4988,148.2712 Q72.0923,148.0015 72.7231,147.4204 Z " fill="#000000"/><text fill="#000000" font-family="sans-serif" font-size="12" lengthAdjust="spacing" textLength="39" x="90.75" y="148.5352">Mundo</text><line style="stroke:#A80036;stroke-width:1.5;" x1="8" x2="180" y1="160" y2="160"/><line style="stroke:#A80036;stroke-width:1.5;" x1="8" x2="180" y1="168" y2="168"/><ellipse cx="18" cy="179" fill="#84BE84" rx="3" ry="3" style="stroke:#038048;stroke-width:1.0;"/><text fill="#000000" font-family="sans-serif" font-size="11" lengthAdjust="spacing" textLength="148" x="27" y="182.6348">Mundo(width:int, height:int)</text><!--MD5=[175f95e045c1a44aed0b30df3abe0e5c]
class Program--><rect codeLine="4" fill="#FEFECE" filter="url(#f1qwwxx7e5yots)" height="60.9551" id="Program" style="stroke:#A80036;stroke-width:1.5;" width="144" x="184" y="7"/><ellipse cx="227.35" cy="23" fill="#ADD1B2" rx="11" ry="11" style="stroke:#A80036;stroke-width:1.0;"/><path d="M229.8231,29.1431 Q229.2421,29.4419 228.6029,29.5913 Q227.9638,29.7407 227.2582,29.7407 Q224.7514,29.7407 223.4315,28.0889 Q222.1117,26.437 222.1117,23.3159 Q222.1117,20.1865 223.4315,18.5347 Q224.7514,16.8828 227.2582,16.8828 Q227.9638,16.8828 228.6112,17.0322 Q229.2587,17.1816 229.8231,17.4805 L229.8231,20.2031 Q229.1923,19.6221 228.5988,19.3523 Q228.0053,19.0825 227.3744,19.0825 Q226.0297,19.0825 225.3449,20.1492 Q224.6601,21.2158 224.6601,23.3159 Q224.6601,25.4077 225.3449,26.4744 Q226.0297,27.541 227.3744,27.541 Q228.0053,27.541 228.5988,27.2712 Q229.1923,27.0015 229.8231,26.4204 Z " fill="#000000"/><text fill="#000000" font-family="sans-serif" font-size="12" lengthAdjust="spacing" textLength="49" x="247.65" y="27.5352">Program</text><line style="stroke:#A80036;stroke-width:1.5;" x1="185" x2="327" y1="39" y2="39"/><line style="stroke:#A80036;stroke-width:1.5;" x1="185" x2="327" y1="47" y2="47"/><text fill="#000000" font-family="sans-serif" font-size="11" lengthAdjust="spacing" text-decoration="underline" textLength="132" x="190" y="61.6348">Main(args:string[]) : void</text><!--MD5=[d0074d293e9645ff4ed5f25f47c5773b]
class GameWindow--><rect fill="#FEFECE" filter="url(#f1qwwxx7e5yots)" height="48" id="GameWindow" style="stroke:#A80036;stroke-width:1.5;" width="110" x="39" y="13.5"/><ellipse cx="54" cy="29.5" fill="#ADD1B2" rx="11" ry="11" style="stroke:#A80036;stroke-width:1.0;"/><path d="M56.4731,35.6431 Q55.8921,35.9419 55.2529,36.0913 Q54.6138,36.2407 53.9082,36.2407 Q51.4014,36.2407 50.0815,34.5889 Q48.7617,32.937 48.7617,29.8159 Q48.7617,26.6865 50.0815,25.0347 Q51.4014,23.3828 53.9082,23.3828 Q54.6138,23.3828 55.2612,23.5322 Q55.9087,23.6816 56.4731,23.9805 L56.4731,26.7031 Q55.8423,26.1221 55.2488,25.8523 Q54.6553,25.5825 54.0244,25.5825 Q52.6797,25.5825 51.9949,26.6492 Q51.3101,27.7158 51.3101,29.8159 Q51.3101,31.9077 51.9949,32.9744 Q52.6797,34.041 54.0244,34.041 Q54.6553,34.041 55.2488,33.7712 Q55.8423,33.5015 56.4731,32.9204 Z " fill="#000000"/><text fill="#000000" font-family="sans-serif" font-size="12" lengthAdjust="spacing" textLength="78" x="68" y="34.0352">GameWindow</text><line style="stroke:#A80036;stroke-width:1.5;" x1="40" x2="148" y1="45.5" y2="45.5"/><line style="stroke:#A80036;stroke-width:1.5;" x1="40" x2="148" y1="53.5" y2="53.5"/><!--MD5=[3c0e7ba23ee97378347dee0d1da8e8b4]
reverse link GameWindow to Mundo--><path codeLine="7" d="M94,81.8771 C94,97.1699 94,113.9453 94,127.8909 " fill="none" id="GameWindow-backto-Mundo" style="stroke:#A80036;stroke-width:1.0;"/><polygon fill="none" points="87.0001,81.6954,94,61.6953,101.0001,81.6953,87.0001,81.6954" style="stroke:#A80036;stroke-width:1.0;"/><!--MD5=[1f0e70f87dbb4bf44f6b96ad835b4912]
@startuml Mundo
class Mundo {
    + Mundo(width:int, height:int)
}
class Program {
    {static} Main(args:string[]) : void
}
GameWindow <|- - Mundo
@enduml

PlantUML version 1.2022.0(Tue Jan 11 13:16:42 BRT 2022)
(GPL source distribution)
Java Runtime: OpenJDK Runtime Environment
JVM: OpenJDK 64-Bit Server VM
Default Encoding: UTF-8
Language: en
Country: BR
--></g></svg>