<?xml version="1.0" encoding="UTF-8" standalone="no"?><svg xmlns="http://www.w3.org/2000/svg" xmlns:xlink="http://www.w3.org/1999/xlink" contentScriptType="application/ecmascript" contentStyleType="text/css" height="453px" preserveAspectRatio="none" style="width:2163px;height:453px;background:#FFFFFF;" version="1.1" viewBox="0 0 2163 453" width="2163px" zoomAndPan="magnify"><defs><filter height="300%" id="f7j646infz2c2" width="300%" x="-1" y="-1"><feGaussianBlur result="blurOut" stdDeviation="2.0"/><feColorMatrix in="blurOut" result="blurOut2" type="matrix" values="0 0 0 0 0 0 0 0 0 0 0 0 0 0 0 0 0 0 .4 0"/><feOffset dx="4.0" dy="4.0" in="blurOut2" result="blurOut3"/><feBlend in="SourceGraphic" in2="blurOut3" mode="normal"/></filter></defs><g><!--MD5=[919386ce46a6a5a7c71af782f732246a]
class Mundo--><rect codeLine="1" fill="#FEFECE" filter="url(#f7j646infz2c2)" height="86.8652" id="Mundo" style="stroke:#A80036;stroke-width:1.5;" width="246" x="703.5" y="199.5"/><ellipse cx="802.75" cy="215.5" fill="#ADD1B2" rx="11" ry="11" style="stroke:#A80036;stroke-width:1.0;"/><path d="M805.2231,221.6431 Q804.6421,221.9419 804.0029,222.0913 Q803.3638,222.2407 802.6582,222.2407 Q800.1514,222.2407 798.8315,220.5889 Q797.5117,218.937 797.5117,215.8159 Q797.5117,212.6865 798.8315,211.0347 Q800.1514,209.3828 802.6582,209.3828 Q803.3638,209.3828 804.0112,209.5322 Q804.6587,209.6816 805.2231,209.9805 L805.2231,212.7031 Q804.5923,212.1221 803.9988,211.8523 Q803.4053,211.5825 802.7744,211.5825 Q801.4297,211.5825 800.7449,212.6492 Q800.0601,213.7158 800.0601,215.8159 Q800.0601,217.9077 800.7449,218.9744 Q801.4297,220.041 802.7744,220.041 Q803.4053,220.041 803.9988,219.7712 Q804.5923,219.5015 805.2231,218.9204 Z " fill="#000000"/><text fill="#000000" font-family="sans-serif" font-size="12" lengthAdjust="spacing" textLength="39" x="823.25" y="220.0352">Mundo</text><line style="stroke:#A80036;stroke-width:1.5;" x1="704.5" x2="948.5" y1="231.5" y2="231.5"/><text fill="#000000" font-family="sans-serif" font-size="11" lengthAdjust="spacing" textLength="66" x="709.5" y="246.1348">mouseX : int</text><text fill="#000000" font-family="sans-serif" font-size="11" lengthAdjust="spacing" textLength="66" x="709.5" y="259.0898">mouseY : int</text><line style="stroke:#A80036;stroke-width:1.5;" x1="704.5" x2="948.5" y1="265.4102" y2="265.4102"/><ellipse cx="714.5" cy="276.4102" fill="#84BE84" rx="3" ry="3" style="stroke:#038048;stroke-width:1.0;"/><text fill="#000000" font-family="sans-serif" font-size="11" lengthAdjust="spacing" text-decoration="underline" textLength="220" x="723.5" y="280.0449">GetInstance(width:int, height:int) : Mundo</text><!--MD5=[175f95e045c1a44aed0b30df3abe0e5c]
class Program--><rect codeLine="6" fill="#FEFECE" filter="url(#f7j646infz2c2)" height="60.9551" id="Program" style="stroke:#A80036;stroke-width:1.5;" width="144" x="51.5" y="33"/><ellipse cx="94.85" cy="49" fill="#ADD1B2" rx="11" ry="11" style="stroke:#A80036;stroke-width:1.0;"/><path d="M97.3231,55.1431 Q96.7421,55.4419 96.1029,55.5913 Q95.4638,55.7407 94.7582,55.7407 Q92.2514,55.7407 90.9315,54.0889 Q89.6117,52.437 89.6117,49.3159 Q89.6117,46.1865 90.9315,44.5347 Q92.2514,42.8828 94.7582,42.8828 Q95.4638,42.8828 96.1112,43.0322 Q96.7587,43.1816 97.3231,43.4805 L97.3231,46.2031 Q96.6923,45.6221 96.0988,45.3523 Q95.5053,45.0825 94.8744,45.0825 Q93.5297,45.0825 92.8449,46.1492 Q92.1601,47.2158 92.1601,49.3159 Q92.1601,51.4077 92.8449,52.4744 Q93.5297,53.541 94.8744,53.541 Q95.5053,53.541 96.0988,53.2712 Q96.6923,53.0015 97.3231,52.4204 Z " fill="#000000"/><text fill="#000000" font-family="sans-serif" font-size="12" lengthAdjust="spacing" textLength="49" x="115.15" y="53.5352">Program</text><line style="stroke:#A80036;stroke-width:1.5;" x1="52.5" x2="194.5" y1="65" y2="65"/><line style="stroke:#A80036;stroke-width:1.5;" x1="52.5" x2="194.5" y1="73" y2="73"/><text fill="#000000" font-family="sans-serif" font-size="11" lengthAdjust="spacing" text-decoration="underline" textLength="132" x="57.5" y="87.6348">Main(args:string[]) : void</text><!--MD5=[d0074d293e9645ff4ed5f25f47c5773b]
class GameWindow--><rect fill="#FEFECE" filter="url(#f7j646infz2c2)" height="48" id="GameWindow" style="stroke:#A80036;stroke-width:1.5;" width="110" x="771.5" y="39.5"/><ellipse cx="786.5" cy="55.5" fill="#ADD1B2" rx="11" ry="11" style="stroke:#A80036;stroke-width:1.0;"/><path d="M788.9731,61.6431 Q788.3921,61.9419 787.7529,62.0913 Q787.1138,62.2407 786.4082,62.2407 Q783.9014,62.2407 782.5815,60.5889 Q781.2617,58.937 781.2617,55.8159 Q781.2617,52.6865 782.5815,51.0347 Q783.9014,49.3828 786.4082,49.3828 Q787.1138,49.3828 787.7612,49.5322 Q788.4087,49.6816 788.9731,49.9805 L788.9731,52.7031 Q788.3423,52.1221 787.7488,51.8523 Q787.1553,51.5825 786.5244,51.5825 Q785.1797,51.5825 784.4949,52.6492 Q783.8101,53.7158 783.8101,55.8159 Q783.8101,57.9077 784.4949,58.9744 Q785.1797,60.041 786.5244,60.041 Q787.1553,60.041 787.7488,59.7712 Q788.3423,59.5015 788.9731,58.9204 Z " fill="#000000"/><text fill="#000000" font-family="sans-serif" font-size="12" lengthAdjust="spacing" textLength="78" x="800.5" y="60.0352">GameWindow</text><line style="stroke:#A80036;stroke-width:1.5;" x1="772.5" x2="880.5" y1="71.5" y2="71.5"/><line style="stroke:#A80036;stroke-width:1.5;" x1="772.5" x2="880.5" y1="79.5" y2="79.5"/><!--MD5=[3051a6a8f877a755a60c7cfd1e6f410a]
class Objeto--><rect codeLine="10" fill="#FEFECE" filter="url(#f7j646infz2c2)" height="112.7754" id="Objeto" style="stroke:#A80036;stroke-width:1.5;" width="218" x="1077.5" y="7"/><ellipse cx="1162.75" cy="23" fill="#A9DCDF" rx="11" ry="11" style="stroke:#A80036;stroke-width:1.0;"/><path d="M1162.6133,18.3481 L1161.4595,23.4199 L1163.7754,23.4199 Z M1161.1191,16.1069 L1164.1157,16.1069 L1167.4609,28.5 L1165.0122,28.5 L1164.2485,25.437 L1160.9697,25.437 L1160.2227,28.5 L1157.7739,28.5 Z " fill="#000000"/><text fill="#000000" font-family="sans-serif" font-size="12" font-style="italic" lengthAdjust="spacing" textLength="39" x="1183.25" y="27.5352">Objeto</text><line style="stroke:#A80036;stroke-width:1.5;" x1="1078.5" x2="1294.5" y1="39" y2="39"/><ellipse cx="1088.5" cy="50" rx="3" ry="3" style="stroke:#038048;stroke-width:1.0;fill:none;"/><text fill="#000000" font-family="sans-serif" font-size="11" lengthAdjust="spacing" textLength="192" x="1097.5" y="53.6348">PrimitivaTamanho : float «get» «set»</text><line style="stroke:#A80036;stroke-width:1.5;" x1="1078.5" x2="1294.5" y1="59.9551" y2="59.9551"/><ellipse cx="1088.5" cy="70.9551" fill="#84BE84" rx="3" ry="3" style="stroke:#038048;stroke-width:1.0;"/><text fill="#000000" font-family="sans-serif" font-size="11" lengthAdjust="spacing" textLength="190" x="1097.5" y="74.5898">Objeto(rotulo:string, paiRef:Objeto)</text><ellipse cx="1088.5" cy="83.9102" fill="#84BE84" rx="3" ry="3" style="stroke:#038048;stroke-width:1.0;"/><text fill="#000000" font-family="sans-serif" font-size="11" lengthAdjust="spacing" textLength="91" x="1097.5" y="87.5449">Desenhar() : void</text><ellipse cx="1088.5" cy="96.8652" fill="#84BE84" rx="3" ry="3" style="stroke:#038048;stroke-width:1.0;"/><text fill="#000000" font-family="sans-serif" font-size="11" lengthAdjust="spacing" textLength="181" x="1097.5" y="100.5">FilhoAdicionar(filho:Objeto) : void</text><ellipse cx="1088.5" cy="109.8203" fill="#84BE84" rx="3" ry="3" style="stroke:#038048;stroke-width:1.0;"/><text fill="#000000" font-family="sans-serif" font-size="11" lengthAdjust="spacing" textLength="176" x="1097.5" y="113.4551">FilhoRemover(filho:Objeto) : void</text><!--MD5=[9ac43fafcd0ede942dc8e681a30a1b52]
class Cor--><rect fill="#FEFECE" filter="url(#f7j646infz2c2)" height="48" id="Cor" style="stroke:#A80036;stroke-width:1.5;" width="52" x="984.5" y="219"/><ellipse cx="999.5" cy="235" fill="#ADD1B2" rx="11" ry="11" style="stroke:#A80036;stroke-width:1.0;"/><path d="M1001.9731,241.1431 Q1001.3921,241.4419 1000.7529,241.5913 Q1000.1138,241.7407 999.4082,241.7407 Q996.9014,241.7407 995.5815,240.0889 Q994.2617,238.437 994.2617,235.3159 Q994.2617,232.1865 995.5815,230.5347 Q996.9014,228.8828 999.4082,228.8828 Q1000.1138,228.8828 1000.7612,229.0322 Q1001.4087,229.1816 1001.9731,229.4805 L1001.9731,232.2031 Q1001.3423,231.6221 1000.7488,231.3523 Q1000.1553,231.0825 999.5244,231.0825 Q998.1797,231.0825 997.4949,232.1492 Q996.8101,233.2158 996.8101,235.3159 Q996.8101,237.4077 997.4949,238.4744 Q998.1797,239.541 999.5244,239.541 Q1000.1553,239.541 1000.7488,239.2712 Q1001.3423,239.0015 1001.9731,238.4204 Z " fill="#000000"/><text fill="#000000" font-family="sans-serif" font-size="12" lengthAdjust="spacing" textLength="20" x="1013.5" y="239.5352">Cor</text><line style="stroke:#A80036;stroke-width:1.5;" x1="985.5" x2="1035.5" y1="251" y2="251"/><line style="stroke:#A80036;stroke-width:1.5;" x1="985.5" x2="1035.5" y1="259" y2="259"/><!--MD5=[38e8fced9e943fac45fdba9ac5db991f]
class PrimitiveType--><rect fill="#FEFECE" filter="url(#f7j646infz2c2)" height="48" id="PrimitiveType" style="stroke:#A80036;stroke-width:1.5;" width="110" x="1071.5" y="219"/><ellipse cx="1086.5" cy="235" fill="#ADD1B2" rx="11" ry="11" style="stroke:#A80036;stroke-width:1.0;"/><path d="M1088.9731,241.1431 Q1088.3921,241.4419 1087.7529,241.5913 Q1087.1138,241.7407 1086.4082,241.7407 Q1083.9014,241.7407 1082.5815,240.0889 Q1081.2617,238.437 1081.2617,235.3159 Q1081.2617,232.1865 1082.5815,230.5347 Q1083.9014,228.8828 1086.4082,228.8828 Q1087.1138,228.8828 1087.7612,229.0322 Q1088.4087,229.1816 1088.9731,229.4805 L1088.9731,232.2031 Q1088.3423,231.6221 1087.7488,231.3523 Q1087.1553,231.0825 1086.5244,231.0825 Q1085.1797,231.0825 1084.4949,232.1492 Q1083.8101,233.2158 1083.8101,235.3159 Q1083.8101,237.4077 1084.4949,238.4744 Q1085.1797,239.541 1086.5244,239.541 Q1087.1553,239.541 1087.7488,239.2712 Q1088.3423,239.0015 1088.9731,238.4204 Z " fill="#000000"/><text fill="#000000" font-family="sans-serif" font-size="12" lengthAdjust="spacing" textLength="78" x="1100.5" y="239.5352">PrimitiveType</text><line style="stroke:#A80036;stroke-width:1.5;" x1="1072.5" x2="1180.5" y1="251" y2="251"/><line style="stroke:#A80036;stroke-width:1.5;" x1="1072.5" x2="1180.5" y1="259" y2="259"/><!--MD5=[ea10f8dc465baf5e542f54928f2443c8]
class BBox--><rect fill="#FEFECE" filter="url(#f7j646infz2c2)" height="48" id="BBox" style="stroke:#A80036;stroke-width:1.5;" width="60" x="1216.5" y="219"/><ellipse cx="1231.5" cy="235" fill="#ADD1B2" rx="11" ry="11" style="stroke:#A80036;stroke-width:1.0;"/><path d="M1233.9731,241.1431 Q1233.3921,241.4419 1232.7529,241.5913 Q1232.1138,241.7407 1231.4082,241.7407 Q1228.9014,241.7407 1227.5815,240.0889 Q1226.2617,238.437 1226.2617,235.3159 Q1226.2617,232.1865 1227.5815,230.5347 Q1228.9014,228.8828 1231.4082,228.8828 Q1232.1138,228.8828 1232.7612,229.0322 Q1233.4087,229.1816 1233.9731,229.4805 L1233.9731,232.2031 Q1233.3423,231.6221 1232.7488,231.3523 Q1232.1553,231.0825 1231.5244,231.0825 Q1230.1797,231.0825 1229.4949,232.1492 Q1228.8101,233.2158 1228.8101,235.3159 Q1228.8101,237.4077 1229.4949,238.4744 Q1230.1797,239.541 1231.5244,239.541 Q1232.1553,239.541 1232.7488,239.2712 Q1233.3423,239.0015 1233.9731,238.4204 Z " fill="#000000"/><text fill="#000000" font-family="sans-serif" font-size="12" lengthAdjust="spacing" textLength="28" x="1245.5" y="239.5352">BBox</text><line style="stroke:#A80036;stroke-width:1.5;" x1="1217.5" x2="1275.5" y1="251" y2="251"/><line style="stroke:#A80036;stroke-width:1.5;" x1="1217.5" x2="1275.5" y1="259" y2="259"/><!--MD5=[8b9e0d00865063ef789ad294aa32e6ea]
class ObjetoGeometria--><rect codeLine="20" fill="#FEFECE" filter="url(#f7j646infz2c2)" height="125.7305" id="ObjetoGeometria" style="stroke:#A80036;stroke-width:1.5;" width="272" x="1311.5" y="180"/><ellipse cx="1393.75" cy="196" fill="#A9DCDF" rx="11" ry="11" style="stroke:#A80036;stroke-width:1.0;"/><path d="M1393.6133,191.3481 L1392.4595,196.4199 L1394.7754,196.4199 Z M1392.1191,189.1069 L1395.1157,189.1069 L1398.4609,201.5 L1396.0122,201.5 L1395.2485,198.437 L1391.9697,198.437 L1391.2227,201.5 L1388.7739,201.5 Z " fill="#000000"/><text fill="#000000" font-family="sans-serif" font-size="12" font-style="italic" lengthAdjust="spacing" textLength="99" x="1414.25" y="200.5352">ObjetoGeometria</text><line style="stroke:#A80036;stroke-width:1.5;" x1="1312.5" x2="1582.5" y1="212" y2="212"/><line style="stroke:#A80036;stroke-width:1.5;" x1="1312.5" x2="1582.5" y1="220" y2="220"/><ellipse cx="1322.5" cy="231" fill="#84BE84" rx="3" ry="3" style="stroke:#038048;stroke-width:1.0;"/><text fill="#000000" font-family="sans-serif" font-size="11" lengthAdjust="spacing" textLength="245" x="1331.5" y="234.6348">ObjetoGeometria(rotulo:string, paiRef:Objeto)</text><ellipse cx="1322.5" cy="243.9551" fill="#84BE84" rx="3" ry="3" style="stroke:#038048;stroke-width:1.0;"/><text fill="#000000" font-family="sans-serif" font-size="11" lengthAdjust="spacing" textLength="196" x="1331.5" y="247.5898">PontosAdicionar(pto:Ponto4D) : void</text><ellipse cx="1322.5" cy="256.9102" fill="#84BE84" rx="3" ry="3" style="stroke:#038048;stroke-width:1.0;"/><text fill="#000000" font-family="sans-serif" font-size="11" lengthAdjust="spacing" textLength="159" x="1331.5" y="260.5449">PontosRemoverUltimo() : void</text><ellipse cx="1322.5" cy="269.8652" fill="#84BE84" rx="3" ry="3" style="stroke:#038048;stroke-width:1.0;"/><text fill="#000000" font-family="sans-serif" font-size="11" lengthAdjust="spacing" textLength="135" x="1331.5" y="273.5">PontosUltimo() : Ponto4D</text><ellipse cx="1322.5" cy="282.8203" fill="#84BE84" rx="3" ry="3" style="stroke:#038048;stroke-width:1.0;"/><text fill="#000000" font-family="sans-serif" font-size="11" lengthAdjust="spacing" textLength="246" x="1331.5" y="286.4551">PontosAlterar(pto:Ponto4D, posicao:int) : void</text><ellipse cx="1322.5" cy="295.7754" fill="#84BE84" rx="3" ry="3" style="stroke:#038048;stroke-width:1.0;"/><text fill="#000000" font-family="sans-serif" font-size="11" lengthAdjust="spacing" textLength="155" x="1331.5" y="299.4102">«override» ToString() : string</text><!--MD5=[b6968d6f0311dc2ba07018bef6e7bfd3]
class Retangulo--><rect codeLine="29" fill="#FEFECE" filter="url(#f7j646infz2c2)" height="73.9102" id="Retangulo" style="stroke:#A80036;stroke-width:1.5;" width="449" x="742" y="366"/><ellipse cx="933.75" cy="382" fill="#ADD1B2" rx="11" ry="11" style="stroke:#A80036;stroke-width:1.0;"/><path d="M936.2231,388.1431 Q935.6421,388.4419 935.0029,388.5913 Q934.3638,388.7407 933.6582,388.7407 Q931.1514,388.7407 929.8315,387.0889 Q928.5117,385.437 928.5117,382.3159 Q928.5117,379.1865 929.8315,377.5347 Q931.1514,375.8828 933.6582,375.8828 Q934.3638,375.8828 935.0112,376.0322 Q935.6587,376.1816 936.2231,376.4805 L936.2231,379.2031 Q935.5923,378.6221 934.9988,378.3523 Q934.4053,378.0825 933.7744,378.0825 Q932.4297,378.0825 931.7449,379.1492 Q931.0601,380.2158 931.0601,382.3159 Q931.0601,384.4077 931.7449,385.4744 Q932.4297,386.541 933.7744,386.541 Q934.4053,386.541 934.9988,386.2712 Q935.5923,386.0015 936.2231,385.4204 Z " fill="#000000"/><text fill="#000000" font-family="sans-serif" font-size="12" lengthAdjust="spacing" textLength="57" x="954.25" y="386.5352">Retangulo</text><line style="stroke:#A80036;stroke-width:1.5;" x1="743" x2="1190" y1="398" y2="398"/><line style="stroke:#A80036;stroke-width:1.5;" x1="743" x2="1190" y1="406" y2="406"/><ellipse cx="753" cy="417" fill="#84BE84" rx="3" ry="3" style="stroke:#038048;stroke-width:1.0;"/><text fill="#000000" font-family="sans-serif" font-size="11" lengthAdjust="spacing" textLength="423" x="762" y="420.6348">Retangulo(rotulo:string, paiRef:Objeto, ptoInfEsq:Ponto4D, ptoSupDir:Ponto4D)</text><ellipse cx="753" cy="429.9551" fill="#84BE84" rx="3" ry="3" style="stroke:#038048;stroke-width:1.0;"/><text fill="#000000" font-family="sans-serif" font-size="11" lengthAdjust="spacing" textLength="155" x="762" y="433.5898">«override» ToString() : string</text><!--MD5=[7285b5824e67b16848be7ff6288389e6]
class Utilitario--><rect codeLine="34" fill="#FEFECE" filter="url(#f7j646infz2c2)" height="60.9551" id="Utilitario" style="stroke:#A80036;stroke-width:1.5;" width="139" x="231" y="33"/><ellipse cx="273" cy="49" fill="#A9DCDF" rx="11" ry="11" style="stroke:#A80036;stroke-width:1.0;"/><path d="M272.8633,44.3481 L271.7095,49.4199 L274.0254,49.4199 Z M271.3691,42.1069 L274.3657,42.1069 L277.7109,54.5 L275.2622,54.5 L274.4985,51.437 L271.2197,51.437 L270.4727,54.5 L268.0239,54.5 Z " fill="#000000"/><text fill="#000000" font-family="sans-serif" font-size="12" font-style="italic" lengthAdjust="spacing" textLength="47" x="293" y="53.5352">Utilitario</text><line style="stroke:#A80036;stroke-width:1.5;" x1="232" x2="369" y1="65" y2="65"/><line style="stroke:#A80036;stroke-width:1.5;" x1="232" x2="369" y1="73" y2="73"/><ellipse cx="242" cy="84" fill="#84BE84" rx="3" ry="3" style="stroke:#038048;stroke-width:1.0;"/><text fill="#000000" font-family="sans-serif" font-size="11" lengthAdjust="spacing" text-decoration="underline" textLength="113" x="251" y="87.6348">AjudaTeclado() : void</text><!--MD5=[5650d724fe4a8bb070f5bb710507d40c]
class Privado_BBox--><rect codeLine="37" fill="#FEFECE" filter="url(#f7j646infz2c2)" height="60.9551" id="Privado_BBox" style="stroke:#A80036;stroke-width:1.5;" width="233" x="7" y="212.5"/><ellipse cx="80.75" cy="228.5" fill="#A9DCDF" rx="11" ry="11" style="stroke:#A80036;stroke-width:1.0;"/><path d="M80.6133,223.8481 L79.4595,228.9199 L81.7754,228.9199 Z M79.1191,221.6069 L82.1157,221.6069 L85.4609,234 L83.0122,234 L82.2485,230.937 L78.9697,230.937 L78.2227,234 L75.7739,234 Z " fill="#000000"/><text fill="#000000" font-family="sans-serif" font-size="12" font-style="italic" lengthAdjust="spacing" textLength="77" x="101.25" y="233.0352">Privado_BBox</text><line style="stroke:#A80036;stroke-width:1.5;" x1="8" x2="239" y1="244.5" y2="244.5"/><line style="stroke:#A80036;stroke-width:1.5;" x1="8" x2="239" y1="252.5" y2="252.5"/><ellipse cx="18" cy="263.5" fill="#84BE84" rx="3" ry="3" style="stroke:#038048;stroke-width:1.0;"/><text fill="#000000" font-family="sans-serif" font-size="11" lengthAdjust="spacing" text-decoration="underline" textLength="207" x="27" y="267.1348">Dentro(bBox:BBox, pto:Ponto4D) : bool</text><!--MD5=[c3c34a12a27bba7e909822120bf61f6f]
class Privado_Circulo--><rect codeLine="40" fill="#FEFECE" filter="url(#f7j646infz2c2)" height="73.9102" id="Privado_Circulo" style="stroke:#A80036;stroke-width:1.5;" width="442" x="1226.5" y="366"/><ellipse cx="1399.25" cy="382" fill="#ADD1B2" rx="11" ry="11" style="stroke:#A80036;stroke-width:1.0;"/><path d="M1401.7231,388.1431 Q1401.1421,388.4419 1400.5029,388.5913 Q1399.8638,388.7407 1399.1582,388.7407 Q1396.6514,388.7407 1395.3315,387.0889 Q1394.0117,385.437 1394.0117,382.3159 Q1394.0117,379.1865 1395.3315,377.5347 Q1396.6514,375.8828 1399.1582,375.8828 Q1399.8638,375.8828 1400.5112,376.0322 Q1401.1587,376.1816 1401.7231,376.4805 L1401.7231,379.2031 Q1401.0923,378.6221 1400.4988,378.3523 Q1399.9053,378.0825 1399.2744,378.0825 Q1397.9297,378.0825 1397.2449,379.1492 Q1396.5601,380.2158 1396.5601,382.3159 Q1396.5601,384.4077 1397.2449,385.4744 Q1397.9297,386.541 1399.2744,386.541 Q1399.9053,386.541 1400.4988,386.2712 Q1401.0923,386.0015 1401.7231,385.4204 Z " fill="#000000"/><text fill="#000000" font-family="sans-serif" font-size="12" lengthAdjust="spacing" textLength="88" x="1419.75" y="386.5352">Privado_Circulo</text><line style="stroke:#A80036;stroke-width:1.5;" x1="1227.5" x2="1667.5" y1="398" y2="398"/><line style="stroke:#A80036;stroke-width:1.5;" x1="1227.5" x2="1667.5" y1="406" y2="406"/><ellipse cx="1237.5" cy="417" fill="#84BE84" rx="3" ry="3" style="stroke:#038048;stroke-width:1.0;"/><text fill="#000000" font-family="sans-serif" font-size="11" lengthAdjust="spacing" textLength="416" x="1246.5" y="420.6348">Privado_Circulo(rotulo:string, paiRef:Objeto, ptoCentro:Ponto4D, raio:double)</text><ellipse cx="1237.5" cy="429.9551" fill="#84BE84" rx="3" ry="3" style="stroke:#038048;stroke-width:1.0;"/><text fill="#000000" font-family="sans-serif" font-size="11" lengthAdjust="spacing" textLength="155" x="1246.5" y="433.5898">«override» ToString() : string</text><!--MD5=[00d138ea5291476c72e7cf5c7f606832]
class Privado_Matematica--><rect codeLine="45" fill="#FEFECE" filter="url(#f7j646infz2c2)" height="112.7754" id="Privado_Matematica" style="stroke:#A80036;stroke-width:1.5;" width="393" x="275" y="186.5"/><ellipse cx="409.75" cy="202.5" fill="#A9DCDF" rx="11" ry="11" style="stroke:#A80036;stroke-width:1.0;"/><path d="M409.6133,197.8481 L408.4595,202.9199 L410.7754,202.9199 Z M408.1191,195.6069 L411.1157,195.6069 L414.4609,208 L412.0122,208 L411.2485,204.937 L407.9697,204.937 L407.2227,208 L404.7739,208 Z " fill="#000000"/><text fill="#000000" font-family="sans-serif" font-size="12" font-style="italic" lengthAdjust="spacing" textLength="115" x="430.25" y="207.0352">Privado_Matematica</text><line style="stroke:#A80036;stroke-width:1.5;" x1="276" x2="667" y1="218.5" y2="218.5"/><line style="stroke:#A80036;stroke-width:1.5;" x1="276" x2="667" y1="226.5" y2="226.5"/><ellipse cx="286" cy="237.5" fill="#84BE84" rx="3" ry="3" style="stroke:#038048;stroke-width:1.0;"/><text fill="#000000" font-family="sans-serif" font-size="11" lengthAdjust="spacing" text-decoration="underline" textLength="311" x="295" y="241.1348">DistanciaEuclidiana(pto1:Ponto4D, pto2:Ponto4D) : double</text><ellipse cx="286" cy="250.4551" fill="#84BE84" rx="3" ry="3" style="stroke:#038048;stroke-width:1.0;"/><text fill="#000000" font-family="sans-serif" font-size="11" lengthAdjust="spacing" text-decoration="underline" textLength="355" x="295" y="254.0898">DistanciaEuclidianaSemRaiz(pto1:Ponto4D, pto2:Ponto4D) : double</text><ellipse cx="286" cy="263.4102" fill="#84BE84" rx="3" ry="3" style="stroke:#038048;stroke-width:1.0;"/><text fill="#000000" font-family="sans-serif" font-size="11" lengthAdjust="spacing" text-decoration="underline" textLength="330" x="295" y="267.0449">ScanLineInterseccao(yi:double, y1:double, y2:double) : double</text><ellipse cx="286" cy="276.3652" fill="#84BE84" rx="3" ry="3" style="stroke:#038048;stroke-width:1.0;"/><text fill="#000000" font-family="sans-serif" font-size="11" lengthAdjust="spacing" text-decoration="underline" textLength="317" x="295" y="280">ScanLineCalculaXi(x1:double, x2:double, ti:double) : double</text><ellipse cx="286" cy="289.3203" fill="#84BE84" rx="3" ry="3" style="stroke:#038048;stroke-width:1.0;"/><text fill="#000000" font-family="sans-serif" font-size="11" lengthAdjust="spacing" text-decoration="underline" textLength="367" x="295" y="292.9551">ScanLine(ptoClique:Ponto4D, ptoIni:Ponto4D, ptoFim:Ponto4D) : bool</text><!--MD5=[48de76ac9e45cd2dd14a095e4e7d40a3]
class Privado_SegReta--><rect codeLine="52" fill="#FEFECE" filter="url(#f7j646infz2c2)" height="73.9102" id="Privado_SegReta" style="stroke:#A80036;stroke-width:1.5;" width="446" x="1703.5" y="366"/><ellipse cx="1874.75" cy="382" fill="#ADD1B2" rx="11" ry="11" style="stroke:#A80036;stroke-width:1.0;"/><path d="M1877.2231,388.1431 Q1876.6421,388.4419 1876.0029,388.5913 Q1875.3638,388.7407 1874.6582,388.7407 Q1872.1514,388.7407 1870.8315,387.0889 Q1869.5117,385.437 1869.5117,382.3159 Q1869.5117,379.1865 1870.8315,377.5347 Q1872.1514,375.8828 1874.6582,375.8828 Q1875.3638,375.8828 1876.0112,376.0322 Q1876.6587,376.1816 1877.2231,376.4805 L1877.2231,379.2031 Q1876.5923,378.6221 1875.9988,378.3523 Q1875.4053,378.0825 1874.7744,378.0825 Q1873.4297,378.0825 1872.7449,379.1492 Q1872.0601,380.2158 1872.0601,382.3159 Q1872.0601,384.4077 1872.7449,385.4744 Q1873.4297,386.541 1874.7744,386.541 Q1875.4053,386.541 1875.9988,386.2712 Q1876.5923,386.0015 1877.2231,385.4204 Z " fill="#000000"/><text fill="#000000" font-family="sans-serif" font-size="12" lengthAdjust="spacing" textLength="95" x="1895.25" y="386.5352">Privado_SegReta</text><line style="stroke:#A80036;stroke-width:1.5;" x1="1704.5" x2="2148.5" y1="398" y2="398"/><line style="stroke:#A80036;stroke-width:1.5;" x1="1704.5" x2="2148.5" y1="406" y2="406"/><ellipse cx="1714.5" cy="417" fill="#84BE84" rx="3" ry="3" style="stroke:#038048;stroke-width:1.0;"/><text fill="#000000" font-family="sans-serif" font-size="11" lengthAdjust="spacing" textLength="420" x="1723.5" y="420.6348">Privado_SegReta(rotulo:string, paiRef:Objeto, ptoIni:Ponto4D, ptoFim:Ponto4D)</text><ellipse cx="1714.5" cy="429.9551" fill="#84BE84" rx="3" ry="3" style="stroke:#038048;stroke-width:1.0;"/><text fill="#000000" font-family="sans-serif" font-size="11" lengthAdjust="spacing" textLength="155" x="1723.5" y="433.5898">«override» ToString() : string</text><!--MD5=[3c0e7ba23ee97378347dee0d1da8e8b4]
reverse link GameWindow to Mundo--><path codeLine="9" d="M826.5,108.0425 C826.5,135.8734 826.5,171.5537 826.5,199.2364 " fill="none" id="GameWindow-backto-Mundo" style="stroke:#A80036;stroke-width:1.0;"/><polygon fill="none" points="819.5001,107.7082,826.5,87.7082,833.5001,107.7081,819.5001,107.7082" style="stroke:#A80036;stroke-width:1.0;"/><!--MD5=[abb974133f481326665ca9332982bcdd]
link Objeto to Cor--><path codeLine="17" d="M1116.1034,120.1439 C1095.2966,138.3019 1073.123,159.1347 1054.5,180 C1045.0106,190.632 1035.7795,203.3602 1028.2434,214.5842 " fill="none" id="Objeto-to-Cor" style="stroke:#A80036;stroke-width:1.0;"/><polygon fill="#A80036" points="1025.3352,218.966,1033.6447,213.6791,1028.1001,214.8,1026.9791,209.2553,1025.3352,218.966" style="stroke:#A80036;stroke-width:1.0;"/><text fill="#000000" font-family="sans-serif" font-size="13" lengthAdjust="spacing" textLength="64" x="956.7222" y="208.1013">ObjetoCor</text><!--MD5=[7e8630a5cd5ea67eab064634d547f460]
link Objeto to PrimitiveType--><path codeLine="18" d="M1167.5156,120.2949 C1157.0872,151.4933 1144.5965,188.8613 1136.1609,214.0979 " fill="none" id="Objeto-to-PrimitiveType" style="stroke:#A80036;stroke-width:1.0;"/><polygon fill="#A80036" points="1134.5296,218.9781,1141.1765,211.7104,1136.1147,214.236,1133.5892,209.1742,1134.5296,218.9781" style="stroke:#A80036;stroke-width:1.0;"/><text fill="#000000" font-family="sans-serif" font-size="13" lengthAdjust="spacing" textLength="83" x="1042.5344" y="208.1167">PrimitivaTipo</text><!--MD5=[ff34dbfed28166dc938de446fd84e6c0]
link Objeto to BBox--><path codeLine="19" d="M1205.4844,120.2949 C1215.9128,151.4933 1228.4035,188.8613 1236.8391,214.0979 " fill="none" id="Objeto-to-BBox" style="stroke:#A80036;stroke-width:1.0;"/><polygon fill="#A80036" points="1238.4704,218.9781,1239.4108,209.1742,1236.8853,214.236,1231.8235,211.7104,1238.4704,218.9781" style="stroke:#A80036;stroke-width:1.0;"/><text fill="#000000" font-family="sans-serif" font-size="13" lengthAdjust="spacing" textLength="30" x="1202.2812" y="208.1167">BBox</text><!--MD5=[a03c7e7dbc7aa919221c9dfab59c60ca]
reverse link Objeto to ObjetoGeometria--><path codeLine="28" d="M1285.2609,131.4218 C1308.3771,147.3197 1332.9077,164.1904 1355.7056,179.8693 " fill="none" id="Objeto-backto-ObjetoGeometria" style="stroke:#A80036;stroke-width:1.0;"/><polygon fill="none" points="1281.2361,137.1495,1268.7238,120.0485,1289.1695,125.6142,1281.2361,137.1495" style="stroke:#A80036;stroke-width:1.0;"/><!--MD5=[26236c37487edb4672de193cef5bd1db]
reverse link ObjetoGeometria to Retangulo--><path codeLine="33" d="M1292.1176,306.6437 C1220.9388,331.3651 1157.5559,350.4603 1103.1525,365.9953 " fill="none" id="ObjetoGeometria-backto-Retangulo" style="stroke:#A80036;stroke-width:1.0;"/><polygon fill="none" points="1290.1958,299.8996,1311.3855,299.88,1294.833,313.1094,1290.1958,299.8996" style="stroke:#A80036;stroke-width:1.0;"/><!--MD5=[17d508597094ccb24ae336549ba236e1]
reverse link ObjetoGeometria to Privado_Circulo--><path codeLine="44" d="M1447.5,326.2995 C1447.5,340.0596 1447.5,353.6893 1447.5,365.5566 " fill="none" id="ObjetoGeometria-backto-Privado_Circulo" style="stroke:#A80036;stroke-width:1.0;"/><polygon fill="none" points="1440.5001,326.2363,1447.5,306.2362,1454.5001,326.2362,1440.5001,326.2363" style="stroke:#A80036;stroke-width:1.0;"/><!--MD5=[fba79b035eb861c3c10e58ba51297e23]
reverse link ObjetoGeometria to Privado_SegReta--><path codeLine="56" d="M1603.0256,294.9501 C1672.2752,318.0815 1752.2491,344.7951 1815.3514,365.8731 " fill="none" id="ObjetoGeometria-backto-Privado_SegReta" style="stroke:#A80036;stroke-width:1.0;"/><polygon fill="none" points="1600.5529,301.5044,1583.8009,288.5285,1604.9884,288.2256,1600.5529,301.5044" style="stroke:#A80036;stroke-width:1.0;"/><!--MD5=[f27b583df302a89d5daf80cd5e408a8e]
link Program to Utilitario--><!--MD5=[0b84fea3b2a329a095e27776a40bc1a2]
link Program to Privado_BBox--><!--MD5=[ea508825cc65aaf53e737e4dff81f04a]
link Privado_BBox to Privado_Matematica--><!--MD5=[5e2b35a14b48beeb3742bb4bef866ce8]
@startuml CG_N2
class Mundo {
    + {static} GetInstance(width:int, height:int) : Mundo
    mouseX : int
    mouseY : int
}
class Program {
    {static} Main(args:string[]) : void
}
GameWindow <|- - Mundo
abstract class Objeto {
    + PrimitivaTamanho : float <<get>> <<set>>
    + Objeto(rotulo:string, paiRef:Objeto)
    + Desenhar() : void
    + FilhoAdicionar(filho:Objeto) : void
    + FilhoRemover(filho:Objeto) : void
}
Objeto - -> "ObjetoCor" Cor
Objeto - -> "PrimitivaTipo" PrimitiveType
Objeto - -> "BBox" BBox
abstract class ObjetoGeometria {
    + ObjetoGeometria(rotulo:string, paiRef:Objeto)
    + PontosAdicionar(pto:Ponto4D) : void
    + PontosRemoverUltimo() : void
    + PontosUltimo() : Ponto4D
    + PontosAlterar(pto:Ponto4D, posicao:int) : void
    + <<override>> ToString() : string
}
Objeto <|- - ObjetoGeometria
class Retangulo {
    + Retangulo(rotulo:string, paiRef:Objeto, ptoInfEsq:Ponto4D, ptoSupDir:Ponto4D)
    + <<override>> ToString() : string
}
ObjetoGeometria <|- - Retangulo
abstract class Utilitario {
    + {static} AjudaTeclado() : void
}
abstract class Privado_BBox {
    + {static} Dentro(bBox:BBox, pto:Ponto4D) : bool
}
class Privado_Circulo {
    + Privado_Circulo(rotulo:string, paiRef:Objeto, ptoCentro:Ponto4D, raio:double)
    + <<override>> ToString() : string
}
ObjetoGeometria <|- - Privado_Circulo
abstract class Privado_Matematica {
    + {static} DistanciaEuclidiana(pto1:Ponto4D, pto2:Ponto4D) : double
    + {static} DistanciaEuclidianaSemRaiz(pto1:Ponto4D, pto2:Ponto4D) : double
    + {static} ScanLineInterseccao(yi:double, y1:double, y2:double) : double
    + {static} ScanLineCalculaXi(x1:double, x2:double, ti:double) : double
    + {static} ScanLine(ptoClique:Ponto4D, ptoIni:Ponto4D, ptoFim:Ponto4D) : bool
}
class Privado_SegReta {
    + Privado_SegReta(rotulo:string, paiRef:Objeto, ptoIni:Ponto4D, ptoFim:Ponto4D)
    + <<override>> ToString() : string
}
ObjetoGeometria <|- - Privado_SegReta
@enduml

PlantUML version 1.2022.0(Tue Jan 11 13:16:42 BRT 2022)
(GPL source distribution)
Java Runtime: OpenJDK Runtime Environment
JVM: OpenJDK 64-Bit Server VM
Default Encoding: UTF-8
Language: en
Country: BR
--></g></svg>