<?xml version="1.0" encoding="UTF-8" standalone="no"?><svg xmlns="http://www.w3.org/2000/svg" xmlns:xlink="http://www.w3.org/1999/xlink" contentScriptType="application/ecmascript" contentStyleType="text/css" height="228px" preserveAspectRatio="none" style="width:378px;height:228px;background:#FFFFFF;" version="1.1" viewBox="0 0 378 228" width="378px" zoomAndPan="magnify"><defs><filter height="300%" id="fstfmcadbp8hi" width="300%" x="-1" y="-1"><feGaussianBlur result="blurOut" stdDeviation="2.0"/><feColorMatrix in="blurOut" result="blurOut2" type="matrix" values="0 0 0 0 0 0 0 0 0 0 0 0 0 0 0 0 0 0 .4 0"/><feOffset dx="4.0" dy="4.0" in="blurOut2" result="blurOut3"/><feBlend in="SourceGraphic" in2="blurOut3" mode="normal"/></filter></defs><g><!--MD5=[919386ce46a6a5a7c71af782f732246a]
class Mundo--><rect codeLine="1" fill="#FEFECE" filter="url(#fstfmcadbp8hi)" height="86.8652" id="Mundo" style="stroke:#A80036;stroke-width:1.5;" width="246" x="7" y="128"/><ellipse cx="106.25" cy="144" fill="#ADD1B2" rx="11" ry="11" style="stroke:#A80036;stroke-width:1.0;"/><path d="M108.7231,150.1431 Q108.1421,150.4419 107.5029,150.5913 Q106.8638,150.7407 106.1582,150.7407 Q103.6514,150.7407 102.3315,149.0889 Q101.0117,147.437 101.0117,144.3159 Q101.0117,141.1865 102.3315,139.5347 Q103.6514,137.8828 106.1582,137.8828 Q106.8638,137.8828 107.5112,138.0322 Q108.1587,138.1816 108.7231,138.4805 L108.7231,141.2031 Q108.0923,140.6221 107.4988,140.3523 Q106.9053,140.0825 106.2744,140.0825 Q104.9297,140.0825 104.2449,141.1492 Q103.5601,142.2158 103.5601,144.3159 Q103.5601,146.4077 104.2449,147.4744 Q104.9297,148.541 106.2744,148.541 Q106.9053,148.541 107.4988,148.2712 Q108.0923,148.0015 108.7231,147.4204 Z " fill="#000000"/><text fill="#000000" font-family="sans-serif" font-size="12" lengthAdjust="spacing" textLength="39" x="126.75" y="148.5352">Mundo</text><line style="stroke:#A80036;stroke-width:1.5;" x1="8" x2="252" y1="160" y2="160"/><text fill="#000000" font-family="sans-serif" font-size="11" lengthAdjust="spacing" textLength="66" x="13" y="174.6348">mouseX : int</text><text fill="#000000" font-family="sans-serif" font-size="11" lengthAdjust="spacing" textLength="66" x="13" y="187.5898">mouseY : int</text><line style="stroke:#A80036;stroke-width:1.5;" x1="8" x2="252" y1="193.9102" y2="193.9102"/><ellipse cx="18" cy="204.9102" fill="#84BE84" rx="3" ry="3" style="stroke:#038048;stroke-width:1.0;"/><text fill="#000000" font-family="sans-serif" font-size="11" lengthAdjust="spacing" text-decoration="underline" textLength="220" x="27" y="208.5449">GetInstance(width:int, height:int) : Mundo</text><!--MD5=[175f95e045c1a44aed0b30df3abe0e5c]
class Program--><rect codeLine="6" fill="#FEFECE" filter="url(#fstfmcadbp8hi)" height="60.9551" id="Program" style="stroke:#A80036;stroke-width:1.5;" width="144" x="220" y="7"/><ellipse cx="263.35" cy="23" fill="#ADD1B2" rx="11" ry="11" style="stroke:#A80036;stroke-width:1.0;"/><path d="M265.8231,29.1431 Q265.2421,29.4419 264.6029,29.5913 Q263.9638,29.7407 263.2582,29.7407 Q260.7514,29.7407 259.4315,28.0889 Q258.1117,26.437 258.1117,23.3159 Q258.1117,20.1865 259.4315,18.5347 Q260.7514,16.8828 263.2582,16.8828 Q263.9638,16.8828 264.6112,17.0322 Q265.2587,17.1816 265.8231,17.4805 L265.8231,20.2031 Q265.1923,19.6221 264.5988,19.3523 Q264.0053,19.0825 263.3744,19.0825 Q262.0297,19.0825 261.3449,20.1492 Q260.6601,21.2158 260.6601,23.3159 Q260.6601,25.4077 261.3449,26.4744 Q262.0297,27.541 263.3744,27.541 Q264.0053,27.541 264.5988,27.2712 Q265.1923,27.0015 265.8231,26.4204 Z " fill="#000000"/><text fill="#000000" font-family="sans-serif" font-size="12" lengthAdjust="spacing" textLength="49" x="283.65" y="27.5352">Program</text><line style="stroke:#A80036;stroke-width:1.5;" x1="221" x2="363" y1="39" y2="39"/><line style="stroke:#A80036;stroke-width:1.5;" x1="221" x2="363" y1="47" y2="47"/><text fill="#000000" font-family="sans-serif" font-size="11" lengthAdjust="spacing" text-decoration="underline" textLength="132" x="226" y="61.6348">Main(args:string[]) : void</text><!--MD5=[d0074d293e9645ff4ed5f25f47c5773b]
class GameWindow--><rect fill="#FEFECE" filter="url(#fstfmcadbp8hi)" height="48" id="GameWindow" style="stroke:#A80036;stroke-width:1.5;" width="110" x="75" y="13.5"/><ellipse cx="90" cy="29.5" fill="#ADD1B2" rx="11" ry="11" style="stroke:#A80036;stroke-width:1.0;"/><path d="M92.4731,35.6431 Q91.8921,35.9419 91.2529,36.0913 Q90.6138,36.2407 89.9082,36.2407 Q87.4014,36.2407 86.0815,34.5889 Q84.7617,32.937 84.7617,29.8159 Q84.7617,26.6865 86.0815,25.0347 Q87.4014,23.3828 89.9082,23.3828 Q90.6138,23.3828 91.2612,23.5322 Q91.9087,23.6816 92.4731,23.9805 L92.4731,26.7031 Q91.8423,26.1221 91.2488,25.8523 Q90.6553,25.5825 90.0244,25.5825 Q88.6797,25.5825 87.9949,26.6492 Q87.3101,27.7158 87.3101,29.8159 Q87.3101,31.9077 87.9949,32.9744 Q88.6797,34.041 90.0244,34.041 Q90.6553,34.041 91.2488,33.7712 Q91.8423,33.5015 92.4731,32.9204 Z " fill="#000000"/><text fill="#000000" font-family="sans-serif" font-size="12" lengthAdjust="spacing" textLength="78" x="104" y="34.0352">GameWindow</text><line style="stroke:#A80036;stroke-width:1.5;" x1="76" x2="184" y1="45.5" y2="45.5"/><line style="stroke:#A80036;stroke-width:1.5;" x1="76" x2="184" y1="53.5" y2="53.5"/><!--MD5=[3c0e7ba23ee97378347dee0d1da8e8b4]
reverse link GameWindow to Mundo--><path codeLine="9" d="M130,81.8695 C130,96.6772 130,113.156 130,127.9043 " fill="none" id="GameWindow-backto-Mundo" style="stroke:#A80036;stroke-width:1.0;"/><polygon fill="none" points="123.0001,81.7664,130,61.7664,137.0001,81.7664,123.0001,81.7664" style="stroke:#A80036;stroke-width:1.0;"/><!--MD5=[0bdd4ace1ff9d4b27027c72d8b19be20]
@startuml Mundo
class Mundo {
    + {static} GetInstance(width:int, height:int) : Mundo
    mouseX : int
    mouseY : int
}
class Program {
    {static} Main(args:string[]) : void
}
GameWindow <|- - Mundo
@enduml

PlantUML version 1.2022.0(Tue Jan 11 13:16:42 BRT 2022)
(GPL source distribution)
Java Runtime: OpenJDK Runtime Environment
JVM: OpenJDK 64-Bit Server VM
Default Encoding: UTF-8
Language: en
Country: BR
--></g></svg>