<?xml version="1.0" encoding="UTF-8" standalone="no"?><svg xmlns="http://www.w3.org/2000/svg" xmlns:xlink="http://www.w3.org/1999/xlink" contentScriptType="application/ecmascript" contentStyleType="text/css" height="242px" preserveAspectRatio="none" style="width:332px;height:242px;background:#FFFFFF;" version="1.1" viewBox="0 0 332 242" width="332px" zoomAndPan="magnify"><defs><filter height="300%" id="f1s60gb57r9ckj" width="300%" x="-1" y="-1"><feGaussianBlur result="blurOut" stdDeviation="2.0"/><feColorMatrix in="blurOut" result="blurOut2" type="matrix" values="0 0 0 0 0 0 0 0 0 0 0 0 0 0 0 0 0 0 .4 0"/><feOffset dx="4.0" dy="4.0" in="blurOut2" result="blurOut3"/><feBlend in="SourceGraphic" in2="blurOut3" mode="normal"/></filter></defs><g><!--MD5=[3051a6a8f877a755a60c7cfd1e6f410a]
class Objeto--><rect codeLine="1" fill="#FEFECE" filter="url(#f1s60gb57r9ckj)" height="112.7754" id="Objeto" style="stroke:#A80036;stroke-width:1.5;" width="218" x="59.9933" y="7"/><ellipse cx="145.2433" cy="23" fill="#A9DCDF" rx="11" ry="11" style="stroke:#A80036;stroke-width:1.0;"/><path d="M145.1066,18.3481 L143.9528,23.4199 L146.2687,23.4199 Z M143.6125,16.1069 L146.6091,16.1069 L149.9543,28.5 L147.5056,28.5 L146.7419,25.437 L143.4631,25.437 L142.716,28.5 L140.2673,28.5 Z " fill="#000000"/><text fill="#000000" font-family="sans-serif" font-size="12" font-style="italic" lengthAdjust="spacing" textLength="39" x="165.7433" y="27.5352">Objeto</text><line style="stroke:#A80036;stroke-width:1.5;" x1="60.9933" x2="276.9933" y1="39" y2="39"/><ellipse cx="70.9933" cy="50" rx="3" ry="3" style="stroke:#038048;stroke-width:1.0;fill:none;"/><text fill="#000000" font-family="sans-serif" font-size="11" lengthAdjust="spacing" textLength="192" x="79.9933" y="53.6348">PrimitivaTamanho : float «get» «set»</text><line style="stroke:#A80036;stroke-width:1.5;" x1="60.9933" x2="276.9933" y1="59.9551" y2="59.9551"/><ellipse cx="70.9933" cy="70.9551" fill="#84BE84" rx="3" ry="3" style="stroke:#038048;stroke-width:1.0;"/><text fill="#000000" font-family="sans-serif" font-size="11" lengthAdjust="spacing" textLength="190" x="79.9933" y="74.5898">Objeto(rotulo:string, paiRef:Objeto)</text><ellipse cx="70.9933" cy="83.9102" fill="#84BE84" rx="3" ry="3" style="stroke:#038048;stroke-width:1.0;"/><text fill="#000000" font-family="sans-serif" font-size="11" lengthAdjust="spacing" textLength="91" x="79.9933" y="87.5449">Desenhar() : void</text><ellipse cx="70.9933" cy="96.8652" fill="#84BE84" rx="3" ry="3" style="stroke:#038048;stroke-width:1.0;"/><text fill="#000000" font-family="sans-serif" font-size="11" lengthAdjust="spacing" textLength="181" x="79.9933" y="100.5">FilhoAdicionar(filho:Objeto) : void</text><ellipse cx="70.9933" cy="109.8203" fill="#84BE84" rx="3" ry="3" style="stroke:#038048;stroke-width:1.0;"/><text fill="#000000" font-family="sans-serif" font-size="11" lengthAdjust="spacing" textLength="176" x="79.9933" y="113.4551">FilhoRemover(filho:Objeto) : void</text><!--MD5=[9ac43fafcd0ede942dc8e681a30a1b52]
class Cor--><rect fill="#FEFECE" filter="url(#f1s60gb57r9ckj)" height="48" id="Cor" style="stroke:#A80036;stroke-width:1.5;" width="52" x="26.9933" y="180"/><ellipse cx="41.9933" cy="196" fill="#ADD1B2" rx="11" ry="11" style="stroke:#A80036;stroke-width:1.0;"/><path d="M44.4665,202.1431 Q43.8854,202.4419 43.2463,202.5913 Q42.6071,202.7407 41.9015,202.7407 Q39.3947,202.7407 38.0749,201.0889 Q36.7551,199.437 36.7551,196.3159 Q36.7551,193.1865 38.0749,191.5347 Q39.3947,189.8828 41.9015,189.8828 Q42.6071,189.8828 43.2546,190.0322 Q43.902,190.1816 44.4665,190.4805 L44.4665,193.2031 Q43.8356,192.6221 43.2421,192.3523 Q42.6486,192.0825 42.0178,192.0825 Q40.673,192.0825 39.9882,193.1492 Q39.3034,194.2158 39.3034,196.3159 Q39.3034,198.4077 39.9882,199.4744 Q40.673,200.541 42.0178,200.541 Q42.6486,200.541 43.2421,200.2712 Q43.8356,200.0015 44.4665,199.4204 Z " fill="#000000"/><text fill="#000000" font-family="sans-serif" font-size="12" lengthAdjust="spacing" textLength="20" x="55.9933" y="200.5352">Cor</text><line style="stroke:#A80036;stroke-width:1.5;" x1="27.9933" x2="77.9933" y1="212" y2="212"/><line style="stroke:#A80036;stroke-width:1.5;" x1="27.9933" x2="77.9933" y1="220" y2="220"/><!--MD5=[38e8fced9e943fac45fdba9ac5db991f]
class PrimitiveType--><rect fill="#FEFECE" filter="url(#f1s60gb57r9ckj)" height="48" id="PrimitiveType" style="stroke:#A80036;stroke-width:1.5;" width="110" x="113.9933" y="180"/><ellipse cx="128.9933" cy="196" fill="#ADD1B2" rx="11" ry="11" style="stroke:#A80036;stroke-width:1.0;"/><path d="M131.4665,202.1431 Q130.8854,202.4419 130.2463,202.5913 Q129.6071,202.7407 128.9015,202.7407 Q126.3947,202.7407 125.0749,201.0889 Q123.7551,199.437 123.7551,196.3159 Q123.7551,193.1865 125.0749,191.5347 Q126.3947,189.8828 128.9015,189.8828 Q129.6071,189.8828 130.2546,190.0322 Q130.902,190.1816 131.4665,190.4805 L131.4665,193.2031 Q130.8356,192.6221 130.2421,192.3523 Q129.6486,192.0825 129.0178,192.0825 Q127.673,192.0825 126.9882,193.1492 Q126.3034,194.2158 126.3034,196.3159 Q126.3034,198.4077 126.9882,199.4744 Q127.673,200.541 129.0178,200.541 Q129.6486,200.541 130.2421,200.2712 Q130.8356,200.0015 131.4665,199.4204 Z " fill="#000000"/><text fill="#000000" font-family="sans-serif" font-size="12" lengthAdjust="spacing" textLength="78" x="142.9933" y="200.5352">PrimitiveType</text><line style="stroke:#A80036;stroke-width:1.5;" x1="114.9933" x2="222.9933" y1="212" y2="212"/><line style="stroke:#A80036;stroke-width:1.5;" x1="114.9933" x2="222.9933" y1="220" y2="220"/><!--MD5=[ea10f8dc465baf5e542f54928f2443c8]
class BBox--><rect fill="#FEFECE" filter="url(#f1s60gb57r9ckj)" height="48" id="BBox" style="stroke:#A80036;stroke-width:1.5;" width="60" x="258.9933" y="180"/><ellipse cx="273.9933" cy="196" fill="#ADD1B2" rx="11" ry="11" style="stroke:#A80036;stroke-width:1.0;"/><path d="M276.4665,202.1431 Q275.8854,202.4419 275.2463,202.5913 Q274.6071,202.7407 273.9015,202.7407 Q271.3947,202.7407 270.0749,201.0889 Q268.7551,199.437 268.7551,196.3159 Q268.7551,193.1865 270.0749,191.5347 Q271.3947,189.8828 273.9015,189.8828 Q274.6071,189.8828 275.2546,190.0322 Q275.902,190.1816 276.4665,190.4805 L276.4665,193.2031 Q275.8356,192.6221 275.2421,192.3523 Q274.6486,192.0825 274.0178,192.0825 Q272.673,192.0825 271.9882,193.1492 Q271.3034,194.2158 271.3034,196.3159 Q271.3034,198.4077 271.9882,199.4744 Q272.673,200.541 274.0178,200.541 Q274.6486,200.541 275.2421,200.2712 Q275.8356,200.0015 276.4665,199.4204 Z " fill="#000000"/><text fill="#000000" font-family="sans-serif" font-size="12" lengthAdjust="spacing" textLength="28" x="287.9933" y="200.5352">BBox</text><line style="stroke:#A80036;stroke-width:1.5;" x1="259.9933" x2="317.9933" y1="212" y2="212"/><line style="stroke:#A80036;stroke-width:1.5;" x1="259.9933" x2="317.9933" y1="220" y2="220"/><!--MD5=[abb974133f481326665ca9332982bcdd]
link Objeto to Cor--><path codeLine="8" d="M122.1461,120.2417 C106.379,139.3389 89.4693,159.82 76.3179,175.7491 " fill="none" id="Objeto-to-Cor" style="stroke:#A80036;stroke-width:1.0;"/><polygon fill="#A80036" points="73.0583,179.6972,81.873,175.3037,76.2417,175.8415,75.7039,170.2103,73.0583,179.6972" style="stroke:#A80036;stroke-width:1.0;"/><text fill="#000000" font-family="sans-serif" font-size="13" lengthAdjust="spacing" textLength="64" x="6" y="169.1559">ObjetoCor</text><!--MD5=[7e8630a5cd5ea67eab064634d547f460]
link Objeto to PrimitiveType--><path codeLine="9" d="M168.9933,120.2417 C168.9933,138.8533 168.9933,158.7795 168.9933,174.5254 " fill="none" id="Objeto-to-PrimitiveType" style="stroke:#A80036;stroke-width:1.0;"/><polygon fill="#A80036" points="168.9933,179.6972,172.9933,170.6972,168.9933,174.6972,164.9933,170.6972,168.9933,179.6972" style="stroke:#A80036;stroke-width:1.0;"/><text fill="#000000" font-family="sans-serif" font-size="13" lengthAdjust="spacing" textLength="83" x="77.6864" y="169.3991">PrimitivaTipo</text><!--MD5=[ff34dbfed28166dc938de446fd84e6c0]
link Objeto to BBox--><path codeLine="10" d="M217.456,120.2417 C233.7667,139.3389 251.2596,159.82 264.8645,175.7491 " fill="none" id="Objeto-to-BBox" style="stroke:#A80036;stroke-width:1.0;"/><polygon fill="#A80036" points="268.2365,179.6972,265.433,170.2558,264.9893,175.8952,259.3498,175.4514,268.2365,179.6972" style="stroke:#A80036;stroke-width:1.0;"/><text fill="#000000" font-family="sans-serif" font-size="13" lengthAdjust="spacing" textLength="30" x="229.0739" y="169.1559">BBox</text><!--MD5=[278654ffd9db42d4ca7c746483e56003]
@startuml Objeto
abstract class Objeto {
    + PrimitivaTamanho : float <<get>> <<set>>
    + Objeto(rotulo:string, paiRef:Objeto)
    + Desenhar() : void
    + FilhoAdicionar(filho:Objeto) : void
    + FilhoRemover(filho:Objeto) : void
}
Objeto - -> "ObjetoCor" Cor
Objeto - -> "PrimitivaTipo" PrimitiveType
Objeto - -> "BBox" BBox
@enduml

PlantUML version 1.2022.0(Tue Jan 11 13:16:42 BRT 2022)
(GPL source distribution)
Java Runtime: OpenJDK Runtime Environment
JVM: OpenJDK 64-Bit Server VM
Default Encoding: UTF-8
Language: en
Country: BR
--></g></svg>