<?xml version="1.0" encoding="UTF-8" standalone="no"?><svg xmlns="http://www.w3.org/2000/svg" xmlns:xlink="http://www.w3.org/1999/xlink" contentScriptType="application/ecmascript" contentStyleType="text/css" height="254px" preserveAspectRatio="none" style="width:293px;height:254px;background:#FFFFFF;" version="1.1" viewBox="0 0 293 254" width="293px" zoomAndPan="magnify"><defs><filter height="300%" id="flq97jw7e5z8n" width="300%" x="-1" y="-1"><feGaussianBlur result="blurOut" stdDeviation="2.0"/><feColorMatrix in="blurOut" result="blurOut2" type="matrix" values="0 0 0 0 0 0 0 0 0 0 0 0 0 0 0 0 0 0 .4 0"/><feOffset dx="4.0" dy="4.0" in="blurOut2" result="blurOut3"/><feBlend in="SourceGraphic" in2="blurOut3" mode="normal"/></filter></defs><g><!--MD5=[8b9e0d00865063ef789ad294aa32e6ea]
class ObjetoGeometria--><rect codeLine="1" fill="#FEFECE" filter="url(#flq97jw7e5z8n)" height="125.7305" id="ObjetoGeometria" style="stroke:#A80036;stroke-width:1.5;" width="272" x="7" y="115"/><ellipse cx="89.25" cy="131" fill="#A9DCDF" rx="11" ry="11" style="stroke:#A80036;stroke-width:1.0;"/><path d="M89.1133,126.3481 L87.9595,131.4199 L90.2754,131.4199 Z M87.6191,124.1069 L90.6157,124.1069 L93.9609,136.5 L91.5122,136.5 L90.7485,133.437 L87.4697,133.437 L86.7227,136.5 L84.2739,136.5 Z " fill="#000000"/><text fill="#000000" font-family="sans-serif" font-size="12" font-style="italic" lengthAdjust="spacing" textLength="99" x="109.75" y="135.5352">ObjetoGeometria</text><line style="stroke:#A80036;stroke-width:1.5;" x1="8" x2="278" y1="147" y2="147"/><line style="stroke:#A80036;stroke-width:1.5;" x1="8" x2="278" y1="155" y2="155"/><ellipse cx="18" cy="166" fill="#84BE84" rx="3" ry="3" style="stroke:#038048;stroke-width:1.0;"/><text fill="#000000" font-family="sans-serif" font-size="11" lengthAdjust="spacing" textLength="245" x="27" y="169.6348">ObjetoGeometria(rotulo:string, paiRef:Objeto)</text><ellipse cx="18" cy="178.9551" fill="#84BE84" rx="3" ry="3" style="stroke:#038048;stroke-width:1.0;"/><text fill="#000000" font-family="sans-serif" font-size="11" lengthAdjust="spacing" textLength="196" x="27" y="182.5898">PontosAdicionar(pto:Ponto4D) : void</text><ellipse cx="18" cy="191.9102" fill="#84BE84" rx="3" ry="3" style="stroke:#038048;stroke-width:1.0;"/><text fill="#000000" font-family="sans-serif" font-size="11" lengthAdjust="spacing" textLength="159" x="27" y="195.5449">PontosRemoverUltimo() : void</text><ellipse cx="18" cy="204.8652" fill="#84BE84" rx="3" ry="3" style="stroke:#038048;stroke-width:1.0;"/><text fill="#000000" font-family="sans-serif" font-size="11" lengthAdjust="spacing" textLength="135" x="27" y="208.5">PontosUltimo() : Ponto4D</text><ellipse cx="18" cy="217.8203" fill="#84BE84" rx="3" ry="3" style="stroke:#038048;stroke-width:1.0;"/><text fill="#000000" font-family="sans-serif" font-size="11" lengthAdjust="spacing" textLength="246" x="27" y="221.4551">PontosAlterar(pto:Ponto4D, posicao:int) : void</text><ellipse cx="18" cy="230.7754" fill="#84BE84" rx="3" ry="3" style="stroke:#038048;stroke-width:1.0;"/><text fill="#000000" font-family="sans-serif" font-size="11" lengthAdjust="spacing" textLength="155" x="27" y="234.4102">«override» ToString() : string</text><!--MD5=[3051a6a8f877a755a60c7cfd1e6f410a]
class Objeto--><rect fill="#FEFECE" filter="url(#flq97jw7e5z8n)" height="48" id="Objeto" style="stroke:#A80036;stroke-width:1.5;" width="71" x="107.5" y="7"/><ellipse cx="122.5" cy="23" fill="#ADD1B2" rx="11" ry="11" style="stroke:#A80036;stroke-width:1.0;"/><path d="M124.9731,29.1431 Q124.3921,29.4419 123.7529,29.5913 Q123.1138,29.7407 122.4082,29.7407 Q119.9014,29.7407 118.5815,28.0889 Q117.2617,26.437 117.2617,23.3159 Q117.2617,20.1865 118.5815,18.5347 Q119.9014,16.8828 122.4082,16.8828 Q123.1138,16.8828 123.7612,17.0322 Q124.4087,17.1816 124.9731,17.4805 L124.9731,20.2031 Q124.3423,19.6221 123.7488,19.3523 Q123.1553,19.0825 122.5244,19.0825 Q121.1797,19.0825 120.4949,20.1492 Q119.8101,21.2158 119.8101,23.3159 Q119.8101,25.4077 120.4949,26.4744 Q121.1797,27.541 122.5244,27.541 Q123.1553,27.541 123.7488,27.2712 Q124.3423,27.0015 124.9731,26.4204 Z " fill="#000000"/><text fill="#000000" font-family="sans-serif" font-size="12" lengthAdjust="spacing" textLength="39" x="136.5" y="27.5352">Objeto</text><line style="stroke:#A80036;stroke-width:1.5;" x1="108.5" x2="177.5" y1="39" y2="39"/><line style="stroke:#A80036;stroke-width:1.5;" x1="108.5" x2="177.5" y1="47" y2="47"/><!--MD5=[a03c7e7dbc7aa919221c9dfab59c60ca]
reverse link Objeto to ObjetoGeometria--><path codeLine="9" d="M143,75.3059 C143,87.7967 143,101.6307 143,114.9924 " fill="none" id="Objeto-backto-ObjetoGeometria" style="stroke:#A80036;stroke-width:1.0;"/><polygon fill="none" points="136.0001,75.2741,143,55.2741,150.0001,75.274,136.0001,75.2741" style="stroke:#A80036;stroke-width:1.0;"/><!--MD5=[fe7b84d5eae1695b96c860ea0466e890]
@startuml ObjetoGeometria
abstract class ObjetoGeometria {
    + ObjetoGeometria(rotulo:string, paiRef:Objeto)
    + PontosAdicionar(pto:Ponto4D) : void
    + PontosRemoverUltimo() : void
    + PontosUltimo() : Ponto4D
    + PontosAlterar(pto:Ponto4D, posicao:int) : void
    + <<override>> ToString() : string
}
Objeto <|- - ObjetoGeometria
@enduml

PlantUML version 1.2022.0(Tue Jan 11 13:16:42 BRT 2022)
(GPL source distribution)
Java Runtime: OpenJDK Runtime Environment
JVM: OpenJDK 64-Bit Server VM
Default Encoding: UTF-8
Language: en
Country: BR
--></g></svg>