<?xml version="1.0" encoding="UTF-8" standalone="no"?><svg xmlns="http://www.w3.org/2000/svg" xmlns:xlink="http://www.w3.org/1999/xlink" contentScriptType="application/ecmascript" contentStyleType="text/css" height="202px" preserveAspectRatio="none" style="width:470px;height:202px;background:#FFFFFF;" version="1.1" viewBox="0 0 470 202" width="470px" zoomAndPan="magnify"><defs><filter height="300%" id="f1ope25vezwezd" width="300%" x="-1" y="-1"><feGaussianBlur result="blurOut" stdDeviation="2.0"/><feColorMatrix in="blurOut" result="blurOut2" type="matrix" values="0 0 0 0 0 0 0 0 0 0 0 0 0 0 0 0 0 0 .4 0"/><feOffset dx="4.0" dy="4.0" in="blurOut2" result="blurOut3"/><feBlend in="SourceGraphic" in2="blurOut3" mode="normal"/></filter></defs><g><!--MD5=[b6968d6f0311dc2ba07018bef6e7bfd3]
class Retangulo--><rect codeLine="1" fill="#FEFECE" filter="url(#f1ope25vezwezd)" height="73.9102" id="Retangulo" style="stroke:#A80036;stroke-width:1.5;" width="449" x="7" y="115"/><ellipse cx="198.75" cy="131" fill="#ADD1B2" rx="11" ry="11" style="stroke:#A80036;stroke-width:1.0;"/><path d="M201.2231,137.1431 Q200.6421,137.4419 200.0029,137.5913 Q199.3638,137.7407 198.6582,137.7407 Q196.1514,137.7407 194.8315,136.0889 Q193.5117,134.437 193.5117,131.3159 Q193.5117,128.1865 194.8315,126.5347 Q196.1514,124.8828 198.6582,124.8828 Q199.3638,124.8828 200.0112,125.0322 Q200.6587,125.1816 201.2231,125.4805 L201.2231,128.2031 Q200.5923,127.6221 199.9988,127.3523 Q199.4053,127.0825 198.7744,127.0825 Q197.4297,127.0825 196.7449,128.1492 Q196.0601,129.2158 196.0601,131.3159 Q196.0601,133.4077 196.7449,134.4744 Q197.4297,135.541 198.7744,135.541 Q199.4053,135.541 199.9988,135.2712 Q200.5923,135.0015 201.2231,134.4204 Z " fill="#000000"/><text fill="#000000" font-family="sans-serif" font-size="12" lengthAdjust="spacing" textLength="57" x="219.25" y="135.5352">Retangulo</text><line style="stroke:#A80036;stroke-width:1.5;" x1="8" x2="455" y1="147" y2="147"/><line style="stroke:#A80036;stroke-width:1.5;" x1="8" x2="455" y1="155" y2="155"/><ellipse cx="18" cy="166" fill="#84BE84" rx="3" ry="3" style="stroke:#038048;stroke-width:1.0;"/><text fill="#000000" font-family="sans-serif" font-size="11" lengthAdjust="spacing" textLength="423" x="27" y="169.6348">Retangulo(rotulo:string, paiRef:Objeto, ptoInfEsq:Ponto4D, ptoSupDir:Ponto4D)</text><ellipse cx="18" cy="178.9551" fill="#84BE84" rx="3" ry="3" style="stroke:#038048;stroke-width:1.0;"/><text fill="#000000" font-family="sans-serif" font-size="11" lengthAdjust="spacing" textLength="155" x="27" y="182.5898">«override» ToString() : string</text><!--MD5=[8b9e0d00865063ef789ad294aa32e6ea]
class ObjetoGeometria--><rect fill="#FEFECE" filter="url(#f1ope25vezwezd)" height="48" id="ObjetoGeometria" style="stroke:#A80036;stroke-width:1.5;" width="131" x="166" y="7"/><ellipse cx="181" cy="23" fill="#ADD1B2" rx="11" ry="11" style="stroke:#A80036;stroke-width:1.0;"/><path d="M183.4731,29.1431 Q182.8921,29.4419 182.2529,29.5913 Q181.6138,29.7407 180.9082,29.7407 Q178.4014,29.7407 177.0815,28.0889 Q175.7617,26.437 175.7617,23.3159 Q175.7617,20.1865 177.0815,18.5347 Q178.4014,16.8828 180.9082,16.8828 Q181.6138,16.8828 182.2612,17.0322 Q182.9087,17.1816 183.4731,17.4805 L183.4731,20.2031 Q182.8423,19.6221 182.2488,19.3523 Q181.6553,19.0825 181.0244,19.0825 Q179.6797,19.0825 178.9949,20.1492 Q178.3101,21.2158 178.3101,23.3159 Q178.3101,25.4077 178.9949,26.4744 Q179.6797,27.541 181.0244,27.541 Q181.6553,27.541 182.2488,27.2712 Q182.8423,27.0015 183.4731,26.4204 Z " fill="#000000"/><text fill="#000000" font-family="sans-serif" font-size="12" lengthAdjust="spacing" textLength="99" x="195" y="27.5352">ObjetoGeometria</text><line style="stroke:#A80036;stroke-width:1.5;" x1="167" x2="296" y1="39" y2="39"/><line style="stroke:#A80036;stroke-width:1.5;" x1="167" x2="296" y1="47" y2="47"/><!--MD5=[26236c37487edb4672de193cef5bd1db]
reverse link ObjetoGeometria to Retangulo--><path codeLine="5" d="M231.5,75.5529 C231.5,88.5142 231.5,102.5269 231.5,114.9716 " fill="none" id="ObjetoGeometria-backto-Retangulo" style="stroke:#A80036;stroke-width:1.0;"/><polygon fill="none" points="224.5001,75.1954,231.5,55.1953,238.5001,75.1953,224.5001,75.1954" style="stroke:#A80036;stroke-width:1.0;"/><!--MD5=[0905afc34d2e9bdb56a43749e3e082a6]
@startuml Retangulo
class Retangulo {
    + Retangulo(rotulo:string, paiRef:Objeto, ptoInfEsq:Ponto4D, ptoSupDir:Ponto4D)
    + <<override>> ToString() : string
}
ObjetoGeometria <|- - Retangulo
@enduml

PlantUML version 1.2022.0(Tue Jan 11 13:16:42 BRT 2022)
(GPL source distribution)
Java Runtime: OpenJDK Runtime Environment
JVM: OpenJDK 64-Bit Server VM
Default Encoding: UTF-8
Language: en
Country: BR
--></g></svg>